BowlbyOneSC-Regular.ufo
<glyph name="exclam" format="1">
  <advance width="792"/>
  <unicode hex="0021"/>
  <outline>
    <contour>
      <point x="89.7133" y="1461.83" type="line" smooth="no"/>
      <point x="89.7133" y="1501.83"/>
      <point x="272" y="1496"/>
      <point x="260" y="1496" type="curve" smooth="yes"/>
      <point x="380" y="1496" type="line" smooth="no"/>
      <point x="454" y="1502"/>
      <point x="530" y="1508"/>
      <point x="616" y="1508" type="curve" smooth="yes"/>
      <point x="664" y="1508"/>
      <point x="706" y="1500"/>
      <point x="706" y="1468" type="curve" smooth="no"/>
      <point x="634.107" y="557.36" type="line" smooth="yes"/>
      <point x="632.107" y="527.36"/>
      <point x="574" y="522"/>
      <point x="516" y="522" type="curve" smooth="yes"/>
      <point x="490" y="522"/>
      <point x="464" y="524"/>
      <point x="438" y="524" type="curve" smooth="yes"/>
      <point x="384" y="524"/>
      <point x="334" y="520"/>
      <point x="280" y="520" type="curve" smooth="yes"/>
      <point x="194" y="520" type="line" smooth="no"/>
      <point x="148" y="536"/>
      <point x="147.313" y="606.24"/>
      <point x="147.313" y="666.24" type="curve" smooth="no"/>
    </contour>
    <contour>
      <point x="120.683" y="0.0390561" type="curve" smooth="no"/>
      <point x="112" y="152" type="line" smooth="no"/>
      <point x="112" y="252"/>
      <point x="126" y="356"/>
      <point x="148" y="356" type="curve" smooth="yes"/>
      <point x="344" y="356" type="line" smooth="yes"/>
      <point x="622" y="356"/>
      <point x="656" y="346"/>
      <point x="656" y="320" type="curve" smooth="yes"/>
      <point x="656" y="4" type="line" smooth="no"/>
      <point x="646" y="-44"/>
      <point x="208" y="-32"/>
      <point x="146" y="-32" type="curve" smooth="no"/>
      <point x="146" y="-16" type="line" smooth="no"/>
      <point x="140" y="-10"/>
      <point x="122.683" y="-5.96094"/>
    </contour>
  </outline>
</glyph>
<glyph name="quotedbl" format="1">
  <advance width="1284"/>
  <unicode hex="0022"/>
  <outline>
    <contour>
      <point x="380" y="1508" type="curve" smooth="no"/>
      <point x="402.876" y="1510.29"/>
      <point x="425.977" y="1512"/>
      <point x="452" y="1512" type="curve" smooth="yes"/>
      <point x="516" y="1512"/>
      <point x="600" y="1504"/>
      <point x="600" y="1476" type="curve" smooth="yes"/>
      <point x="600" y="1466" type="line" smooth="no"/>
      <point x="606" y="1282"/>
      <point x="612" y="1086"/>
      <point x="612" y="900" type="curve" smooth="yes"/>
      <point x="612" y="846"/>
      <point x="594" y="842"/>
      <point x="536" y="842" type="curve" smooth="yes"/>
      <point x="180" y="842" type="line" smooth="no"/>
      <point x="180" y="1440" type="line" smooth="yes"/>
      <point x="180" y="1472"/>
      <point x="196" y="1504"/>
      <point x="214" y="1510" type="curve" smooth="no"/>
      <point x="270" y="1510"/>
      <point x="326" y="1508"/>
    </contour>
    <contour>
      <point x="700" y="922" type="curve" smooth="yes"/>
      <point x="700" y="1444" type="line" smooth="yes"/>
      <point x="700" y="1476"/>
      <point x="714" y="1512"/>
      <point x="734" y="1512" type="curve" smooth="yes"/>
      <point x="1116" y="1512" type="line" smooth="no"/>
      <point x="1116" y="1480" type="line" smooth="no"/>
      <point x="1126" y="1282"/>
      <point x="1128" y="1098"/>
      <point x="1128" y="896" type="curve" smooth="yes"/>
      <point x="1128" y="870"/>
      <point x="1126" y="850"/>
      <point x="1104" y="850" type="curve" smooth="yes"/>
      <point x="988" y="850" type="line" smooth="yes"/>
      <point x="902" y="850"/>
      <point x="818" y="840"/>
      <point x="732" y="838" type="curve" smooth="no"/>
      <point x="732" y="856" type="line" smooth="no"/>
      <point x="720" y="874"/>
      <point x="700" y="888"/>
    </contour>
  </outline>
</glyph>
<glyph name="numbersign" format="1">
  <advance width="1548"/>
  <unicode hex="0023"/>
  <outline>
    <contour>
      <point x="224" y="440" type="curve" smooth="yes"/>
      <point x="224" y="490"/>
      <point x="226" y="562"/>
      <point x="226" y="632" type="curve" smooth="yes"/>
      <point x="226" y="664"/>
      <point x="258" y="668"/>
      <point x="296" y="668" type="curve" smooth="yes"/>
      <point x="412" y="668" type="line" smooth="no"/>
      <point x="412" y="812" type="line" smooth="no"/>
      <point x="356" y="812"/>
      <point x="288" y="812"/>
      <point x="288" y="848" type="curve" smooth="yes"/>
      <point x="288" y="922"/>
      <point x="292" y="1000"/>
      <point x="292" y="1078" type="curve" smooth="yes"/>
      <point x="292" y="1110"/>
      <point x="352" y="1114"/>
      <point x="406" y="1114" type="curve" smooth="yes"/>
      <point x="436" y="1114"/>
      <point x="467.482" y="1111.24"/>
      <point x="475.482" y="1111.24" type="curve" smooth="no"/>
      <point x="521.746" y="1446.66" type="line" smooth="no"/>
      <point x="527.746" y="1508.66"/>
      <point x="558" y="1510"/>
      <point x="680" y="1510" type="curve" smooth="yes"/>
      <point x="748" y="1510" type="line" smooth="yes"/>
      <point x="790" y="1510"/>
      <point x="818" y="1506"/>
      <point x="826" y="1480" type="curve" smooth="no"/>
      <point x="804" y="1354"/>
      <point x="794" y="1228"/>
      <point x="772" y="1102" type="curve" smooth="no"/>
      <point x="870" y="1102" type="line" smooth="no"/>
      <point x="870" y="1252" type="line" smooth="no"/>
      <point x="880" y="1362"/>
      <point x="912" y="1478"/>
      <point x="936" y="1502" type="curve" smooth="no"/>
      <point x="1176" y="1502" type="line" smooth="yes"/>
      <point x="1198" y="1502"/>
      <point x="1210" y="1502"/>
      <point x="1210" y="1478" type="curve" smooth="no"/>
      <point x="1162" y="1104" type="line" smooth="no"/>
      <point x="1284" y="1104" type="line" smooth="no"/>
      <point x="1306" y="1102"/>
      <point x="1308" y="1066"/>
      <point x="1308" y="1032" type="curve" smooth="yes"/>
      <point x="1308" y="860" type="line" smooth="yes"/>
      <point x="1308" y="826"/>
      <point x="1248" y="818"/>
      <point x="1196" y="818" type="curve" smooth="yes"/>
      <point x="1162" y="818"/>
      <point x="1132" y="822"/>
      <point x="1126" y="822" type="curve" smooth="no"/>
      <point x="1118" y="768"/>
      <point x="1114" y="718"/>
      <point x="1106" y="664" type="curve" smooth="no"/>
      <point x="1254" y="664" type="line" smooth="no"/>
      <point x="1254" y="400" type="line" smooth="no"/>
      <point x="1252" y="386"/>
      <point x="1246" y="378"/>
      <point x="1232" y="378" type="curve" smooth="yes"/>
      <point x="1180" y="378"/>
      <point x="1130" y="382"/>
      <point x="1074" y="382" type="curve" smooth="no"/>
      <point x="1052" y="200" type="line" smooth="yes"/>
      <point x="1044" y="134"/>
      <point x="1076" y="-28"/>
      <point x="932" y="-28" type="curve" smooth="yes"/>
      <point x="916" y="-28"/>
      <point x="886" y="-30"/>
      <point x="848" y="-30" type="curve" smooth="yes"/>
      <point x="786" y="-30"/>
      <point x="724" y="-24"/>
      <point x="718" y="8" type="curve" smooth="no"/>
      <point x="734" y="122"/>
      <point x="744" y="240"/>
      <point x="764" y="368" type="curve" smooth="no"/>
      <point x="750" y="366"/>
      <point x="738" y="366"/>
      <point x="724" y="366" type="curve" smooth="yes"/>
      <point x="684" y="366" type="line" smooth="no"/>
      <point x="652" y="84" type="line" smooth="no"/>
      <point x="642" y="28"/>
      <point x="648" y="-34"/>
      <point x="572" y="-34" type="curve" smooth="yes"/>
      <point x="498" y="-34"/>
      <point x="422" y="-32"/>
      <point x="350" y="-30" type="curve" smooth="no"/>
      <point x="320" y="16" type="line" smooth="no"/>
      <point x="368" y="364" type="line" smooth="no"/>
      <point x="344" y="364" type="line" smooth="yes"/>
      <point x="238" y="364"/>
      <point x="224" y="364"/>
    </contour>
    <contour>
      <point x="668" y="648" type="curve" smooth="no"/>
      <point x="668" y="632"/>
      <point x="672" y="620"/>
      <point x="688" y="620" type="curve" smooth="yes"/>
      <point x="844" y="620" type="line" smooth="no"/>
      <point x="880" y="840" type="line" smooth="no"/>
      <point x="878" y="858"/>
      <point x="868" y="868"/>
      <point x="852" y="868" type="curve" smooth="yes"/>
      <point x="804" y="868" type="line" smooth="no"/>
      <point x="788" y="870"/>
      <point x="774" y="872"/>
      <point x="760" y="872" type="curve" smooth="yes"/>
      <point x="716" y="872" type="line" smooth="no"/>
      <point x="716" y="846" type="line" smooth="no"/>
      <point x="703.956" y="780.711"/>
      <point x="678.567" y="714.766"/>
    </contour>
  </outline>
</glyph>
<glyph name="dollar" format="1">
  <advance width="1444"/>
  <unicode hex="0024"/>
  <outline>
    <contour>
      <point x="22" y="452" type="curve" smooth="no"/>
      <point x="22" y="484"/>
      <point x="56" y="488"/>
      <point x="90" y="488" type="curve" smooth="yes"/>
      <point x="596" y="488" type="line" smooth="yes"/>
      <point x="658" y="488"/>
      <point x="594" y="332"/>
      <point x="742" y="332" type="curve" smooth="yes"/>
      <point x="806" y="332"/>
      <point x="868" y="362"/>
      <point x="868" y="432" type="curve" smooth="yes"/>
      <point x="868" y="496"/>
      <point x="776" y="502"/>
      <point x="668" y="530" type="curve" smooth="yes"/>
      <point x="576" y="554" type="line" smooth="no"/>
      <point x="196" y="646"/>
      <point x="56" y="772"/>
      <point x="56" y="1022" type="curve" smooth="yes"/>
      <point x="56" y="1392"/>
      <point x="330" y="1484"/>
      <point x="548" y="1530" type="curve" smooth="no"/>
      <point x="546" y="1548"/>
      <point x="546" y="1568"/>
      <point x="546" y="1590" type="curve" smooth="yes"/>
      <point x="546" y="1664" type="line" smooth="yes"/>
      <point x="546" y="1694"/>
      <point x="544" y="1728"/>
      <point x="568" y="1732" type="curve" smooth="no"/>
      <point x="648" y="1732" type="line" smooth="yes"/>
      <point x="718" y="1732"/>
      <point x="778" y="1734"/>
      <point x="848" y="1734" type="curve" smooth="yes"/>
      <point x="880" y="1734"/>
      <point x="888" y="1684"/>
      <point x="888" y="1634" type="curve" smooth="yes"/>
      <point x="888" y="1596"/>
      <point x="884" y="1554"/>
      <point x="884" y="1528" type="curve" smooth="no"/>
      <point x="1182.34" y="1504.13"/>
      <point x="1351.76" y="1394.88"/>
      <point x="1404" y="1064" type="curve" smooth="no"/>
      <point x="1402" y="1054"/>
      <point x="1396" y="1048"/>
      <point x="1388" y="1048" type="curve" smooth="no"/>
      <point x="1388" y="1048" type="line" smooth="no"/>
      <point x="1230" y="1048"/>
      <point x="1078" y="1038"/>
      <point x="920" y="1038" type="curve" smooth="yes"/>
      <point x="798" y="1038"/>
      <point x="874" y="1164"/>
      <point x="740" y="1164" type="curve" smooth="no"/>
      <point x="690" y="1154"/>
      <point x="624" y="1150"/>
      <point x="624" y="1096" type="curve" smooth="yes"/>
      <point x="624" y="1014"/>
      <point x="782" y="1014"/>
      <point x="860" y="988" type="curve" smooth="no"/>
      <point x="966" y="962" type="line" smooth="yes"/>
      <point x="1072" y="936"/>
      <point x="1176" y="900"/>
      <point x="1272" y="848" type="curve" smooth="no"/>
      <point x="1400" y="752"/>
      <point x="1464" y="610"/>
      <point x="1464" y="456" type="curve" smooth="yes"/>
      <point x="1464" y="116"/>
      <point x="1174" y="0"/>
      <point x="908" y="-54" type="curve" smooth="no"/>
      <point x="908" y="-156" type="line" smooth="yes"/>
      <point x="908" y="-166"/>
      <point x="910" y="-178"/>
      <point x="912" y="-188" type="curve" smooth="no"/>
      <point x="912" y="-224" type="line" smooth="no"/>
      <point x="910" y="-248"/>
      <point x="894" y="-260"/>
      <point x="868" y="-260" type="curve" smooth="yes"/>
      <point x="720" y="-260" type="line" smooth="no"/>
      <point x="672" y="-258"/>
      <point x="622" y="-256"/>
      <point x="572" y="-252" type="curve" smooth="no"/>
      <point x="556" y="-242"/>
      <point x="548" y="-226"/>
      <point x="534" y="-216" type="curve" smooth="no"/>
      <point x="536" y="-206"/>
      <point x="536" y="-194"/>
      <point x="536" y="-184" type="curve" smooth="yes"/>
      <point x="536" y="-150" type="line" smooth="yes"/>
      <point x="536" y="-26"/>
      <point x="500" y="-50"/>
      <point x="420" y="-28" type="curve" smooth="yes"/>
      <point x="144" y="46"/>
      <point x="38" y="208"/>
    </contour>
  </outline>
</glyph>
<glyph name="quotesingle" format="1">
  <advance width="802"/>
  <unicode hex="0027"/>
  <outline>
    <contour>
      <point x="282" y="1508" type="line" smooth="yes"/>
      <point x="339.902" y="1508"/>
      <point x="604" y="1529.73"/>
      <point x="604" y="1476" type="curve" smooth="yes"/>
      <point x="606" y="1292"/>
      <point x="612" y="1092"/>
      <point x="612" y="902" type="curve" smooth="yes"/>
      <point x="612" y="844"/>
      <point x="512" y="836"/>
      <point x="388" y="836" type="curve" smooth="yes"/>
      <point x="216" y="836" type="line" smooth="no"/>
      <point x="200" y="846"/>
      <point x="188" y="858"/>
      <point x="178" y="872" type="curve" smooth="no"/>
      <point x="178" y="1440" type="line" smooth="yes"/>
      <point x="178" y="1468"/>
      <point x="194" y="1504"/>
      <point x="216" y="1508" type="curve" smooth="no"/>
    </contour>
  </outline>
</glyph>
<glyph name="parenleft" format="1">
  <advance width="832"/>
  <unicode hex="0028"/>
  <outline>
    <contour>
      <point x="124" y="614" type="curve" smooth="no"/>
      <point x="144" y="886"/>
      <point x="324" y="1500"/>
      <point x="380" y="1500" type="curve" smooth="no"/>
      <point x="382" y="1502"/>
      <point x="386" y="1504"/>
      <point x="392" y="1504" type="curve" smooth="yes"/>
      <point x="518" y="1510"/>
      <point x="640" y="1510"/>
      <point x="766" y="1512" type="curve" smooth="no"/>
      <point x="784" y="1510"/>
      <point x="790" y="1502"/>
      <point x="796" y="1480" type="curve" smooth="no"/>
      <point x="742" y="1276" type="line" smooth="no"/>
      <point x="674" y="1048"/>
      <point x="620" y="812"/>
      <point x="620" y="602" type="curve" smooth="no"/>
      <point x="628" y="386"/>
      <point x="676" y="156"/>
      <point x="748" y="-76" type="curve" smooth="no"/>
      <point x="804" y="-276" type="line" smooth="no"/>
      <point x="799.143" y="-284.5"/>
      <point x="794.985" y="-295.508"/>
      <point x="786" y="-300" type="curve" smooth="no"/>
      <point x="786" y="-324" type="line" smooth="no"/>
      <point x="712" y="-324" type="line" smooth="yes"/>
      <point x="600" y="-324"/>
      <point x="496" y="-316"/>
      <point x="384" y="-316" type="curve" smooth="no"/>
      <point x="362" y="-308"/>
      <point x="332" y="-240"/>
      <point x="304" y="-166" type="curve" smooth="no"/>
      <point x="283.335" y="-101.332"/>
      <point x="262.696" y="-36.6369"/>
      <point x="242" y="28" type="curve" smooth="no"/>
      <point x="172" y="214"/>
      <point x="130" y="398"/>
    </contour>
  </outline>
</glyph>
<glyph name="parenright" format="1">
  <advance width="834"/>
  <unicode hex="0029"/>
  <outline>
    <contour>
      <point x="210" y="590" type="curve" smooth="no"/>
      <point x="213.937" y="897.111"/>
      <point x="98.6563" y="1224.24"/>
      <point x="24" y="1484" type="curve" smooth="no"/>
      <point x="24" y="1524" type="line" smooth="no"/>
      <point x="432" y="1524" type="line" smooth="yes"/>
      <point x="450" y="1524"/>
      <point x="464" y="1514"/>
      <point x="476" y="1492" type="curve" smooth="no"/>
      <point x="554" y="1278" type="line" smooth="no"/>
      <point x="638" y="1060"/>
      <point x="710" y="828"/>
      <point x="710" y="592" type="curve" smooth="yes"/>
      <point x="710" y="486"/>
      <point x="688" y="374"/>
      <point x="660" y="268" type="curve" smooth="no"/>
      <point x="626.4" y="160.267"/>
      <point x="592.893" y="52.44"/>
      <point x="558" y="-54" type="curve" smooth="no"/>
      <point x="512" y="-182"/>
      <point x="466" y="-304"/>
      <point x="448" y="-308" type="curve" smooth="no"/>
      <point x="44" y="-308" type="line" smooth="no"/>
      <point x="44" y="-294"/>
      <point x="54" y="-262"/>
      <point x="60" y="-248" type="curve" smooth="no"/>
      <point x="124" y="-30"/>
      <point x="210" y="302"/>
    </contour>
  </outline>
</glyph>
<glyph name="asterisk" format="1">
  <advance width="930"/>
  <unicode hex="002a"/>
  <outline>
    <contour>
      <point x="372" y="740" type="curve" smooth="yes"/>
      <point x="348.109" y="740"/>
      <point x="178" y="834.54"/>
      <point x="178" y="852" type="curve" smooth="yes"/>
      <point x="178" y="858"/>
      <point x="180" y="866"/>
      <point x="188" y="882" type="curve" smooth="yes"/>
      <point x="234" y="970" type="line" smooth="no"/>
      <point x="256" y="1008" type="line" smooth="no"/>
      <point x="234" y="1008"/>
      <point x="202" y="1006"/>
      <point x="180" y="1006" type="curve" smooth="yes"/>
      <point x="146" y="1006" type="line" smooth="no"/>
      <point x="76" y="1016"/>
      <point x="76" y="1036"/>
      <point x="76" y="1140" type="curve" smooth="yes"/>
      <point x="76" y="1190"/>
      <point x="86" y="1234"/>
      <point x="108" y="1248" type="curve" smooth="no"/>
      <point x="156" y="1248"/>
      <point x="220" y="1246"/>
      <point x="268" y="1244" type="curve" smooth="no"/>
      <point x="236" y="1296" type="line" smooth="no"/>
      <point x="236" y="1294" type="line" smooth="no"/>
      <point x="202" y="1354" type="line" smooth="no"/>
      <point x="192" y="1376"/>
      <point x="184" y="1392"/>
      <point x="182" y="1408" type="curve" smooth="no"/>
      <point x="182" y="1424"/>
      <point x="210" y="1440"/>
      <point x="228" y="1444" type="curve" smooth="no"/>
      <point x="280" y="1478" type="line" smooth="yes"/>
      <point x="312" y="1498"/>
      <point x="346" y="1518"/>
      <point x="368" y="1518" type="curve" smooth="no"/>
      <point x="378" y="1516"/>
      <point x="400" y="1484"/>
      <point x="420" y="1448" type="curve" smooth="no"/>
      <point x="420" y="1410" type="line" smooth="no"/>
      <point x="420" y="1412" type="line" smooth="no"/>
      <point x="472" y="1348" type="line" smooth="no"/>
      <point x="472" y="1376" type="line" smooth="no"/>
      <point x="478" y="1386"/>
      <point x="494" y="1396"/>
      <point x="496" y="1404" type="curve" smooth="no"/>
      <point x="496" y="1426" type="line" smooth="no"/>
      <point x="508" y="1450"/>
      <point x="554" y="1512"/>
      <point x="568" y="1520" type="curve" smooth="no"/>
      <point x="628" y="1492" type="line" smooth="yes"/>
      <point x="678" y="1468"/>
      <point x="748" y="1428"/>
      <point x="748" y="1412" type="curve" smooth="yes"/>
      <point x="748" y="1390"/>
      <point x="736" y="1374"/>
      <point x="722" y="1352" type="curve" smooth="yes"/>
      <point x="694" y="1308" type="line" smooth="yes"/>
      <point x="684" y="1292"/>
      <point x="672" y="1270"/>
      <point x="658" y="1240" type="curve" smooth="no"/>
      <point x="684" y="1240" type="line" smooth="no"/>
      <point x="700" y="1244"/>
      <point x="718" y="1248"/>
      <point x="738" y="1248" type="curve" smooth="yes"/>
      <point x="788" y="1248" type="line" smooth="yes"/>
      <point x="828" y="1248"/>
      <point x="856" y="1270"/>
      <point x="856" y="1162" type="curve" smooth="yes"/>
      <point x="856" y="1144"/>
      <point x="854" y="1126"/>
      <point x="850" y="1104" type="curve" smooth="no"/>
      <point x="850" y="1052" type="line" smooth="yes"/>
      <point x="850" y="1034"/>
      <point x="786" y="1032"/>
      <point x="726" y="1028" type="curve" smooth="no"/>
      <point x="668" y="1028" type="line" smooth="no"/>
      <point x="702" y="970" type="line" smooth="no"/>
      <point x="708" y="962"/>
      <point x="712" y="954"/>
      <point x="714" y="944" type="curve" smooth="no"/>
      <point x="714" y="912" type="line" smooth="no"/>
      <point x="722" y="904"/>
      <point x="758.911" y="867.781"/>
      <point x="758.911" y="853.781" type="curve" smooth="no"/>
      <point x="568.098" y="737.17" type="line" smooth="no"/>
      <point x="474" y="894" type="line" smooth="no"/>
      <point x="432" y="814" type="line" smooth="yes"/>
      <point x="406" y="766"/>
      <point x="396" y="740"/>
    </contour>
  </outline>
</glyph>
<glyph name="plus" format="1">
  <advance width="1270"/>
  <unicode hex="002b"/>
  <outline>
    <contour>
      <point x="84" y="448" type="curve" smooth="yes"/>
      <point x="84" y="476" type="line" smooth="no"/>
      <point x="86" y="484"/>
      <point x="86" y="492"/>
      <point x="86" y="500" type="curve" smooth="yes"/>
      <point x="86" y="542"/>
      <point x="84" y="582"/>
      <point x="84" y="624" type="curve" smooth="yes"/>
      <point x="84" y="678"/>
      <point x="88" y="696"/>
      <point x="140" y="696" type="curve" smooth="yes"/>
      <point x="462" y="696" type="line" smooth="no"/>
      <point x="462" y="1016" type="line" smooth="no"/>
      <point x="464" y="1060"/>
      <point x="468" y="1076"/>
      <point x="522" y="1076" type="curve" smooth="yes"/>
      <point x="702" y="1076" type="line" smooth="yes"/>
      <point x="748" y="1076"/>
      <point x="792" y="1072"/>
      <point x="798" y="1048" type="curve" smooth="no"/>
      <point x="798" y="926"/>
      <point x="796" y="810"/>
      <point x="796" y="688" type="curve" smooth="no"/>
      <point x="1148" y="688" type="line" smooth="no"/>
      <point x="1170" y="686"/>
      <point x="1176" y="672"/>
      <point x="1176" y="642" type="curve" smooth="yes"/>
      <point x="1176" y="584"/>
      <point x="1174" y="526"/>
      <point x="1174" y="468" type="curve" smooth="yes"/>
      <point x="1174" y="434" type="line" smooth="yes"/>
      <point x="1174" y="408"/>
      <point x="1170" y="376"/>
      <point x="1160" y="376" type="curve" smooth="yes"/>
      <point x="790" y="376" type="line" smooth="no"/>
      <point x="792" y="320"/>
      <point x="794" y="264"/>
      <point x="794" y="208" type="curve" smooth="yes"/>
      <point x="794" y="40" type="line" smooth="yes"/>
      <point x="794" y="-4"/>
      <point x="778" y="-12"/>
      <point x="720" y="-12" type="curve" smooth="yes"/>
      <point x="476" y="-12" type="line" smooth="no"/>
      <point x="476" y="358" type="line" smooth="no"/>
      <point x="460" y="358"/>
      <point x="444" y="356"/>
      <point x="428" y="356" type="curve" smooth="yes"/>
      <point x="402" y="356"/>
      <point x="374" y="358"/>
      <point x="344" y="358" type="curve" smooth="yes"/>
      <point x="318" y="358"/>
      <point x="294" y="356"/>
      <point x="268" y="356" type="curve" smooth="yes"/>
      <point x="218" y="356"/>
      <point x="168" y="358"/>
      <point x="118" y="358" type="curve" smooth="no"/>
      <point x="88" y="364"/>
      <point x="84" y="406"/>
    </contour>
  </outline>
</glyph>
<glyph name="comma" format="1">
  <advance width="734"/>
  <unicode hex="002c"/>
  <outline>
    <contour>
      <point x="-7.86252" y="-206.03" type="line" smooth="no"/>
      <point x="72" y="164" type="line" smooth="yes"/>
      <point x="102" y="306"/>
      <point x="144" y="444"/>
      <point x="164" y="444" type="curve" smooth="yes"/>
      <point x="520" y="444" type="line" smooth="yes"/>
      <point x="596" y="444"/>
      <point x="669.463" y="440.777"/>
      <point x="669.463" y="416.777" type="curve" smooth="no"/>
      <point x="475.544" y="-216.311" type="line" smooth="no"/>
      <point x="465.544" y="-238.311"/>
      <point x="352" y="-240"/>
      <point x="254" y="-240" type="curve" smooth="yes"/>
      <point x="24" y="-240" type="line" smooth="no"/>
    </contour>
  </outline>
</glyph>
<glyph name="hyphen" format="1">
  <advance width="858"/>
  <unicode hex="002d"/>
  <outline>
    <contour>
      <point x="36" y="360" type="line" smooth="no"/>
      <point x="36" y="642" type="line" smooth="yes"/>
      <point x="36" y="694"/>
      <point x="44" y="744"/>
      <point x="68" y="744" type="curve" smooth="yes"/>
      <point x="260" y="744"/>
      <point x="446" y="744"/>
      <point x="640" y="746" type="curve" smooth="yes"/>
      <point x="664" y="746"/>
      <point x="688" y="746"/>
      <point x="712" y="744" type="curve" smooth="no"/>
      <point x="780" y="744" type="line" smooth="no"/>
      <point x="804" y="740"/>
      <point x="808" y="676"/>
      <point x="808" y="610" type="curve" smooth="yes"/>
      <point x="808" y="396" type="line" smooth="no"/>
      <point x="806" y="378"/>
      <point x="802" y="360"/>
      <point x="780" y="360" type="curve" smooth="yes"/>
      <point x="540" y="360"/>
      <point x="306" y="340"/>
      <point x="72" y="340" type="curve" smooth="no"/>
      <point x="72" y="360" type="line" smooth="no"/>
    </contour>
  </outline>
</glyph>
<glyph name="period" format="1">
  <advance width="774"/>
  <unicode hex="002e"/>
  <outline>
    <contour>
      <point x="112" y="14" type="line" smooth="no"/>
      <point x="112" y="44" type="line" smooth="yes"/>
      <point x="112" y="76"/>
      <point x="114" y="106"/>
      <point x="114" y="144" type="curve" smooth="yes"/>
      <point x="114" y="196" type="line" smooth="yes"/>
      <point x="114" y="288"/>
      <point x="118" y="440"/>
      <point x="146" y="440" type="curve" smooth="yes"/>
      <point x="556" y="440" type="line" smooth="yes"/>
      <point x="602" y="440"/>
      <point x="652" y="436"/>
      <point x="652" y="412" type="curve" smooth="yes"/>
      <point x="654" y="316"/>
      <point x="656" y="214"/>
      <point x="656" y="118" type="curve" smooth="yes"/>
      <point x="656" y="84" type="line" smooth="yes"/>
      <point x="656" y="70"/>
      <point x="658" y="56"/>
      <point x="658" y="40" type="curve" smooth="yes"/>
      <point x="658" y="10"/>
      <point x="652" y="-16"/>
      <point x="636" y="-16" type="curve" smooth="yes"/>
      <point x="144" y="-16" type="line" smooth="no"/>
    </contour>
  </outline>
</glyph>
<glyph name="slash" format="1">
  <advance width="804"/>
  <unicode hex="002f"/>
  <outline>
    <contour>
      <point x="-48" y="8" type="curve" smooth="no"/>
      <point x="-44" y="22"/>
      <point x="-40" y="36"/>
      <point x="-34" y="50" type="curve" smooth="yes"/>
      <point x="147.248" y="546.752"/>
      <point x="331.525" y="1040.47"/>
      <point x="518" y="1532" type="curve" smooth="yes"/>
      <point x="522" y="1542"/>
      <point x="566" y="1548"/>
      <point x="612" y="1548" type="curve" smooth="yes"/>
      <point x="666" y="1548"/>
      <point x="722" y="1544"/>
      <point x="746" y="1544" type="curve" smooth="yes"/>
      <point x="780" y="1544" type="line" smooth="yes"/>
      <point x="820" y="1544"/>
      <point x="840" y="1538"/>
      <point x="840" y="1510" type="curve" smooth="yes"/>
      <point x="840" y="1462"/>
      <point x="796" y="1370"/>
      <point x="776" y="1310" type="curve" smooth="yes"/>
      <point x="673.392" y="1005.27"/>
      <point x="570.929" y="700.404"/>
      <point x="468" y="396" type="curve" smooth="no"/>
      <point x="356" y="90" type="line" smooth="yes"/>
      <point x="326" y="8"/>
      <point x="336" y="-62"/>
      <point x="192" y="-68" type="curve" smooth="no"/>
      <point x="152" y="-68" type="line" smooth="no"/>
      <point x="128" y="-72"/>
      <point x="108" y="-72"/>
      <point x="88" y="-72" type="curve" smooth="yes"/>
      <point x="-14" y="-72" type="line" smooth="no"/>
      <point x="-28" y="-46"/>
      <point x="-38" y="-18"/>
    </contour>
  </outline>
</glyph>
<glyph name="zero" format="1">
  <advance width="1462"/>
  <unicode hex="0030"/>
  <outline>
    <contour>
      <point x="708" y="-56" type="curve" smooth="yes"/>
      <point x="170.339" y="-56"/>
      <point x="50.2935" y="296.745"/>
      <point x="20" y="736" type="curve" smooth="no"/>
      <point x="20" y="1302"/>
      <point x="314" y="1518"/>
      <point x="720" y="1550" type="curve" smooth="no"/>
      <point x="720" y="1550" type="line" smooth="no"/>
      <point x="1302" y="1550"/>
      <point x="1418" y="1080"/>
      <point x="1418" y="720" type="curve" smooth="yes"/>
      <point x="1418" y="202"/>
      <point x="1108" y="-56"/>
    </contour>
    <contour>
      <point x="556" y="696" type="curve" smooth="yes"/>
      <point x="556" y="548"/>
      <point x="564" y="300"/>
      <point x="712" y="300" type="curve" smooth="yes"/>
      <point x="886" y="300"/>
      <point x="880" y="562"/>
      <point x="880" y="700" type="curve" smooth="no"/>
      <point x="884" y="734"/>
      <point x="884" y="770"/>
      <point x="884" y="806" type="curve" smooth="yes"/>
      <point x="884" y="892"/>
      <point x="908" y="1188"/>
      <point x="732" y="1188" type="curve" smooth="yes"/>
      <point x="550" y="1188"/>
      <point x="556" y="896"/>
    </contour>
  </outline>
</glyph>
<glyph name="one" format="1">
  <advance width="1578"/>
  <unicode hex="0031"/>
  <outline>
    <contour>
      <point x="196" y="960" type="line" smooth="yes"/>
      <point x="196" y="1261.04"/>
      <point x="190.314" y="1210.75"/>
      <point x="336" y="1294" type="curve" smooth="no"/>
      <point x="384" y="1314"/>
      <point x="584" y="1402"/>
      <point x="648" y="1504" type="curve" smooth="no"/>
      <point x="768" y="1502"/>
      <point x="882" y="1500"/>
      <point x="1008" y="1500" type="curve" smooth="yes"/>
      <point x="1034" y="1500"/>
      <point x="1060" y="1500"/>
      <point x="1086" y="1504" type="curve" smooth="no"/>
      <point x="1108" y="1502"/>
      <point x="1108" y="1480"/>
      <point x="1108" y="1430" type="curve" smooth="yes"/>
      <point x="1108" y="896" type="line" smooth="yes"/>
      <point x="1108" y="598"/>
      <point x="1120" y="304"/>
      <point x="1120" y="4" type="curve" smooth="no"/>
      <point x="1116" y="-24"/>
      <point x="1044" y="-32"/>
      <point x="976" y="-32" type="curve" smooth="yes"/>
      <point x="938" y="-32"/>
      <point x="902" y="-30"/>
      <point x="876" y="-30" type="curve" smooth="yes"/>
      <point x="822" y="-30"/>
      <point x="772" y="-32"/>
      <point x="722" y="-32" type="curve" smooth="yes"/>
      <point x="660" y="-32"/>
      <point x="598" y="-30"/>
      <point x="536" y="-28" type="curve" smooth="no"/>
      <point x="510" y="6" type="line" smooth="no"/>
      <point x="502" y="14"/>
      <point x="500" y="26"/>
      <point x="500" y="48" type="curve" smooth="yes"/>
      <point x="500" y="202"/>
      <point x="502" y="344"/>
      <point x="504" y="488" type="curve" smooth="no"/>
      <point x="504" y="924" type="line" smooth="no"/>
      <point x="416" y="866"/>
      <point x="334" y="820"/>
      <point x="230" y="788" type="curve" smooth="no"/>
      <point x="208" y="788"/>
      <point x="198" y="794"/>
      <point x="196" y="816" type="curve" smooth="no"/>
    </contour>
  </outline>
</glyph>
<glyph name="three" format="1">
  <advance width="1454"/>
  <unicode hex="0033"/>
  <outline>
    <contour>
      <point x="692" y="-58" type="curve" smooth="yes"/>
      <point x="318.501" y="-58"/>
      <point x="34.4165" y="61.2542"/>
      <point x="16" y="448" type="curve" smooth="yes"/>
      <point x="16" y="466"/>
      <point x="26" y="480"/>
      <point x="48" y="480" type="curve" smooth="yes"/>
      <point x="524" y="480" type="line" smooth="yes"/>
      <point x="546" y="480"/>
      <point x="558" y="478"/>
      <point x="560" y="458" type="curve" smooth="no"/>
      <point x="560" y="456" type="line" smooth="no"/>
      <point x="570" y="378"/>
      <point x="598" y="324"/>
      <point x="682" y="324" type="curve" smooth="no"/>
      <point x="682" y="324" type="line" smooth="no"/>
      <point x="754" y="324"/>
      <point x="796" y="372"/>
      <point x="796" y="436" type="curve" smooth="yes"/>
      <point x="796" y="574"/>
      <point x="680" y="584"/>
      <point x="590" y="584" type="curve" smooth="yes"/>
      <point x="546" y="584" type="line" smooth="yes"/>
      <point x="492" y="584"/>
      <point x="478" y="618"/>
      <point x="478" y="678" type="curve" smooth="yes"/>
      <point x="478" y="742" type="line" smooth="yes"/>
      <point x="478" y="842"/>
      <point x="486" y="904"/>
      <point x="532" y="904" type="curve" smooth="yes"/>
      <point x="612" y="904" type="line" smooth="yes"/>
      <point x="704" y="904"/>
      <point x="780" y="928"/>
      <point x="780" y="1060" type="curve" smooth="yes"/>
      <point x="780" y="1116"/>
      <point x="746" y="1162"/>
      <point x="688" y="1162" type="curve" smooth="yes"/>
      <point x="622" y="1162"/>
      <point x="600" y="1126"/>
      <point x="592" y="1088" type="curve" smooth="no"/>
      <point x="592" y="1048" type="line" smooth="no"/>
      <point x="586" y="1022"/>
      <point x="572" y="1002"/>
      <point x="548" y="992" type="curve" smooth="no"/>
      <point x="422" y="992"/>
      <point x="296" y="994"/>
      <point x="170" y="1000" type="curve" smooth="yes"/>
      <point x="154" y="1000"/>
      <point x="136" y="998"/>
      <point x="118" y="998" type="curve" smooth="yes"/>
      <point x="76" y="998"/>
      <point x="40" y="1004"/>
      <point x="40" y="1036" type="curve" smooth="no"/>
      <point x="58.7636" y="1211.13"/>
      <point x="57.3327" y="1336.02"/>
      <point x="248" y="1448" type="curve" smooth="yes"/>
      <point x="400" y="1538"/>
      <point x="604" y="1544"/>
      <point x="776" y="1544" type="curve" smooth="yes"/>
      <point x="1018" y="1544"/>
      <point x="1354" y="1410"/>
      <point x="1354" y="1112" type="curve" smooth="yes"/>
      <point x="1354" y="898"/>
      <point x="1228" y="828"/>
      <point x="1100" y="788" type="curve" smooth="no"/>
      <point x="1314" y="722"/>
      <point x="1388" y="606"/>
      <point x="1388" y="440" type="curve" smooth="yes"/>
      <point x="1388" y="-6"/>
      <point x="926" y="-58"/>
    </contour>
  </outline>
</glyph>
<glyph name="five" format="1">
  <advance width="1468"/>
  <unicode hex="0035"/>
  <outline>
    <contour>
      <point x="68" y="400" type="curve" smooth="no"/>
      <point x="68" y="432"/>
      <point x="122" y="436"/>
      <point x="188" y="436" type="curve" smooth="yes"/>
      <point x="352" y="436" type="line" smooth="yes"/>
      <point x="442" y="436"/>
      <point x="522" y="430"/>
      <point x="616" y="430" type="curve" smooth="no"/>
      <point x="668" y="424"/>
      <point x="632" y="324"/>
      <point x="708" y="324" type="curve" smooth="yes"/>
      <point x="798" y="324"/>
      <point x="808" y="434"/>
      <point x="808" y="492" type="curve" smooth="yes"/>
      <point x="808" y="572"/>
      <point x="800" y="670"/>
      <point x="712" y="670" type="curve" smooth="yes"/>
      <point x="604" y="670"/>
      <point x="672" y="554"/>
      <point x="596" y="554" type="curve" smooth="yes"/>
      <point x="152" y="554" type="line" smooth="no"/>
      <point x="124" y="594"/>
      <point x="122" y="632"/>
      <point x="122" y="676" type="curve" smooth="yes"/>
      <point x="122" y="1422" type="line" smooth="yes"/>
      <point x="122" y="1460"/>
      <point x="122" y="1492"/>
      <point x="146" y="1518" type="curve" smooth="no"/>
      <point x="1246" y="1518" type="line" smooth="yes"/>
      <point x="1272" y="1518"/>
      <point x="1302" y="1506"/>
      <point x="1308" y="1484" type="curve" smooth="no"/>
      <point x="1308" y="1290" type="line" smooth="yes"/>
      <point x="1308" y="1128"/>
      <point x="1310" y="1118"/>
      <point x="1266" y="1118" type="curve" smooth="no"/>
      <point x="1266" y="1118" type="line" smooth="no"/>
      <point x="1058" y="1118"/>
      <point x="842" y="1116"/>
      <point x="634" y="1114" type="curve" smooth="no"/>
      <point x="628" y="1052"/>
      <point x="626" y="990"/>
      <point x="620" y="932" type="curve" smooth="no"/>
      <point x="690" y="982"/>
      <point x="806" y="1008"/>
      <point x="902" y="1008" type="curve" smooth="yes"/>
      <point x="1202" y="1008"/>
      <point x="1392" y="804"/>
      <point x="1392" y="524" type="curve" smooth="yes"/>
      <point x="1392" y="90"/>
      <point x="1040" y="-58"/>
      <point x="720" y="-58" type="curve" smooth="yes"/>
      <point x="432" y="-58"/>
      <point x="108" y="10"/>
    </contour>
  </outline>
</glyph>
<glyph name="six" format="1">
  <advance width="1456"/>
  <unicode hex="0036"/>
  <outline>
    <contour>
      <point x="788" y="-52" type="curve" smooth="no"/>
      <point x="281.51" y="-52"/>
      <point x="44" y="243.129"/>
      <point x="44" y="752" type="curve" smooth="yes"/>
      <point x="44" y="1226"/>
      <point x="318" y="1550"/>
      <point x="772" y="1556" type="curve" smooth="no"/>
      <point x="1240" y="1556"/>
      <point x="1332" y="1336"/>
      <point x="1348" y="1118" type="curve" smooth="no"/>
      <point x="1348" y="1065.64"/>
      <point x="862.361" y="1076"/>
      <point x="862" y="1076" type="curve" smooth="yes"/>
      <point x="844" y="1076"/>
      <point x="822" y="1080"/>
      <point x="822" y="1092" type="curve" smooth="yes"/>
      <point x="822" y="1144" type="line" smooth="no"/>
      <point x="816" y="1156"/>
      <point x="798" y="1162"/>
      <point x="774" y="1162" type="curve" smooth="yes"/>
      <point x="638" y="1162"/>
      <point x="612" y="1018"/>
      <point x="612" y="900" type="curve" smooth="yes"/>
      <point x="612" y="884" type="line" smooth="no"/>
      <point x="682" y="966"/>
      <point x="800" y="990"/>
      <point x="900" y="990" type="curve" smooth="yes"/>
      <point x="1194" y="990"/>
      <point x="1412" y="790"/>
      <point x="1412" y="512" type="curve" smooth="yes"/>
      <point x="1412" y="104"/>
      <point x="1078" y="-40"/>
    </contour>
    <contour>
      <point x="596" y="466" type="curve" smooth="yes"/>
      <point x="596" y="367.301"/>
      <point x="646.129" y="264"/>
      <point x="756" y="264" type="curve" smooth="yes"/>
      <point x="896" y="264"/>
      <point x="928" y="390"/>
      <point x="928" y="490" type="curve" smooth="no"/>
      <point x="922" y="610"/>
      <point x="886" y="692"/>
      <point x="764" y="692" type="curve" smooth="yes"/>
      <point x="624" y="692"/>
      <point x="596" y="584"/>
    </contour>
  </outline>
</glyph>
<glyph name="seven" format="1">
  <advance width="1462"/>
  <unicode hex="0037"/>
  <outline>
    <contour>
      <point x="68" y="1448" type="line" smooth="yes"/>
      <point x="68" y="1480"/>
      <point x="70" y="1528"/>
      <point x="108" y="1528" type="curve" smooth="yes"/>
      <point x="314" y="1530"/>
      <point x="518" y="1524"/>
      <point x="722" y="1520" type="curve" smooth="no"/>
      <point x="1332" y="1520" type="line" smooth="yes"/>
      <point x="1368" y="1520"/>
      <point x="1374" y="1432"/>
      <point x="1374" y="1362" type="curve" smooth="yes"/>
      <point x="1372" y="1100"/>
      <point x="1372" y="1056"/>
      <point x="1308" y="944" type="curve" smooth="yes"/>
      <point x="1236.21" y="817.793"/>
      <point x="1164.64" y="691.359"/>
      <point x="1094" y="564" type="curve" smooth="no"/>
      <point x="993.486" y="378.514"/>
      <point x="898.395" y="187.605"/>
      <point x="804" y="-4" type="curve" smooth="no"/>
      <point x="798" y="-20"/>
      <point x="794" y="-30"/>
      <point x="772" y="-30" type="curve" smooth="yes"/>
      <point x="708" y="-30"/>
      <point x="644" y="-28"/>
      <point x="580" y="-28" type="curve" smooth="yes"/>
      <point x="432" y="-28" type="line" smooth="yes"/>
      <point x="316" y="-28"/>
      <point x="180" y="-24"/>
      <point x="180" y="8" type="curve" smooth="yes"/>
      <point x="180" y="18"/>
      <point x="182" y="30"/>
      <point x="188" y="44" type="curve" smooth="no"/>
      <point x="336.13" y="326.537"/>
      <point x="475.256" y="618.077"/>
      <point x="620" y="904" type="curve" smooth="yes"/>
      <point x="704" y="1070" type="line" smooth="no"/>
      <point x="588" y="1070"/>
      <point x="478" y="1070"/>
      <point x="364" y="1066" type="curve" smooth="no"/>
      <point x="134" y="1066" type="line" smooth="yes"/>
      <point x="108" y="1066"/>
      <point x="94" y="1070"/>
      <point x="68" y="1112" type="curve" smooth="no"/>
    </contour>
  </outline>
</glyph>
<glyph name="nine" format="1">
  <advance width="1456"/>
  <unicode hex="0039"/>
  <outline>
    <contour>
      <point x="628" y="388" type="curve" smooth="no"/>
      <point x="635.23" y="351.848"/>
      <point x="642.151" y="326"/>
      <point x="700" y="326" type="curve" smooth="yes"/>
      <point x="828" y="326"/>
      <point x="836" y="488"/>
      <point x="842" y="588" type="curve" smooth="no"/>
      <point x="772" y="546"/>
      <point x="676" y="524"/>
      <point x="592" y="524" type="curve" smooth="yes"/>
      <point x="328" y="524"/>
      <point x="42" y="656"/>
      <point x="42" y="984" type="curve" smooth="yes"/>
      <point x="42" y="1384"/>
      <point x="398" y="1540"/>
      <point x="712" y="1540" type="curve" smooth="yes"/>
      <point x="1152.12" y="1540"/>
      <point x="1408" y="1225.77"/>
      <point x="1408" y="782" type="curve" smooth="yes"/>
      <point x="1408" y="574"/>
      <point x="1378" y="364"/>
      <point x="1254" y="192" type="curve" smooth="no"/>
      <point x="1106" y="-30"/>
      <point x="806" y="-68"/>
      <point x="612" y="-68" type="curve" smooth="yes"/>
      <point x="480" y="-68"/>
      <point x="354" y="-40"/>
      <point x="248" y="52" type="curve" smooth="no"/>
      <point x="144" y="130"/>
      <point x="104" y="266"/>
      <point x="104" y="390" type="curve" smooth="no"/>
      <point x="140" y="434" type="line" smooth="no"/>
      <point x="592" y="434" type="line" smooth="yes"/>
      <point x="616" y="434"/>
      <point x="628" y="410"/>
    </contour>
    <contour>
      <point x="520" y="988" type="curve" smooth="no"/>
      <point x="530" y="870"/>
      <point x="576" y="796"/>
      <point x="692" y="796" type="curve" smooth="yes"/>
      <point x="824" y="796"/>
      <point x="852" y="902"/>
      <point x="852" y="996" type="curve" smooth="yes"/>
      <point x="852" y="1104"/>
      <point x="826" y="1212"/>
      <point x="692" y="1212" type="curve" smooth="yes"/>
      <point x="560" y="1212"/>
      <point x="520" y="1094"/>
    </contour>
  </outline>
</glyph>
<glyph name="colon" format="1">
  <advance width="770"/>
  <unicode hex="003a"/>
  <outline>
    <contour>
      <point x="106" y="52" type="curve" smooth="yes"/>
      <point x="106" y="164"/>
      <point x="110" y="294"/>
      <point x="116" y="414" type="curve" smooth="no"/>
      <point x="116" y="440"/>
      <point x="244" y="444"/>
      <point x="328" y="444" type="curve" smooth="yes"/>
      <point x="412" y="444" type="line" smooth="no"/>
      <point x="426" y="442"/>
      <point x="438" y="442"/>
      <point x="448" y="442" type="curve" smooth="yes"/>
      <point x="528" y="442" type="line" smooth="yes"/>
      <point x="582" y="442"/>
      <point x="638" y="438"/>
      <point x="648" y="414" type="curve" smooth="no"/>
      <point x="648" y="4" type="line" smooth="no"/>
      <point x="636" y="-30"/>
      <point x="446" y="-32"/>
      <point x="316" y="-32" type="curve" smooth="yes"/>
      <point x="138" y="-32" type="line" smooth="no"/>
      <point x="108" y="10" type="line" smooth="no"/>
      <point x="108" y="26"/>
      <point x="106" y="36"/>
    </contour>
    <contour>
      <point x="110" y="680" type="curve" smooth="no"/>
      <point x="110" y="708" type="line" smooth="yes"/>
      <point x="110" y="734"/>
      <point x="112" y="764"/>
      <point x="112" y="796" type="curve" smooth="yes"/>
      <point x="112" y="852" type="line" smooth="yes"/>
      <point x="112" y="940"/>
      <point x="114" y="1076"/>
      <point x="144" y="1076" type="curve" smooth="yes"/>
      <point x="528" y="1076" type="line" smooth="yes"/>
      <point x="584" y="1076"/>
      <point x="648" y="1074"/>
      <point x="648" y="1046" type="curve" smooth="yes"/>
      <point x="648" y="668" type="line" smooth="yes"/>
      <point x="648" y="642"/>
      <point x="650" y="616"/>
      <point x="624" y="616" type="curve" smooth="yes"/>
      <point x="144" y="616" type="line" smooth="no"/>
      <point x="112" y="648" type="line" smooth="no"/>
      <point x="112" y="658"/>
      <point x="112" y="670"/>
    </contour>
  </outline>
</glyph>
<glyph name="semicolon" format="1">
  <advance width="732"/>
  <unicode hex="003b"/>
  <outline>
    <contour>
      <point x="-8" y="-180" type="curve" smooth="no"/>
      <point x="-8" y="-96" type="line" smooth="no"/>
      <point x="4" y="-30"/>
      <point x="26" y="12"/>
      <point x="60" y="138" type="curve" smooth="no"/>
      <point x="60" y="224" type="line" smooth="no"/>
      <point x="88" y="344"/>
      <point x="144" y="460"/>
      <point x="164" y="460" type="curve" smooth="yes"/>
      <point x="524" y="460" type="line" smooth="yes"/>
      <point x="606" y="460"/>
      <point x="673.559" y="450.831"/>
      <point x="673.559" y="430.831" type="curve" smooth="no"/>
      <point x="470.613" y="-186.83" type="line" smooth="no"/>
      <point x="460.613" y="-208.83"/>
      <point x="342" y="-212"/>
      <point x="234" y="-212" type="curve" smooth="yes"/>
      <point x="164" y="-212"/>
      <point x="96" y="-208"/>
      <point x="48" y="-208" type="curve" smooth="yes"/>
      <point x="26" y="-208" type="line" smooth="no"/>
      <point x="14" y="-200"/>
      <point x="2" y="-190"/>
    </contour>
    <contour>
      <point x="126" y="664" type="curve" smooth="yes"/>
      <point x="126" y="666"/>
      <point x="126" y="670"/>
      <point x="128" y="672" type="curve" smooth="no"/>
      <point x="128" y="772" type="line" smooth="yes"/>
      <point x="128" y="794"/>
      <point x="128" y="1056"/>
      <point x="160" y="1056" type="curve" smooth="yes"/>
      <point x="202" y="1056" type="line" smooth="yes"/>
      <point x="298" y="1056"/>
      <point x="390" y="1060"/>
      <point x="492" y="1060" type="curve" smooth="yes"/>
      <point x="574" y="1060"/>
      <point x="666" y="1056"/>
      <point x="666" y="1036" type="curve" smooth="yes"/>
      <point x="672" y="900"/>
      <point x="672" y="778"/>
      <point x="672" y="644" type="curve" smooth="yes"/>
      <point x="672" y="610.607"/>
      <point x="672.126" y="584.825"/>
      <point x="648" y="580" type="curve" smooth="no"/>
      <point x="164" y="580" type="line" smooth="no"/>
      <point x="130" y="614" type="line" smooth="no"/>
      <point x="128" y="630"/>
      <point x="126" y="646"/>
    </contour>
  </outline>
</glyph>
<glyph name="less" format="1">
  <advance width="1270"/>
  <unicode hex="003c"/>
  <outline>
    <contour>
      <point x="78" y="454" type="curve" smooth="yes"/>
      <point x="78" y="480"/>
      <point x="80" y="506"/>
      <point x="80" y="532" type="curve" smooth="yes"/>
      <point x="80" y="550"/>
      <point x="78" y="572"/>
      <point x="78" y="590" type="curve" smooth="yes"/>
      <point x="78" y="632"/>
      <point x="84" y="668"/>
      <point x="116" y="700" type="curve" smooth="no"/>
      <point x="1144.89" y="1090.93" type="line" smooth="no"/>
      <point x="1174.89" y="1090.93"/>
      <point x="1180" y="1050"/>
      <point x="1180" y="1000" type="curve" smooth="yes"/>
      <point x="1180" y="928"/>
      <point x="1186" y="798"/>
      <point x="1160" y="780" type="curve" smooth="no"/>
      <point x="512" y="524" type="line" smooth="no"/>
      <point x="713.925" y="444.592"/>
      <point x="917.895" y="367.229"/>
      <point x="1124" y="292" type="curve" smooth="yes"/>
      <point x="1174" y="274"/>
      <point x="1184" y="266"/>
      <point x="1184" y="148" type="curve" smooth="yes"/>
      <point x="1184" y="52"/>
      <point x="1186" y="-36"/>
      <point x="1146" y="-36" type="curve" smooth="yes"/>
      <point x="1142" y="-36"/>
      <point x="1138" y="-36"/>
      <point x="1132" y="-34" type="curve" smooth="yes"/>
      <point x="829.931" y="87.2641"/>
      <point x="525.926" y="206.593"/>
      <point x="220" y="324" type="curve" smooth="no"/>
      <point x="158" y="344"/>
      <point x="78" y="358"/>
    </contour>
  </outline>
</glyph>
<glyph name="equal" format="1">
  <advance width="1272"/>
  <unicode hex="003d"/>
  <outline>
    <contour>
      <point x="106" y="456" type="curve" smooth="no"/>
      <point x="358.075" y="456"/>
      <point x="605.87" y="423.703"/>
      <point x="868" y="428" type="curve" smooth="no"/>
      <point x="904" y="428" type="line" smooth="yes"/>
      <point x="990" y="428"/>
      <point x="1068" y="432"/>
      <point x="1148" y="436" type="curve" smooth="no"/>
      <point x="1172" y="436"/>
      <point x="1172" y="354"/>
      <point x="1172" y="286" type="curve" smooth="yes"/>
      <point x="1172" y="220" type="line" smooth="yes"/>
      <point x="1172" y="206"/>
      <point x="1174" y="190"/>
      <point x="1174" y="174" type="curve" smooth="yes"/>
      <point x="1174" y="148"/>
      <point x="1168" y="120"/>
      <point x="1142" y="120" type="curve" smooth="yes"/>
      <point x="84" y="120" type="line" smooth="no"/>
      <point x="82" y="142"/>
      <point x="80" y="182"/>
      <point x="80" y="206" type="curve" smooth="yes"/>
      <point x="80" y="216"/>
      <point x="82" y="228"/>
      <point x="82" y="238" type="curve" smooth="yes"/>
      <point x="82" y="260"/>
      <point x="84" y="286"/>
      <point x="84" y="308" type="curve" smooth="yes"/>
      <point x="84" y="360" type="line" smooth="yes"/>
      <point x="84" y="394"/>
      <point x="88" y="430"/>
    </contour>
    <contour>
      <point x="84" y="636" type="line" smooth="no"/>
      <point x="84" y="860" type="line" smooth="yes"/>
      <point x="84" y="904"/>
      <point x="88" y="936"/>
      <point x="116" y="936" type="curve" smooth="yes"/>
      <point x="212" y="936" type="line" smooth="yes"/>
      <point x="526" y="936"/>
      <point x="834" y="932"/>
      <point x="1148" y="932" type="curve" smooth="yes"/>
      <point x="1168" y="932"/>
      <point x="1172" y="842"/>
      <point x="1172" y="776" type="curve" smooth="yes"/>
      <point x="1171.54" y="637.037" type="line" smooth="no"/>
      <point x="116" y="600" type="line" smooth="no"/>
    </contour>
  </outline>
</glyph>
<glyph name="greater" format="1">
  <advance width="1268"/>
  <unicode hex="003e"/>
  <outline>
    <contour>
      <point x="1184" y="456" type="curve" smooth="yes"/>
      <point x="1184" y="413.861"/>
      <point x="1180.43" y="376"/>
      <point x="1154" y="376" type="curve" smooth="no"/>
      <point x="812.131" y="235.315"/>
      <point x="476.083" y="76.0275"/>
      <point x="122" y="-42" type="curve" smooth="no"/>
      <point x="78" y="4" type="line" smooth="no"/>
      <point x="78" y="46"/>
      <point x="78" y="88"/>
      <point x="80" y="128" type="curve" smooth="no"/>
      <point x="80" y="252" type="line" smooth="no"/>
      <point x="82" y="278"/>
      <point x="216" y="338"/>
      <point x="362" y="392" type="curve" smooth="yes"/>
      <point x="732.191" y="531.492" type="line" smooth="no"/>
      <point x="524.629" y="616.646"/>
      <point x="320.037" y="711.988"/>
      <point x="104" y="784" type="curve" smooth="no"/>
      <point x="94" y="790"/>
      <point x="92" y="810"/>
      <point x="92" y="832" type="curve" smooth="yes"/>
      <point x="92" y="860" type="line" smooth="yes"/>
      <point x="92" y="876"/>
      <point x="90" y="914"/>
      <point x="90" y="956" type="curve" smooth="yes"/>
      <point x="90" y="1020"/>
      <point x="94.2032" y="1082.53"/>
      <point x="110.203" y="1082.53" type="curve" smooth="no"/>
      <point x="1163.57" y="678.091" type="line" smooth="yes"/>
      <point x="1187.57" y="668.091"/>
      <point x="1184" y="530"/>
    </contour>
  </outline>
</glyph>
<glyph name="question" format="1">
  <advance width="1120"/>
  <unicode hex="003f"/>
  <outline>
    <contour>
      <point x="176" y="536" type="curve" smooth="yes"/>
      <point x="176" y="793.161"/>
      <point x="437.1" y="835.134"/>
      <point x="470" y="1030" type="curve" smooth="no"/>
      <point x="460" y="1088"/>
      <point x="412" y="1096"/>
      <point x="362" y="1096" type="curve" smooth="no"/>
      <point x="362" y="1096" type="line" smooth="no"/>
      <point x="264" y="1092"/>
      <point x="180" y="1072"/>
      <point x="88" y="1036" type="curve" smooth="no"/>
      <point x="42" y="1074" type="line" smooth="no"/>
      <point x="42" y="1200"/>
      <point x="44" y="1314"/>
      <point x="44" y="1442" type="curve" smooth="yes"/>
      <point x="44" y="1530"/>
      <point x="336" y="1548"/>
      <point x="466" y="1548" type="curve" smooth="no"/>
      <point x="618" y="1546"/>
      <point x="750" y="1532"/>
      <point x="858" y="1476" type="curve" smooth="yes"/>
      <point x="900" y="1454" type="line" smooth="no"/>
      <point x="950" y="1422"/>
      <point x="998" y="1380"/>
      <point x="1030" y="1332" type="curve" smooth="no"/>
      <point x="1030" y="1304" type="line" smooth="no"/>
      <point x="1064" y="1236"/>
      <point x="1074" y="1170"/>
      <point x="1092" y="1120" type="curve" smooth="no"/>
      <point x="1088" y="1056"/>
      <point x="1080" y="970"/>
      <point x="1032" y="908" type="curve" smooth="no"/>
      <point x="892" y="732"/>
      <point x="716" y="708"/>
      <point x="710" y="588" type="curve" smooth="no"/>
      <point x="716" y="558"/>
      <point x="714" y="524"/>
      <point x="720" y="492" type="curve" smooth="no"/>
      <point x="720" y="482"/>
      <point x="714" y="468"/>
      <point x="708" y="468" type="curve" smooth="yes"/>
      <point x="558" y="468" type="line" smooth="yes"/>
      <point x="438" y="468"/>
      <point x="322" y="462"/>
      <point x="204" y="456" type="curve" smooth="no"/>
      <point x="178" y="456"/>
      <point x="176" y="508"/>
    </contour>
    <contour>
      <point x="170" y="34" type="curve" smooth="no"/>
      <point x="170" y="60" type="line" smooth="yes"/>
      <point x="170" y="72"/>
      <point x="170" y="84"/>
      <point x="172" y="96" type="curve" smooth="no"/>
      <point x="172" y="196" type="line" smooth="no"/>
      <point x="170" y="208"/>
      <point x="170" y="222"/>
      <point x="170" y="238" type="curve" smooth="yes"/>
      <point x="170" y="290"/>
      <point x="178" y="352"/>
      <point x="200" y="368" type="curve" smooth="no"/>
      <point x="306" y="366"/>
      <point x="408" y="360"/>
      <point x="518" y="360" type="curve" smooth="no"/>
      <point x="692" y="354"/>
      <point x="712" y="350"/>
      <point x="712" y="286" type="curve" smooth="yes"/>
      <point x="712" y="186" type="line" smooth="yes"/>
      <point x="712" y="144"/>
      <point x="714" y="106"/>
      <point x="714" y="64" type="curve" smooth="yes"/>
      <point x="714" y="4" type="line" smooth="no"/>
      <point x="712" y="-10"/>
      <point x="706" y="-16"/>
      <point x="692" y="-16" type="curve" smooth="yes"/>
      <point x="690" y="-16"/>
      <point x="688" y="-14"/>
      <point x="688" y="-12" type="curve" smooth="no"/>
      <point x="576" y="-14"/>
      <point x="464" y="-22"/>
      <point x="352" y="-28" type="curve" smooth="no"/>
      <point x="202" y="-28" type="line" smooth="no"/>
      <point x="172" y="8" type="line" smooth="no"/>
      <point x="172" y="18"/>
      <point x="172" y="28"/>
    </contour>
  </outline>
</glyph>
<glyph name="A" format="1">
  <advance width="1638"/>
  <unicode hex="0041"/>
  <outline>
    <contour>
      <point x="-48" y="0" type="curve" smooth="no"/>
      <point x="89.1003" y="508.077"/>
      <point x="266.504" y="991.6"/>
      <point x="428" y="1484" type="curve" smooth="no"/>
      <point x="434" y="1494"/>
      <point x="438" y="1502"/>
      <point x="444" y="1508" type="curve" smooth="no"/>
      <point x="612" y="1508" type="line" smooth="yes"/>
      <point x="730" y="1508"/>
      <point x="842" y="1512"/>
      <point x="960" y="1512" type="curve" smooth="yes"/>
      <point x="1128" y="1512" type="line" smooth="yes"/>
      <point x="1168" y="1512"/>
      <point x="1219.88" y="1510.38"/>
      <point x="1219.88" y="1472.38" type="curve" smooth="no"/>
      <point x="1681.32" y="11.1537" type="line" smooth="no"/>
      <point x="1681.32" y="-14.8463"/>
      <point x="1666" y="-24"/>
      <point x="1612" y="-24" type="curve" smooth="yes"/>
      <point x="1520" y="-24" type="line" smooth="yes"/>
      <point x="1440" y="-24"/>
      <point x="1362" y="-26"/>
      <point x="1282" y="-26" type="curve" smooth="yes"/>
      <point x="1212" y="-26"/>
      <point x="1062" y="-42"/>
      <point x="1044" y="8" type="curve" smooth="no"/>
      <point x="1044" y="74" type="line" smooth="no"/>
      <point x="1032" y="134"/>
      <point x="996" y="208"/>
      <point x="956" y="208" type="curve" smooth="yes"/>
      <point x="612" y="208" type="line" smooth="no"/>
      <point x="560" y="-4" type="line" smooth="no"/>
      <point x="550" y="-26"/>
      <point x="502" y="-28"/>
      <point x="448" y="-28" type="curve" smooth="yes"/>
      <point x="368" y="-28" type="line" smooth="yes"/>
      <point x="282" y="-28"/>
      <point x="198" y="-34"/>
      <point x="112" y="-34" type="curve" smooth="yes"/>
      <point x="84" y="-34" type="line" smooth="yes"/>
      <point x="50" y="-34"/>
      <point x="18" y="-36"/>
      <point x="-20" y="-36" type="curve" smooth="no"/>
      <point x="-30" y="-26"/>
      <point x="-38" y="-14"/>
    </contour>
    <contour>
      <point x="646.461" y="607.435" type="line" smooth="no"/>
      <point x="674" y="560" type="line" smooth="no"/>
      <point x="740" y="560" type="line" smooth="yes"/>
      <point x="822" y="560"/>
      <point x="953.091" y="568.244"/>
      <point x="953.091" y="600.244" type="curve" smooth="no"/>
      <point x="824.228" y="1175.63" type="line" smooth="no"/>
      <point x="800.228" y="1175.63"/>
      <point x="752" y="1070"/>
      <point x="726" y="954" type="curve" smooth="yes"/>
    </contour>
  </outline>
</glyph>
<glyph name="B" format="1">
  <advance width="1570"/>
  <unicode hex="0042"/>
  <outline>
    <contour>
      <point x="92" y="136" type="curve" smooth="no"/>
      <point x="91.6638" y="1481.54" type="line" smooth="no"/>
      <point x="956" y="1512" type="line" smooth="no"/>
      <point x="1202" y="1512"/>
      <point x="1484" y="1436"/>
      <point x="1484" y="1112" type="curve" smooth="yes"/>
      <point x="1484" y="936"/>
      <point x="1400" y="846"/>
      <point x="1264" y="772" type="curve" smooth="no"/>
      <point x="1434" y="724"/>
      <point x="1528" y="606"/>
      <point x="1528" y="424" type="curve" smooth="yes"/>
      <point x="1528" y="78"/>
      <point x="1188" y="-28"/>
      <point x="928" y="-28" type="curve" smooth="yes"/>
      <point x="832" y="-28"/>
      <point x="736" y="-24"/>
      <point x="638" y="-24" type="curve" smooth="yes"/>
      <point x="468" y="-24"/>
      <point x="302" y="-26"/>
      <point x="128" y="-32" type="curve" smooth="no"/>
      <point x="102" y="10"/>
      <point x="94" y="64"/>
    </contour>
    <contour>
      <point x="666" y="1148" type="curve" smooth="yes"/>
      <point x="666" y="1058"/>
      <point x="672" y="970"/>
      <point x="672" y="880" type="curve" smooth="yes"/>
      <point x="672" y="866"/>
      <point x="680" y="860"/>
      <point x="696" y="858" type="curve" smooth="no"/>
      <point x="788" y="874"/>
      <point x="932" y="860"/>
      <point x="932" y="1032" type="curve" smooth="yes"/>
      <point x="932" y="1160"/>
      <point x="818" y="1184"/>
      <point x="722" y="1184" type="curve" smooth="no"/>
      <point x="684" y="1178"/>
      <point x="666" y="1178"/>
    </contour>
    <contour>
      <point x="684" y="386" type="line" smooth="yes"/>
      <point x="684" y="352"/>
      <point x="688" y="312"/>
      <point x="692" y="312" type="curve" smooth="yes"/>
      <point x="724" y="312" type="line" smooth="yes"/>
      <point x="836" y="312"/>
      <point x="954" y="326"/>
      <point x="954" y="480" type="curve" smooth="yes"/>
      <point x="954" y="636"/>
      <point x="802" y="628"/>
      <point x="704" y="634" type="curve" smooth="no"/>
      <point x="704" y="596" type="line" smooth="no"/>
      <point x="698" y="538"/>
      <point x="684" y="484"/>
      <point x="684" y="422" type="curve" smooth="yes"/>
    </contour>
  </outline>
</glyph>
<glyph name="C" format="1">
  <advance width="1556"/>
  <unicode hex="0043"/>
  <outline>
    <contour>
      <point x="1528" y="536" type="curve" smooth="no"/>
      <point x="1481.58" y="127.534"/>
      <point x="1183.22" y="-64"/>
      <point x="800" y="-64" type="curve" smooth="yes"/>
      <point x="146" y="-64"/>
      <point x="40" y="442"/>
      <point x="40" y="796" type="curve" smooth="yes"/>
      <point x="40" y="884" type="line" smooth="no"/>
      <point x="74" y="1392"/>
      <point x="536" y="1538"/>
      <point x="848" y="1538" type="curve" smooth="yes"/>
      <point x="1288" y="1538"/>
      <point x="1480" y="1318"/>
      <point x="1512" y="1028" type="curve" smooth="no"/>
      <point x="1512" y="932" type="line" smooth="yes"/>
      <point x="1512" y="904"/>
      <point x="1406" y="900"/>
      <point x="1292" y="900" type="curve" smooth="yes"/>
      <point x="1196" y="900"/>
      <point x="1092" y="904"/>
      <point x="1026" y="904" type="curve" smooth="yes"/>
      <point x="1016" y="904"/>
      <point x="1006" y="902"/>
      <point x="996" y="902" type="curve" smooth="yes"/>
      <point x="900" y="902"/>
      <point x="976" y="1112"/>
      <point x="844" y="1112" type="curve" smooth="yes"/>
      <point x="670" y="1112"/>
      <point x="694" y="884"/>
      <point x="686" y="728" type="curve" smooth="no"/>
      <point x="686" y="702"/>
      <point x="682" y="670"/>
      <point x="682" y="632" type="curve" smooth="yes"/>
      <point x="682" y="526"/>
      <point x="702" y="382"/>
      <point x="814" y="376" type="curve" smooth="no"/>
      <point x="918" y="376"/>
      <point x="906" y="534"/>
      <point x="948" y="576" type="curve" smooth="no"/>
      <point x="1492" y="576" type="line" smooth="no"/>
      <point x="1514" y="574"/>
      <point x="1526" y="560"/>
    </contour>
  </outline>
</glyph>
<glyph name="D" format="1">
  <advance width="1648"/>
  <unicode hex="0044"/>
  <outline>
    <contour>
      <point x="106" y="1468" type="line" smooth="yes"/>
      <point x="106" y="1522.19"/>
      <point x="342.561" y="1512"/>
      <point x="400" y="1512" type="curve" smooth="yes"/>
      <point x="512" y="1512" type="line" smooth="yes"/>
      <point x="576" y="1512"/>
      <point x="634" y="1516"/>
      <point x="692" y="1516" type="curve" smooth="yes"/>
      <point x="922" y="1516"/>
      <point x="1204" y="1488"/>
      <point x="1374" y="1352" type="curve" smooth="no"/>
      <point x="1410" y="1320" type="line" smooth="yes"/>
      <point x="1454" y="1280"/>
      <point x="1612" y="1094"/>
      <point x="1612" y="760" type="curve" smooth="yes"/>
      <point x="1612" y="262"/>
      <point x="1258" y="-28"/>
      <point x="872" y="-28" type="curve" smooth="yes"/>
      <point x="840" y="-28" type="line" smooth="yes"/>
      <point x="754" y="-28"/>
      <point x="670" y="-24"/>
      <point x="584" y="-24" type="curve" smooth="yes"/>
      <point x="430" y="-24"/>
      <point x="282" y="-26"/>
      <point x="130" y="-32" type="curve" smooth="no"/>
      <point x="110" y="8"/>
      <point x="106" y="22"/>
      <point x="106" y="56" type="curve" smooth="yes"/>
    </contour>
    <contour>
      <point x="694" y="320" type="curve" smooth="no"/>
      <point x="978.979" y="320"/>
      <point x="1018" y="543.313"/>
      <point x="1018" y="758" type="curve" smooth="yes"/>
      <point x="1018" y="820" type="line" smooth="yes"/>
      <point x="1018" y="1054.66"/>
      <point x="941.577" y="1176.81"/>
      <point x="690" y="1184" type="curve" smooth="no"/>
      <point x="680" y="1162"/>
      <point x="668" y="1146"/>
      <point x="658" y="1124" type="curve" smooth="no"/>
      <point x="658" y="1076" type="line" smooth="yes"/>
      <point x="658" y="978.803"/>
      <point x="634.96" y="329.84"/>
    </contour>
  </outline>
</glyph>
<glyph name="E" format="1">
  <advance width="1306"/>
  <unicode hex="0045"/>
  <outline>
    <contour>
      <point x="92" y="36" type="curve" smooth="yes"/>
      <point x="92" y="74" type="line" smooth="yes"/>
      <point x="92" y="416"/>
      <point x="100" y="742"/>
      <point x="100" y="1084" type="curve" smooth="yes"/>
      <point x="100" y="1498" type="line" smooth="no"/>
      <point x="1264" y="1498" type="line" smooth="no"/>
      <point x="1264" y="1170" type="line" smooth="yes"/>
      <point x="1264" y="1130"/>
      <point x="1272" y="1080"/>
      <point x="1204" y="1080" type="curve" smooth="yes"/>
      <point x="1176" y="1080" type="line" smooth="yes"/>
      <point x="1016" y="1080"/>
      <point x="864" y="1082"/>
      <point x="704" y="1088" type="curve" smooth="no"/>
      <point x="698" y="1034"/>
      <point x="688" y="984"/>
      <point x="688" y="930" type="curve" smooth="no"/>
      <point x="1164" y="930" type="line" smooth="yes"/>
      <point x="1206" y="930"/>
      <point x="1214" y="918"/>
      <point x="1214" y="896" type="curve" smooth="yes"/>
      <point x="1214" y="886"/>
      <point x="1212" y="874"/>
      <point x="1212" y="864" type="curve" smooth="yes"/>
      <point x="1212" y="768"/>
      <point x="1218" y="676"/>
      <point x="1218" y="580" type="curve" smooth="no"/>
      <point x="1216" y="566"/>
      <point x="1210" y="560"/>
      <point x="1202" y="560" type="curve" smooth="yes"/>
      <point x="1198" y="560"/>
      <point x="1194" y="562"/>
      <point x="1192" y="564" type="curve" smooth="no"/>
      <point x="1034" y="556"/>
      <point x="884" y="548"/>
      <point x="724" y="548" type="curve" smooth="yes"/>
      <point x="698" y="548" type="line" smooth="no"/>
      <point x="698" y="404" type="line" smooth="no"/>
      <point x="874" y="404"/>
      <point x="1038" y="420"/>
      <point x="1208" y="420" type="curve" smooth="yes"/>
      <point x="1240" y="420"/>
      <point x="1276" y="414"/>
      <point x="1284" y="392" type="curve" smooth="no"/>
      <point x="1284" y="316" type="line" smooth="yes"/>
      <point x="1284" y="220"/>
      <point x="1288" y="128"/>
      <point x="1288" y="32" type="curve" smooth="yes"/>
      <point x="1288" y="8"/>
      <point x="1280" y="-18"/>
      <point x="1248" y="-18" type="curve" smooth="yes"/>
      <point x="1142" y="-18"/>
      <point x="1034" y="-16"/>
      <point x="924" y="-16" type="curve" smooth="yes"/>
      <point x="654" y="-16"/>
      <point x="390" y="-30"/>
      <point x="124" y="-32" type="curve" smooth="no"/>
      <point x="96" y="0" type="line" smooth="no"/>
      <point x="94" y="14"/>
      <point x="92" y="26"/>
    </contour>
  </outline>
</glyph>
<glyph name="F" format="1">
  <advance width="1264"/>
  <unicode hex="0046"/>
  <outline>
    <contour>
      <point x="100" y="140" type="curve" smooth="yes"/>
      <point x="100" y="1476" type="line" smooth="yes"/>
      <point x="100" y="1504"/>
      <point x="186" y="1510"/>
      <point x="256" y="1510" type="curve" smooth="yes"/>
      <point x="288" y="1510"/>
      <point x="322" y="1508"/>
      <point x="348" y="1508" type="curve" smooth="yes"/>
      <point x="506" y="1508"/>
      <point x="660" y="1514"/>
      <point x="820" y="1514" type="curve" smooth="yes"/>
      <point x="932" y="1514"/>
      <point x="1034" y="1510"/>
      <point x="1152" y="1510" type="curve" smooth="yes"/>
      <point x="1168" y="1510"/>
      <point x="1184" y="1512"/>
      <point x="1200" y="1512" type="curve" smooth="yes"/>
      <point x="1246" y="1512"/>
      <point x="1264" y="1500"/>
      <point x="1264" y="1446" type="curve" smooth="yes"/>
      <point x="1264" y="1096" type="line" smooth="no"/>
      <point x="1136" y="1086"/>
      <point x="990" y="1088"/>
      <point x="862" y="1086" type="curve" smooth="no"/>
      <point x="724" y="1086" type="line" smooth="no"/>
      <point x="724" y="1048"/>
      <point x="722" y="1014"/>
      <point x="722" y="976" type="curve" smooth="yes"/>
      <point x="722" y="962" type="line" smooth="no"/>
      <point x="724" y="958"/>
      <point x="724" y="954"/>
      <point x="724" y="948" type="curve" smooth="no"/>
      <point x="866" y="958"/>
      <point x="958" y="964"/>
      <point x="1108" y="964" type="curve" smooth="yes"/>
      <point x="1162" y="964"/>
      <point x="1228" y="956"/>
      <point x="1228" y="936" type="curve" smooth="yes"/>
      <point x="1228" y="602" type="line" smooth="yes"/>
      <point x="1228" y="540"/>
      <point x="1202" y="528"/>
      <point x="1158" y="528" type="curve" smooth="yes"/>
      <point x="1140" y="528"/>
      <point x="1118" y="532"/>
      <point x="1096" y="532" type="curve" smooth="no"/>
      <point x="974" y="524"/>
      <point x="850" y="518"/>
      <point x="726" y="516" type="curve" smooth="no"/>
      <point x="726" y="394"/>
      <point x="732" y="270"/>
      <point x="732" y="148" type="curve" smooth="yes"/>
      <point x="732" y="24" type="line" smooth="yes"/>
      <point x="732" y="-14"/>
      <point x="728" y="-22"/>
      <point x="696" y="-28" type="curve" smooth="no"/>
      <point x="504" y="-28"/>
      <point x="320" y="-32"/>
      <point x="128" y="-32" type="curve" smooth="no"/>
      <point x="94" y="16"/>
      <point x="100" y="78"/>
    </contour>
  </outline>
</glyph>
<glyph name="G" format="1">
  <advance width="1680"/>
  <unicode hex="0047"/>
  <outline>
    <contour>
      <point x="42" y="748" type="curve" smooth="yes"/>
      <point x="42" y="1412"/>
      <point x="576" y="1540"/>
      <point x="916" y="1540" type="curve" smooth="yes"/>
      <point x="1118" y="1540"/>
      <point x="1480" y="1496"/>
      <point x="1556" y="1184" type="curve" smooth="no"/>
      <point x="1566" y="1126"/>
      <point x="1570" y="1074"/>
      <point x="1576" y="1020" type="curve" smooth="no"/>
      <point x="1572" y="992"/>
      <point x="1534" y="990"/>
      <point x="1512" y="990" type="curve" smooth="yes"/>
      <point x="1342" y="990"/>
      <point x="1182" y="998"/>
      <point x="1016" y="998" type="curve" smooth="no"/>
      <point x="962" y="1016"/>
      <point x="1018" y="1128"/>
      <point x="882" y="1128" type="curve" smooth="yes"/>
      <point x="680" y="1128"/>
      <point x="678" y="888"/>
      <point x="678" y="740" type="curve" smooth="yes"/>
      <point x="678" y="716"/>
      <point x="680" y="698"/>
      <point x="680" y="682" type="curve" smooth="yes"/>
      <point x="680" y="652" type="line" smooth="yes"/>
      <point x="680" y="536"/>
      <point x="686" y="364"/>
      <point x="894" y="364" type="curve" smooth="yes"/>
      <point x="964" y="364"/>
      <point x="1018" y="368"/>
      <point x="1076" y="386" type="curve" smooth="no"/>
      <point x="1076" y="508" type="line" smooth="no"/>
      <point x="1032" y="508" type="line" smooth="no"/>
      <point x="1032" y="506" type="line" smooth="no"/>
      <point x="960" y="506" type="line" smooth="yes"/>
      <point x="942" y="506"/>
      <point x="922" y="504"/>
      <point x="898" y="504" type="curve" smooth="no"/>
      <point x="862" y="544" type="line" smooth="no"/>
      <point x="862" y="820" type="line" smooth="yes"/>
      <point x="862" y="842"/>
      <point x="872" y="854"/>
      <point x="898" y="876" type="curve" smooth="no"/>
      <point x="970" y="876" type="line" smooth="yes"/>
      <point x="1114" y="876"/>
      <point x="1196" y="872"/>
      <point x="1316" y="872" type="curve" smooth="yes"/>
      <point x="1396" y="872" type="line" smooth="yes"/>
      <point x="1480" y="872"/>
      <point x="1584" y="872"/>
      <point x="1612" y="836" type="curve" smooth="no"/>
      <point x="1612" y="580"/>
      <point x="1600" y="322"/>
      <point x="1600" y="90" type="curve" smooth="yes"/>
      <point x="1600" y="84"/>
      <point x="1602" y="78"/>
      <point x="1602" y="70" type="curve" smooth="yes"/>
      <point x="1602" y="48" type="line" smooth="no"/>
      <point x="1552" y="-10"/>
      <point x="1206" y="-52"/>
      <point x="1064" y="-52" type="curve" smooth="yes"/>
      <point x="1038" y="-52" type="line" smooth="yes"/>
      <point x="982" y="-52"/>
      <point x="928" y="-60"/>
      <point x="872" y="-60" type="curve" smooth="yes"/>
      <point x="324" y="-60"/>
      <point x="42" y="256"/>
    </contour>
  </outline>
</glyph>
<glyph name="H" format="1">
  <advance width="1654"/>
  <unicode hex="0048"/>
  <outline>
    <contour>
      <point x="360" y="-26" type="line" smooth="yes"/>
      <point x="173.118" y="-26"/>
      <point x="90" y="-71.8057"/>
      <point x="90" y="138" type="curve" smooth="yes"/>
      <point x="90" y="556"/>
      <point x="106" y="912"/>
      <point x="106" y="1276" type="curve" smooth="yes"/>
      <point x="106" y="1336"/>
      <point x="106" y="1492"/>
      <point x="128" y="1504" type="curve" smooth="no"/>
      <point x="500" y="1504" type="line" smooth="yes"/>
      <point x="698" y="1504"/>
      <point x="728" y="1476"/>
      <point x="728" y="1388" type="curve" smooth="yes"/>
      <point x="728" y="1356"/>
      <point x="724" y="1316"/>
      <point x="724" y="1266" type="curve" smooth="yes"/>
      <point x="724" y="1220" type="line" smooth="yes"/>
      <point x="724" y="1156"/>
      <point x="718" y="1092"/>
      <point x="718" y="1028" type="curve" smooth="yes"/>
      <point x="718" y="1008" type="line" smooth="no"/>
      <point x="720" y="1002"/>
      <point x="720" y="998"/>
      <point x="720" y="992" type="curve" smooth="no"/>
      <point x="760" y="992" type="line" smooth="yes"/>
      <point x="794" y="992"/>
      <point x="830" y="990"/>
      <point x="864" y="990" type="curve" smooth="yes"/>
      <point x="886" y="990"/>
      <point x="910" y="990"/>
      <point x="932" y="996" type="curve" smooth="no"/>
      <point x="932" y="1412" type="line" smooth="yes"/>
      <point x="932" y="1512"/>
      <point x="942" y="1516"/>
      <point x="984" y="1516" type="curve" smooth="yes"/>
      <point x="1010" y="1516"/>
      <point x="1042" y="1514"/>
      <point x="1068" y="1514" type="curve" smooth="yes"/>
      <point x="1088" y="1514"/>
      <point x="1178" y="1520"/>
      <point x="1276" y="1520" type="curve" smooth="yes"/>
      <point x="1408" y="1520"/>
      <point x="1548" y="1510"/>
      <point x="1548" y="1460" type="curve" smooth="yes"/>
      <point x="1548" y="1428"/>
      <point x="1550" y="1400"/>
      <point x="1550" y="1368" type="curve" smooth="yes"/>
      <point x="1550" y="1298"/>
      <point x="1548" y="1234"/>
      <point x="1548" y="1164" type="curve" smooth="yes"/>
      <point x="1548" y="956"/>
      <point x="1554" y="752"/>
      <point x="1554" y="544" type="curve" smooth="yes"/>
      <point x="1554" y="528"/>
      <point x="1552" y="514"/>
      <point x="1552" y="504" type="curve" smooth="yes"/>
      <point x="1552" y="456" type="line" smooth="yes"/>
      <point x="1552" y="424"/>
      <point x="1552" y="392"/>
      <point x="1554" y="360" type="curve" smooth="no"/>
      <point x="1554" y="338" type="line" smooth="no"/>
      <point x="1552" y="334"/>
      <point x="1552" y="330"/>
      <point x="1552" y="326" type="curve" smooth="yes"/>
      <point x="1552" y="220"/>
      <point x="1556" y="110"/>
      <point x="1556" y="4" type="curve" smooth="no"/>
      <point x="1550" y="-28"/>
      <point x="1458" y="-32"/>
      <point x="1364" y="-32" type="curve" smooth="yes"/>
      <point x="948" y="-32" type="line" smooth="no"/>
      <point x="918" y="10" type="line" smooth="no"/>
      <point x="918" y="76" type="line" smooth="yes"/>
      <point x="918" y="210"/>
      <point x="920" y="338"/>
      <point x="920" y="472" type="curve" smooth="yes"/>
      <point x="920" y="502"/>
      <point x="916" y="512"/>
      <point x="892" y="512" type="curve" smooth="yes"/>
      <point x="856" y="512" type="line" smooth="yes"/>
      <point x="814" y="512"/>
      <point x="774" y="510"/>
      <point x="732" y="504" type="curve" smooth="no"/>
      <point x="732" y="338"/>
      <point x="728" y="172"/>
      <point x="728" y="4" type="curve" smooth="no"/>
      <point x="718" y="-22"/>
      <point x="602" y="-26"/>
      <point x="478" y="-26" type="curve" smooth="yes"/>
    </contour>
  </outline>
</glyph>
<glyph name="I" format="1">
  <advance width="842"/>
  <unicode hex="0049"/>
  <outline>
    <contour>
      <point x="82" y="-26" type="line" smooth="no"/>
      <point x="84" y="112"/>
      <point x="86" y="262"/>
      <point x="96" y="400" type="curve" smooth="no"/>
      <point x="96" y="680"/>
      <point x="100" y="964"/>
      <point x="108" y="1252" type="curve" smooth="no"/>
      <point x="106" y="1294"/>
      <point x="104" y="1336"/>
      <point x="104" y="1376" type="curve" smooth="yes"/>
      <point x="104" y="1406" type="line" smooth="no"/>
      <point x="102" y="1428"/>
      <point x="100" y="1454"/>
      <point x="100" y="1478" type="curve" smooth="yes"/>
      <point x="100" y="1492"/>
      <point x="106" y="1502"/>
      <point x="118" y="1512" type="curve" smooth="no"/>
      <point x="282" y="1500"/>
      <point x="442" y="1500"/>
      <point x="618" y="1500" type="curve" smooth="yes"/>
      <point x="650" y="1500"/>
      <point x="698" y="1500"/>
      <point x="728" y="1504" type="curve" smooth="no"/>
      <point x="728" y="-26" type="line" smooth="no"/>
    </contour>
  </outline>
</glyph>
<glyph name="J" format="1">
  <advance width="1382"/>
  <unicode hex="004a"/>
  <outline>
    <contour>
      <point x="624" y="-56" type="curve" smooth="yes"/>
      <point x="274.7" y="-56"/>
      <point x="-24" y="52.6268"/>
      <point x="-24" y="470" type="curve" smooth="yes"/>
      <point x="-24" y="500"/>
      <point x="-18" y="524"/>
      <point x="8" y="524" type="curve" smooth="yes"/>
      <point x="464" y="524" type="line" smooth="yes"/>
      <point x="576" y="524"/>
      <point x="490" y="376"/>
      <point x="588" y="376" type="curve" smooth="yes"/>
      <point x="658" y="376"/>
      <point x="660" y="466"/>
      <point x="660" y="528" type="curve" smooth="yes"/>
      <point x="660" y="536" type="line" smooth="no"/>
      <point x="660" y="536" type="line" smooth="no"/>
      <point x="658" y="728"/>
      <point x="650" y="930"/>
      <point x="650" y="1136" type="curve" smooth="yes"/>
      <point x="650" y="1476" type="line" smooth="yes"/>
      <point x="650" y="1496.92"/>
      <point x="667.539" y="1506.94"/>
      <point x="692" y="1510" type="curve" smooth="no"/>
      <point x="756" y="1510"/>
      <point x="820" y="1508"/>
      <point x="884" y="1508" type="curve" smooth="yes"/>
      <point x="980" y="1508"/>
      <point x="1072" y="1510"/>
      <point x="1168" y="1510" type="curve" smooth="yes"/>
      <point x="1262" y="1510" type="line" smooth="yes"/>
      <point x="1276" y="1510"/>
      <point x="1288" y="1500"/>
      <point x="1294" y="1482" type="curve" smooth="no"/>
      <point x="1290" y="1450"/>
      <point x="1294" y="1416"/>
      <point x="1292" y="1384" type="curve" smooth="no"/>
      <point x="1292" y="1334" type="line" smooth="no"/>
      <point x="1286" y="1150"/>
      <point x="1282" y="976"/>
      <point x="1282" y="786" type="curve" smooth="yes"/>
      <point x="1282" y="472" type="line" smooth="yes"/>
      <point x="1282" y="46"/>
      <point x="864" y="-56"/>
    </contour>
  </outline>
</glyph>
<glyph name="K" format="1">
  <advance width="1646"/>
  <unicode hex="004b"/>
  <outline>
    <contour>
      <point x="160" y="-32" type="line" smooth="yes"/>
      <point x="114.874" y="-32"/>
      <point x="112.12" y="-21.2692"/>
      <point x="100" y="6" type="curve" smooth="no"/>
      <point x="100" y="1428" type="line" smooth="yes"/>
      <point x="100" y="1486"/>
      <point x="100" y="1516"/>
      <point x="162" y="1516" type="curve" smooth="yes"/>
      <point x="572" y="1516" type="line" smooth="yes"/>
      <point x="634" y="1516"/>
      <point x="716" y="1508"/>
      <point x="716" y="1480" type="curve" smooth="yes"/>
      <point x="716" y="1478" type="line" smooth="no"/>
      <point x="714" y="1292"/>
      <point x="712" y="1110"/>
      <point x="712" y="924" type="curve" smooth="no"/>
      <point x="993.009" y="1509.44" type="line" smooth="no"/>
      <point x="1200" y="1508" type="line" smooth="yes"/>
      <point x="1288" y="1508"/>
      <point x="1624" y="1510"/>
      <point x="1624" y="1488" type="curve" smooth="yes"/>
      <point x="1624" y="1486"/>
      <point x="1622" y="1484"/>
      <point x="1620" y="1484" type="curve" smooth="no"/>
      <point x="1490.67" y="1249.99"/>
      <point x="1359.33" y="1018"/>
      <point x="1226" y="788" type="curve" smooth="no"/>
      <point x="1226" y="760" type="line" smooth="no"/>
      <point x="1266.76" y="733.609" type="line" smooth="no"/>
      <point x="1685.11" y="14.9752" type="line" smooth="no"/>
      <point x="1685.11" y="4.97524"/>
      <point x="1674" y="-10"/>
      <point x="1662" y="-20" type="curve" smooth="no"/>
      <point x="1020" y="-20" type="line" smooth="no"/>
      <point x="734" y="538" type="line" smooth="no"/>
      <point x="724" y="442"/>
      <point x="726" y="342"/>
      <point x="720" y="240" type="curve" smooth="no"/>
      <point x="720" y="4" type="line" smooth="no"/>
      <point x="714" y="-26"/>
      <point x="662" y="-32"/>
      <point x="600" y="-32" type="curve" smooth="yes"/>
    </contour>
  </outline>
</glyph>
<glyph name="L" format="1">
  <advance width="1264"/>
  <unicode hex="004c"/>
  <outline>
    <contour>
      <point x="102" y="1336" type="curve" smooth="yes"/>
      <point x="102" y="1422"/>
      <point x="108" y="1502"/>
      <point x="136" y="1518" type="curve" smooth="no"/>
      <point x="146" y="1516"/>
      <point x="154" y="1516"/>
      <point x="164" y="1516" type="curve" smooth="yes"/>
      <point x="196" y="1516" type="line" smooth="yes"/>
      <point x="260" y="1516"/>
      <point x="334" y="1520"/>
      <point x="406" y="1520" type="curve" smooth="yes"/>
      <point x="566" y="1520"/>
      <point x="717.531" y="1512.01"/>
      <point x="733.531" y="1466.01" type="curve" smooth="no"/>
      <point x="722" y="434" type="line" smooth="no"/>
      <point x="744" y="434" type="line" smooth="no"/>
      <point x="868" y="444"/>
      <point x="936" y="430"/>
      <point x="1138" y="430" type="curve" smooth="yes"/>
      <point x="1212" y="430"/>
      <point x="1266" y="426"/>
      <point x="1266" y="392" type="curve" smooth="yes"/>
      <point x="1266" y="8" type="line" smooth="no"/>
      <point x="1256" y="-20"/>
      <point x="1042" y="-28"/>
      <point x="820" y="-28" type="curve" smooth="yes"/>
      <point x="128" y="-28" type="line" smooth="no"/>
      <point x="106" y="4"/>
      <point x="104" y="42"/>
      <point x="104" y="84" type="curve" smooth="yes"/>
      <point x="104" y="368" type="line" smooth="yes"/>
      <point x="104" y="618"/>
      <point x="108" y="858"/>
      <point x="108" y="1108" type="curve" smooth="yes"/>
      <point x="108" y="1162"/>
      <point x="102" y="1250"/>
    </contour>
  </outline>
</glyph>
<glyph name="M" format="1">
  <advance width="2192"/>
  <unicode hex="004d"/>
  <outline>
    <contour>
      <point x="2108" y="374" type="curve" smooth="no"/>
      <point x="2108" y="267.363"/>
      <point x="2145.92" y="-28"/>
      <point x="2044" y="-28" type="curve" smooth="yes"/>
      <point x="1588" y="-28" type="line" smooth="no"/>
      <point x="1546" y="4"/>
      <point x="1540" y="130"/>
      <point x="1540" y="248" type="curve" smooth="yes"/>
      <point x="1540" y="410"/>
      <point x="1542" y="516"/>
      <point x="1542" y="632" type="curve" smooth="yes"/>
      <point x="1542" y="702" type="line" smooth="yes"/>
      <point x="1542" y="728"/>
      <point x="1538" y="752"/>
      <point x="1540" y="776" type="curve" smooth="no"/>
      <point x="1470" y="520"/>
      <point x="1424" y="256"/>
      <point x="1362" y="0" type="curve" smooth="no"/>
      <point x="1354" y="-22"/>
      <point x="1310" y="-28"/>
      <point x="1270" y="-28" type="curve" smooth="yes"/>
      <point x="916" y="-28" type="line" smooth="yes"/>
      <point x="884" y="-28"/>
      <point x="850" y="-24"/>
      <point x="840" y="6" type="curve" smooth="no"/>
      <point x="744" y="424" type="line" smooth="no"/>
      <point x="715.812" y="567.812"/>
      <point x="680.278" y="704.278"/>
      <point x="648" y="844" type="curve" smooth="no"/>
      <point x="642" y="684"/>
      <point x="636" y="524"/>
      <point x="636" y="356" type="curve" smooth="yes"/>
      <point x="636" y="180" type="line" smooth="yes"/>
      <point x="636" y="122"/>
      <point x="636" y="62"/>
      <point x="638" y="2" type="curve" smooth="no"/>
      <point x="634" y="-12"/>
      <point x="626" y="-20"/>
      <point x="616" y="-20" type="curve" smooth="yes"/>
      <point x="522" y="-20" type="line" smooth="yes"/>
      <point x="404" y="-20"/>
      <point x="294" y="-22"/>
      <point x="176" y="-22" type="curve" smooth="yes"/>
      <point x="150" y="-22"/>
      <point x="122" y="-20"/>
      <point x="122" y="-4" type="curve" smooth="yes"/>
      <point x="122" y="1480" type="line" smooth="yes"/>
      <point x="122" y="1522"/>
      <point x="210" y="1514"/>
      <point x="246" y="1514" type="curve" smooth="yes"/>
      <point x="364" y="1514" type="line" smooth="yes"/>
      <point x="860" y="1514"/>
      <point x="746" y="1498"/>
      <point x="944" y="1498" type="curve" smooth="no"/>
      <point x="968" y="1364"/>
      <point x="994" y="1232"/>
      <point x="1020" y="1100" type="curve" smooth="yes"/>
      <point x="1096" y="702" type="line" smooth="no"/>
      <point x="1255.6" y="1510.45" type="line" smooth="no"/>
      <point x="1257.6" y="1510.45"/>
      <point x="1270" y="1506"/>
      <point x="1276" y="1506" type="curve" smooth="yes"/>
      <point x="1490" y="1506"/>
      <point x="1694" y="1512"/>
      <point x="1908" y="1512" type="curve" smooth="yes"/>
      <point x="2056" y="1512" type="line" smooth="no"/>
      <point x="2074" y="1510"/>
      <point x="2084" y="1498"/>
      <point x="2084" y="1456" type="curve" smooth="yes"/>
      <point x="2092" y="1106"/>
      <point x="2102" y="740"/>
    </contour>
  </outline>
</glyph>
<glyph name="N" format="1">
  <advance width="1726"/>
  <unicode hex="004e"/>
  <outline>
    <contour>
      <point x="80" y="-4" type="line" smooth="no"/>
      <point x="80" y="448" type="line" smooth="no"/>
      <point x="78" y="766"/>
      <point x="88" y="1076"/>
      <point x="96" y="1394" type="curve" smooth="no"/>
      <point x="96" y="1476" type="line" smooth="yes"/>
      <point x="96" y="1486"/>
      <point x="100" y="1500"/>
      <point x="104" y="1502" type="curve" smooth="no"/>
      <point x="792" y="1502" type="line" smooth="yes"/>
      <point x="814" y="1502"/>
      <point x="914" y="1198"/>
      <point x="968" y="1066" type="curve" smooth="no"/>
      <point x="1108" y="700" type="line" smooth="no"/>
      <point x="1108" y="1088" type="line" smooth="yes"/>
      <point x="1108" y="1216"/>
      <point x="1114" y="1346"/>
      <point x="1112" y="1480" type="curve" smooth="yes"/>
      <point x="1112" y="1504"/>
      <point x="1186" y="1508"/>
      <point x="1272" y="1508" type="curve" smooth="yes"/>
      <point x="1362" y="1508"/>
      <point x="1466" y="1504"/>
      <point x="1516" y="1504" type="curve" smooth="yes"/>
      <point x="1592" y="1504" type="line" smooth="yes"/>
      <point x="1602" y="1504"/>
      <point x="1608" y="1500"/>
      <point x="1608" y="1498" type="curve" smooth="yes"/>
      <point x="1614" y="1220"/>
      <point x="1614" y="966"/>
      <point x="1614" y="702" type="curve" smooth="yes"/>
      <point x="1614" y="8" type="line" smooth="no"/>
      <point x="1608" y="-14"/>
      <point x="1580" y="-18"/>
      <point x="1550" y="-18" type="curve" smooth="yes"/>
      <point x="1524" y="-18" type="line" smooth="yes"/>
      <point x="1420" y="-18"/>
      <point x="1322" y="-22"/>
      <point x="1218" y="-22" type="curve" smooth="yes"/>
      <point x="924" y="-22" type="line" smooth="no"/>
      <point x="912" y="-18"/>
      <point x="890" y="38"/>
      <point x="866" y="104" type="curve" smooth="yes"/>
      <point x="785.955" y="323.955"/>
      <point x="703.261" y="541.261"/>
      <point x="622" y="760" type="curve" smooth="no"/>
      <point x="622" y="642"/>
      <point x="620" y="526"/>
      <point x="620" y="408" type="curve" smooth="yes"/>
      <point x="620" y="320"/>
      <point x="624" y="232"/>
      <point x="624" y="144" type="curve" smooth="yes"/>
      <point x="624" y="18" type="line" smooth="yes"/>
      <point x="624" y="-4"/>
      <point x="614" y="-28"/>
      <point x="584" y="-28" type="curve" smooth="yes"/>
      <point x="124" y="-28" type="line" smooth="no"/>
    </contour>
    <contour>
      <point x="1608" y="1496" type="line" smooth="yes"/>
      <point x="1608" y="1500" type="line" smooth="yes"/>
    </contour>
  </outline>
</glyph>
<glyph name="O" format="1">
  <advance width="1644"/>
  <unicode hex="004f"/>
  <outline>
    <contour>
      <point x="24" y="752" type="curve" smooth="yes"/>
      <point x="24" y="862" type="line" smooth="no"/>
      <point x="58" y="1342"/>
      <point x="452" y="1550"/>
      <point x="844" y="1550" type="curve" smooth="yes"/>
      <point x="1002" y="1550"/>
      <point x="1272" y="1502"/>
      <point x="1408" y="1324" type="curve" smooth="no"/>
      <point x="1542" y="1160"/>
      <point x="1596" y="988"/>
      <point x="1596" y="776" type="curve" smooth="no"/>
      <point x="1598" y="566"/>
      <point x="1552" y="374"/>
      <point x="1448" y="232" type="curve" smooth="yes"/>
      <point x="1404" y="172" type="line" smooth="yes"/>
      <point x="1280" y="2"/>
      <point x="1006" y="-56"/>
      <point x="804" y="-56" type="curve" smooth="yes"/>
      <point x="184" y="-56"/>
      <point x="24" y="386"/>
    </contour>
    <contour>
      <point x="820" y="1148" type="curve" smooth="yes"/>
      <point x="621.213" y="1148"/>
      <point x="620" y="834.518"/>
      <point x="620" y="672" type="curve" smooth="yes"/>
      <point x="620" y="536"/>
      <point x="646" y="340"/>
      <point x="794" y="332" type="curve" smooth="no"/>
      <point x="1004" y="332"/>
      <point x="1012" y="572"/>
      <point x="1012" y="788" type="curve" smooth="yes"/>
      <point x="1012" y="934"/>
      <point x="994" y="1148"/>
    </contour>
  </outline>
</glyph>
<glyph name="P" format="1">
  <advance width="1526"/>
  <unicode hex="0050"/>
  <outline>
    <contour>
      <point x="104" y="136" type="curve" smooth="yes"/>
      <point x="104" y="1468" type="line" smooth="yes"/>
      <point x="104" y="1494"/>
      <point x="170" y="1490"/>
      <point x="212" y="1492" type="curve" smooth="no"/>
      <point x="1024" y="1492" type="line" smooth="yes"/>
      <point x="1288" y="1492"/>
      <point x="1520" y="1326"/>
      <point x="1520" y="1000" type="curve" smooth="yes"/>
      <point x="1520" y="578"/>
      <point x="1172" y="492"/>
      <point x="932" y="476" type="curve" smooth="no"/>
      <point x="740" y="476" type="line" smooth="no"/>
      <point x="734" y="358"/>
      <point x="732" y="242"/>
      <point x="732" y="124" type="curve" smooth="yes"/>
      <point x="732" y="12" type="line" smooth="no"/>
      <point x="730" y="-10"/>
      <point x="722" y="-24"/>
      <point x="698" y="-24" type="curve" smooth="yes"/>
      <point x="130" y="-24" type="line" smooth="no"/>
      <point x="108" y="34"/>
      <point x="104" y="78"/>
    </contour>
    <contour>
      <point x="668" y="836" type="curve" smooth="no"/>
      <point x="700" y="792" type="line" smooth="no"/>
      <point x="830" y="792"/>
      <point x="972" y="840"/>
      <point x="972" y="1000" type="curve" smooth="yes"/>
      <point x="972" y="1168"/>
      <point x="820" y="1172"/>
      <point x="702" y="1172" type="curve" smooth="no"/>
      <point x="672" y="1158"/>
      <point x="668" y="926"/>
    </contour>
  </outline>
</glyph>
<glyph name="Q" format="1">
  <advance width="1642"/>
  <unicode hex="0051"/>
  <outline>
    <contour>
      <point x="40" y="748" type="curve" smooth="yes"/>
      <point x="40" y="1332"/>
      <point x="448" y="1550"/>
      <point x="856" y="1550" type="curve" smooth="yes"/>
      <point x="1330" y="1550"/>
      <point x="1604" y="1216"/>
      <point x="1604" y="788" type="curve" smooth="yes"/>
      <point x="1604" y="648"/>
      <point x="1562" y="498"/>
      <point x="1486" y="396" type="curve" smooth="no"/>
      <point x="1512" y="396"/>
      <point x="1538" y="398"/>
      <point x="1564" y="398" type="curve" smooth="yes"/>
      <point x="1638" y="398"/>
      <point x="1648" y="364"/>
      <point x="1648" y="336" type="curve" smooth="yes"/>
      <point x="1648" y="-4" type="line" smooth="no"/>
      <point x="1646" y="-26"/>
      <point x="1634" y="-36"/>
      <point x="1608" y="-44" type="curve" smooth="no"/>
      <point x="1574" y="-38"/>
      <point x="1448" y="-30"/>
      <point x="1332" y="-30" type="curve" smooth="yes"/>
      <point x="1132" y="-30"/>
      <point x="970" y="-68"/>
      <point x="792" y="-68" type="curve" smooth="yes"/>
      <point x="500" y="-68"/>
      <point x="314" y="52"/>
      <point x="196" y="244" type="curve" smooth="no"/>
      <point x="196" y="244" type="line" smooth="no"/>
      <point x="80" y="360"/>
      <point x="40" y="588"/>
    </contour>
    <contour>
      <point x="620" y="728" type="curve" smooth="yes"/>
      <point x="620" y="584"/>
      <point x="622" y="320"/>
      <point x="806" y="320" type="curve" smooth="no"/>
      <point x="806" y="344" type="line" smooth="yes"/>
      <point x="806" y="346"/>
      <point x="812" y="348"/>
      <point x="816" y="348" type="curve" smooth="yes"/>
      <point x="826" y="348"/>
      <point x="840" y="344"/>
      <point x="850" y="344" type="curve" smooth="yes"/>
      <point x="1048" y="344"/>
      <point x="1012" y="762"/>
      <point x="1012" y="810" type="curve" smooth="yes"/>
      <point x="1012" y="964"/>
      <point x="996" y="1168"/>
      <point x="824" y="1168" type="curve" smooth="yes"/>
      <point x="648" y="1168"/>
      <point x="620" y="902"/>
    </contour>
  </outline>
</glyph>
<glyph name="R" format="1">
  <advance width="1560"/>
  <unicode hex="0052"/>
  <outline>
    <contour>
      <point x="1552" y="-4" type="curve" smooth="no"/>
      <point x="1503.83" y="-52.1721"/>
      <point x="1251.64" y="-22"/>
      <point x="1176" y="-22" type="curve" smooth="yes"/>
      <point x="1142" y="-22"/>
      <point x="1108" y="-22"/>
      <point x="1078" y="-20" type="curve" smooth="no"/>
      <point x="978" y="-20" type="line" smooth="no"/>
      <point x="930" y="-4"/>
      <point x="912" y="238"/>
      <point x="896" y="330" type="curve" smooth="no"/>
      <point x="890" y="466"/>
      <point x="858" y="492"/>
      <point x="762" y="492" type="curve" smooth="yes"/>
      <point x="718" y="492" type="line" smooth="no"/>
      <point x="718" y="4" type="line" smooth="no"/>
      <point x="712" y="-40"/>
      <point x="530" y="-28"/>
      <point x="452" y="-28" type="curve" smooth="yes"/>
      <point x="308" y="-28" type="line" smooth="yes"/>
      <point x="246" y="-28"/>
      <point x="186" y="-28"/>
      <point x="124" y="-30" type="curve" smooth="no"/>
      <point x="114" y="-26"/>
      <point x="106" y="-22"/>
      <point x="96" y="-16" type="curve" smooth="no"/>
      <point x="96" y="1476" type="line" smooth="yes"/>
      <point x="96" y="1500"/>
      <point x="134" y="1504"/>
      <point x="176" y="1504" type="curve" smooth="yes"/>
      <point x="1048" y="1504" type="line" smooth="no"/>
      <point x="1352" y="1496"/>
      <point x="1512" y="1354"/>
      <point x="1512" y="1108" type="curve" smooth="yes"/>
      <point x="1512" y="934"/>
      <point x="1420" y="824"/>
      <point x="1268" y="754" type="curve" smooth="no"/>
      <point x="1516" y="676"/>
      <point x="1498" y="388"/>
      <point x="1522" y="192" type="curve" smooth="no"/>
      <point x="1522" y="104" type="line" smooth="no"/>
      <point x="1528" y="74"/>
      <point x="1552" y="46"/>
      <point x="1560" y="16" type="curve" smooth="no"/>
      <point x="1560" y="2"/>
      <point x="1558" y="-4"/>
    </contour>
    <contour>
      <point x="712" y="1080" type="curve" smooth="yes"/>
      <point x="712" y="1004"/>
      <point x="710" y="892"/>
      <point x="754" y="848" type="curve" smooth="no"/>
      <point x="856" y="848"/>
      <point x="982" y="886"/>
      <point x="982" y="1040" type="curve" smooth="yes"/>
      <point x="982" y="1170"/>
      <point x="828" y="1172"/>
      <point x="760" y="1172" type="curve" smooth="yes"/>
      <point x="736" y="1172" type="line" smooth="no"/>
      <point x="714" y="1162"/>
      <point x="712" y="1130"/>
    </contour>
  </outline>
</glyph>
<glyph name="S" format="1">
  <advance width="1484"/>
  <unicode hex="0053"/>
  <outline>
    <contour>
      <point x="728" y="-60" type="curve" smooth="no"/>
      <point x="356.244" y="-43.976"/>
      <point x="70.7332" y="53.2022"/>
      <point x="40" y="422" type="curve" smooth="no"/>
      <point x="40" y="436"/>
      <point x="46" y="442"/>
      <point x="60" y="444" type="curve" smooth="no"/>
      <point x="66" y="442"/>
      <point x="72" y="442"/>
      <point x="80" y="442" type="curve" smooth="no"/>
      <point x="80" y="442" type="line" smooth="no"/>
      <point x="246" y="442"/>
      <point x="418" y="450"/>
      <point x="584" y="450" type="curve" smooth="yes"/>
      <point x="662" y="450"/>
      <point x="610" y="318"/>
      <point x="756" y="318" type="curve" smooth="yes"/>
      <point x="816" y="318"/>
      <point x="880" y="354"/>
      <point x="880" y="420" type="curve" smooth="yes"/>
      <point x="880" y="530"/>
      <point x="562" y="564"/>
      <point x="508" y="578" type="curve" smooth="yes"/>
      <point x="190" y="664"/>
      <point x="52" y="780"/>
      <point x="52" y="1010" type="curve" smooth="yes"/>
      <point x="52" y="1424"/>
      <point x="444" y="1556"/>
      <point x="780" y="1556" type="curve" smooth="yes"/>
      <point x="926" y="1556"/>
      <point x="1096" y="1534"/>
      <point x="1228" y="1452" type="curve" smooth="no"/>
      <point x="1367.36" y="1312.64"/>
      <point x="1412.24" y="1261.64"/>
      <point x="1424" y="1104" type="curve" smooth="no"/>
      <point x="1388" y="1068" type="line" smooth="no"/>
      <point x="1234" y="1062"/>
      <point x="1088" y="1060"/>
      <point x="928" y="1060" type="curve" smooth="yes"/>
      <point x="792" y="1060"/>
      <point x="880" y="1156"/>
      <point x="756" y="1156" type="curve" smooth="yes"/>
      <point x="742" y="1156"/>
      <point x="632" y="1144"/>
      <point x="632" y="1092" type="curve" smooth="yes"/>
      <point x="632" y="1028"/>
      <point x="764" y="1012"/>
      <point x="810" y="996" type="curve" smooth="no"/>
      <point x="1116.2" y="918.343"/>
      <point x="1464" y="860.839"/>
      <point x="1464" y="486" type="curve" smooth="yes"/>
      <point x="1464" y="30"/>
      <point x="1050" y="-44"/>
    </contour>
  </outline>
</glyph>
<glyph name="T" format="1">
  <advance width="1318"/>
  <unicode hex="0054"/>
  <outline>
    <contour>
      <point x="-16" y="1198" type="curve" smooth="yes"/>
      <point x="-16" y="1232"/>
      <point x="-12" y="1272"/>
      <point x="-12" y="1300" type="curve" smooth="yes"/>
      <point x="-12" y="1316"/>
      <point x="-16" y="1350"/>
      <point x="-16" y="1390" type="curve" smooth="yes"/>
      <point x="-16" y="1444"/>
      <point x="-14" y="1496"/>
      <point x="4" y="1496" type="curve" smooth="yes"/>
      <point x="6" y="1496"/>
      <point x="12" y="1496"/>
      <point x="18" y="1494" type="curve" smooth="no"/>
      <point x="434" y="1494"/>
      <point x="842" y="1504"/>
      <point x="1252" y="1504" type="curve" smooth="yes"/>
      <point x="1324" y="1504"/>
      <point x="1330" y="1492"/>
      <point x="1330" y="1460" type="curve" smooth="yes"/>
      <point x="1330" y="1432" type="line" smooth="yes"/>
      <point x="1330" y="1328"/>
      <point x="1332" y="1230"/>
      <point x="1332" y="1124" type="curve" smooth="yes"/>
      <point x="1332" y="1096"/>
      <point x="1328" y="1072"/>
      <point x="1304" y="1072" type="curve" smooth="yes"/>
      <point x="1192" y="1072"/>
      <point x="1082" y="1076"/>
      <point x="970" y="1076" type="curve" smooth="no"/>
      <point x="970" y="4" type="line" smooth="no"/>
      <point x="966" y="-14"/>
      <point x="958" y="-26"/>
      <point x="936" y="-28" type="curve" smooth="no"/>
      <point x="866" y="-28"/>
      <point x="802" y="-26"/>
      <point x="732" y="-26" type="curve" smooth="no"/>
      <point x="732" y="-26"/>
      <point x="730" y="-26"/>
      <point x="728" y="-28" type="curve" smooth="no"/>
      <point x="642" y="-28"/>
      <point x="566" y="-26"/>
      <point x="486" y="-26" type="curve" smooth="yes"/>
      <point x="426" y="-26" type="line" smooth="no"/>
      <point x="406" y="-28"/>
      <point x="386" y="-28"/>
      <point x="368" y="-28" type="curve" smooth="no"/>
      <point x="328" y="20" type="line" smooth="no"/>
      <point x="328" y="324"/>
      <point x="348" y="620"/>
      <point x="348" y="924" type="curve" smooth="no"/>
      <point x="346" y="974"/>
      <point x="354" y="1060"/>
      <point x="298" y="1060" type="curve" smooth="yes"/>
      <point x="12" y="1060" type="line" smooth="no"/>
      <point x="-10" y="1066"/>
      <point x="-16" y="1136"/>
    </contour>
  </outline>
</glyph>
<glyph name="U" format="1">
  <advance width="1614"/>
  <unicode hex="0055"/>
  <outline>
    <contour>
      <point x="92" y="498" type="curve" smooth="no"/>
      <point x="94" y="744"/>
      <point x="96" y="982"/>
      <point x="96" y="1232" type="curve" smooth="yes"/>
      <point x="96" y="1244" type="line" smooth="yes"/>
      <point x="96" y="1266"/>
      <point x="92" y="1314"/>
      <point x="92" y="1366" type="curve" smooth="yes"/>
      <point x="92" y="1424"/>
      <point x="94" y="1488"/>
      <point x="112" y="1502" type="curve" smooth="no"/>
      <point x="122" y="1502"/>
      <point x="132" y="1500"/>
      <point x="142" y="1500" type="curve" smooth="yes"/>
      <point x="268" y="1506"/>
      <point x="398" y="1508"/>
      <point x="532" y="1508" type="curve" smooth="yes"/>
      <point x="668" y="1508" type="line" smooth="no"/>
      <point x="684" y="1506"/>
      <point x="698" y="1496"/>
      <point x="708" y="1496" type="curve" smooth="no"/>
      <point x="712.014" y="1312.71"/>
      <point x="719.993" y="1135.31"/>
      <point x="718" y="946" type="curve" smooth="no"/>
      <point x="718" y="556" type="line" smooth="yes"/>
      <point x="718" y="482"/>
      <point x="720" y="380"/>
      <point x="806" y="380" type="curve" smooth="yes"/>
      <point x="864" y="380"/>
      <point x="900" y="438"/>
      <point x="900" y="498" type="curve" smooth="yes"/>
      <point x="900" y="864" type="line" smooth="no"/>
      <point x="898" y="1014"/>
      <point x="906" y="1150"/>
      <point x="902" y="1300" type="curve" smooth="no"/>
      <point x="902" y="1372" type="line" smooth="yes"/>
      <point x="902" y="1394"/>
      <point x="898" y="1416"/>
      <point x="898" y="1440" type="curve" smooth="yes"/>
      <point x="898" y="1488" type="line" smooth="no"/>
      <point x="900" y="1504"/>
      <point x="914" y="1514"/>
      <point x="924" y="1516" type="curve" smooth="no"/>
      <point x="1122" y="1516"/>
      <point x="1308" y="1514"/>
      <point x="1500" y="1512" type="curve" smooth="no"/>
      <point x="1500" y="1496" type="line" smooth="no"/>
      <point x="1544" y="1496" type="line" smooth="no"/>
      <point x="1538" y="1336"/>
      <point x="1536" y="1160"/>
      <point x="1536" y="1000" type="curve" smooth="yes"/>
      <point x="1536" y="776" type="line" smooth="yes"/>
      <point x="1536" y="686"/>
      <point x="1532" y="590"/>
      <point x="1532" y="500" type="curve" smooth="yes"/>
      <point x="1532" y="52"/>
      <point x="1170" y="-60"/>
      <point x="820" y="-60" type="curve" smooth="yes"/>
      <point x="488" y="-60"/>
      <point x="108" y="42"/>
    </contour>
  </outline>
</glyph>
<glyph name="X" format="1">
  <advance width="1600"/>
  <unicode hex="0058"/>
  <outline>
    <contour>
      <point x="-36" y="0" type="curve" smooth="yes"/>
      <point x="-36" y="22"/>
      <point x="-22" y="50"/>
      <point x="0" y="84" type="curve" smooth="yes"/>
      <point x="144.395" y="304.938"/>
      <point x="285.175" y="529.492"/>
      <point x="428" y="752" type="curve" smooth="no"/>
      <point x="286.849" y="994.849"/>
      <point x="145.693" y="1237.69"/>
      <point x="0" y="1476" type="curve" smooth="no"/>
      <point x="0" y="1486" type="line" smooth="yes"/>
      <point x="0" y="1494"/>
      <point x="4" y="1500"/>
      <point x="12" y="1506" type="curve" smooth="no"/>
      <point x="140" y="1506"/>
      <point x="264" y="1500"/>
      <point x="392" y="1500" type="curve" smooth="no"/>
      <point x="422" y="1502"/>
      <point x="450" y="1498"/>
      <point x="480" y="1498" type="curve" smooth="yes"/>
      <point x="550" y="1498" type="line" smooth="no"/>
      <point x="572" y="1500"/>
      <point x="596" y="1500"/>
      <point x="620" y="1500" type="curve" smooth="no"/>
      <point x="638" y="1496"/>
      <point x="680" y="1422"/>
      <point x="714" y="1344" type="curve" smooth="yes"/>
      <point x="814.891" y="1105.53" type="line" smooth="no"/>
      <point x="849.039" y="1183.38"/>
      <point x="886.422" y="1259.58"/>
      <point x="922" y="1336" type="curve" smooth="yes"/>
      <point x="960" y="1416" type="line" smooth="yes"/>
      <point x="982" y="1464"/>
      <point x="1002" y="1500"/>
      <point x="1012" y="1500" type="curve" smooth="yes"/>
      <point x="1014" y="1500"/>
      <point x="1018" y="1498"/>
      <point x="1024" y="1496" type="curve" smooth="no"/>
      <point x="1214" y="1502"/>
      <point x="1400" y="1512"/>
      <point x="1592" y="1512" type="curve" smooth="no"/>
      <point x="1610" y="1508"/>
      <point x="1620" y="1494"/>
      <point x="1620" y="1468" type="curve" smooth="yes"/>
      <point x="1620" y="1456" type="line" smooth="no"/>
      <point x="1469.4" y="1217.93"/>
      <point x="1317.88" y="980.79"/>
      <point x="1170" y="740" type="curve" smooth="no"/>
      <point x="1369.55" y="433.005" type="line" smooth="yes"/>
      <point x="1457.65" y="297.112"/>
      <point x="1544.34" y="160.336"/>
      <point x="1632" y="24" type="curve" smooth="no"/>
      <point x="1632" y="4" type="line" smooth="yes"/>
      <point x="1632" y="-20"/>
      <point x="1610" y="-32"/>
      <point x="1570" y="-32" type="curve" smooth="yes"/>
      <point x="1410" y="-32"/>
      <point x="1252" y="-36"/>
      <point x="1100" y="-36" type="curve" smooth="yes"/>
      <point x="1052" y="-36" type="line" smooth="yes"/>
      <point x="1020" y="-36"/>
      <point x="994" y="-32"/>
      <point x="972" y="-16" type="curve" smooth="no"/>
      <point x="789.184" y="370.889" type="line" smooth="no"/>
      <point x="744.049" y="273.272"/>
      <point x="653.646" y="10.7315"/>
      <point x="562" y="-30" type="curve" smooth="no"/>
      <point x="450" y="-28"/>
      <point x="346" y="-26"/>
      <point x="234" y="-26" type="curve" smooth="yes"/>
      <point x="148" y="-26"/>
      <point x="74" y="-28"/>
      <point x="-12" y="-28" type="curve" smooth="no"/>
      <point x="-28" y="-22"/>
      <point x="-36" y="-14"/>
    </contour>
  </outline>
</glyph>
<glyph name="Y" format="1">
  <advance width="1524"/>
  <unicode hex="0059"/>
  <outline>
    <contour>
      <point x="1568" y="1462" type="curve" smooth="no"/>
      <point x="1405.66" y="1139.45"/>
      <point x="1230.28" y="827.797"/>
      <point x="1072" y="500" type="curve" smooth="no"/>
      <point x="1072" y="0" type="line" smooth="no"/>
      <point x="1066" y="-22"/>
      <point x="1058" y="-32"/>
      <point x="1032" y="-32" type="curve" smooth="yes"/>
      <point x="842" y="-32"/>
      <point x="664" y="-36"/>
      <point x="468" y="-36" type="curve" smooth="no"/>
      <point x="438" y="-6"/>
      <point x="432" y="24"/>
      <point x="432" y="48" type="curve" smooth="no"/>
      <point x="442" y="96"/>
      <point x="436" y="168"/>
      <point x="436" y="224" type="curve" smooth="yes"/>
      <point x="436" y="296" type="line" smooth="yes"/>
      <point x="436" y="468"/>
      <point x="400" y="604"/>
      <point x="336" y="726" type="curve" smooth="no"/>
      <point x="260.681" y="877.348"/>
      <point x="191.947" y="1032.74"/>
      <point x="116.289" y="1183.75" type="curve" smooth="no"/>
      <point x="-55.062" y="1471.02" type="line" smooth="no"/>
      <point x="-55.062" y="1489.02"/>
      <point x="-18" y="1506"/>
      <point x="8" y="1506" type="curve" smooth="yes"/>
      <point x="260" y="1506" type="line" smooth="yes"/>
      <point x="364" y="1506"/>
      <point x="470" y="1504"/>
      <point x="572" y="1504" type="curve" smooth="no"/>
      <point x="638.868" y="1493.71"/>
      <point x="756.391" y="1026.98"/>
      <point x="786.793" y="922.447" type="curve" smooth="no"/>
      <point x="970" y="1508" type="line" smooth="no"/>
      <point x="1534" y="1508" type="line" smooth="no"/>
      <point x="1552" y="1506"/>
      <point x="1560" y="1496"/>
    </contour>
  </outline>
</glyph>
<glyph name="bracketleft" format="1">
  <advance width="1034"/>
  <unicode hex="005b"/>
  <outline>
    <contour>
      <point x="160" y="-62" type="curve" smooth="yes"/>
      <point x="160" y="-36" type="line" smooth="yes"/>
      <point x="160" y="468"/>
      <point x="158" y="978"/>
      <point x="182" y="1484" type="curve" smooth="no"/>
      <point x="182" y="1506"/>
      <point x="208" y="1510"/>
      <point x="234" y="1510" type="curve" smooth="yes"/>
      <point x="854" y="1510" type="line" smooth="yes"/>
      <point x="962" y="1510"/>
      <point x="980" y="1474"/>
      <point x="980" y="1368" type="curve" smooth="yes"/>
      <point x="980" y="1314"/>
      <point x="978" y="1148"/>
      <point x="958" y="1148" type="curve" smooth="no"/>
      <point x="958" y="1148" type="line" smooth="no"/>
      <point x="932" y="1148"/>
      <point x="896" y="1146"/>
      <point x="866" y="1146" type="curve" smooth="yes"/>
      <point x="794" y="1146"/>
      <point x="726" y="1150"/>
      <point x="652" y="1156" type="curve" smooth="no"/>
      <point x="652" y="64" type="line" smooth="no"/>
      <point x="740" y="64"/>
      <point x="822" y="68"/>
      <point x="912" y="68" type="curve" smooth="yes"/>
      <point x="950" y="68" type="line" smooth="no"/>
      <point x="980" y="64"/>
      <point x="984" y="-14"/>
      <point x="984" y="-88" type="curve" smooth="yes"/>
      <point x="984" y="-166" type="line" smooth="yes"/>
      <point x="984" y="-178"/>
      <point x="984" y="-188"/>
      <point x="982" y="-198" type="curve" smooth="no"/>
      <point x="982" y="-212"/>
      <point x="984" y="-232"/>
      <point x="984" y="-250" type="curve" smooth="yes"/>
      <point x="984" y="-280"/>
      <point x="982" y="-310"/>
      <point x="944" y="-318" type="curve" smooth="no"/>
      <point x="698" y="-318"/>
      <point x="450" y="-326"/>
      <point x="204" y="-326" type="curve" smooth="no"/>
      <point x="160" y="-276" type="line" smooth="no"/>
      <point x="160" y="-262"/>
      <point x="160" y="-248"/>
      <point x="158" y="-232" type="curve" smooth="no"/>
      <point x="158" y="-162" type="line" smooth="yes"/>
      <point x="158" y="-130"/>
      <point x="160" y="-96"/>
    </contour>
  </outline>
</glyph>
<glyph name="bracketright" format="1">
  <advance width="1036"/>
  <unicode hex="005d"/>
  <outline>
    <contour>
      <point x="852" y="-262" type="line" smooth="yes"/>
      <point x="852" y="-337.455"/>
      <point x="726.515" y="-318"/>
      <point x="648" y="-318" type="curve" smooth="yes"/>
      <point x="624" y="-318" type="line" smooth="no"/>
      <point x="534" y="-316"/>
      <point x="444" y="-318"/>
      <point x="356" y="-316" type="curve" smooth="no"/>
      <point x="92" y="-316" type="line" smooth="no"/>
      <point x="48" y="-306"/>
      <point x="58" y="-112"/>
      <point x="58" y="-16" type="curve" smooth="yes"/>
      <point x="58" y="54"/>
      <point x="70" y="60"/>
      <point x="104" y="60" type="curve" smooth="yes"/>
      <point x="388" y="60" type="line" smooth="no"/>
      <point x="388" y="154" type="line" smooth="yes"/>
      <point x="388" y="484"/>
      <point x="382" y="798"/>
      <point x="376" y="1128" type="curve" smooth="no"/>
      <point x="252" y="1128" type="line" smooth="yes"/>
      <point x="196" y="1128"/>
      <point x="140" y="1124"/>
      <point x="84" y="1124" type="curve" smooth="no"/>
      <point x="74" y="1134"/>
      <point x="62" y="1148"/>
      <point x="50" y="1164" type="curve" smooth="no"/>
      <point x="50" y="1212" type="line" smooth="yes"/>
      <point x="50" y="1282"/>
      <point x="52" y="1342"/>
      <point x="52" y="1412" type="curve" smooth="yes"/>
      <point x="52" y="1426"/>
      <point x="50" y="1440"/>
      <point x="50" y="1454" type="curve" smooth="yes"/>
      <point x="50" y="1484"/>
      <point x="54" y="1512"/>
      <point x="76" y="1528" type="curve" smooth="no"/>
      <point x="102" y="1528" type="line" smooth="yes"/>
      <point x="182" y="1528"/>
      <point x="264" y="1524"/>
      <point x="344" y="1524" type="curve" smooth="yes"/>
      <point x="434" y="1524"/>
      <point x="526" y="1528"/>
      <point x="616" y="1528" type="curve" smooth="yes"/>
      <point x="696" y="1528"/>
      <point x="776" y="1516"/>
      <point x="856" y="1516" type="curve" smooth="yes"/>
      <point x="862" y="1516"/>
      <point x="866" y="1518"/>
      <point x="872" y="1520" type="curve" smooth="no"/>
      <point x="872" y="1504"/>
      <point x="872" y="1490"/>
      <point x="874" y="1476" type="curve" smooth="no"/>
      <point x="874" y="1428" type="line" smooth="yes"/>
      <point x="874" y="1364"/>
      <point x="872" y="1308"/>
      <point x="872" y="1244" type="curve" smooth="yes"/>
      <point x="872" y="1214" type="line" smooth="no"/>
      <point x="874" y="750"/>
      <point x="852" y="284"/>
      <point x="852" y="-186" type="curve" smooth="yes"/>
    </contour>
  </outline>
</glyph>
<glyph name="asciicircum" format="1">
  <advance width="1274"/>
  <unicode hex="005e"/>
  <outline>
    <contour>
      <point x="138.44" y="758.748" type="curve" smooth="no"/>
      <point x="503.3" y="1519.21" type="line" smooth="no"/>
      <point x="765.832" y="1519.62" type="line" smooth="no"/>
      <point x="1146" y="776" type="line" smooth="no"/>
      <point x="1146" y="734"/>
      <point x="1086" y="728"/>
      <point x="980" y="728" type="curve" smooth="yes"/>
      <point x="860" y="728" type="line" smooth="yes"/>
      <point x="844" y="728"/>
      <point x="834" y="746"/>
      <point x="824" y="754" type="curve" smooth="no"/>
      <point x="636" y="1144" type="line" smooth="no"/>
      <point x="440.504" y="736.008" type="line" smooth="no"/>
      <point x="352.504" y="736.008"/>
      <point x="250" y="740"/>
      <point x="164" y="740" type="curve" smooth="no"/>
      <point x="148" y="742"/>
      <point x="138.44" y="752.748"/>
    </contour>
  </outline>
</glyph>
<glyph name="underscore" format="1">
  <advance width="1050"/>
  <unicode hex="005f"/>
  <outline>
    <contour>
      <point x="-24" y="-194" type="curve" smooth="yes"/>
      <point x="-24" y="-148"/>
      <point x="-20" y="-122"/>
      <point x="10" y="-122" type="curve" smooth="yes"/>
      <point x="222" y="-122" type="line" smooth="yes"/>
      <point x="402" y="-122"/>
      <point x="640" y="-120"/>
      <point x="816" y="-120" type="curve" smooth="yes"/>
      <point x="1056" y="-120"/>
      <point x="1064" y="-110"/>
      <point x="1064" y="-224" type="curve" smooth="yes"/>
      <point x="1064" y="-246"/>
      <point x="1056" y="-268"/>
      <point x="1036" y="-268" type="curve" smooth="yes"/>
      <point x="870" y="-268" type="line" smooth="yes"/>
      <point x="582" y="-268"/>
      <point x="302" y="-276"/>
      <point x="14" y="-290" type="curve" smooth="no"/>
      <point x="-18" y="-248" type="line" smooth="no"/>
      <point x="-20" y="-232"/>
      <point x="-24" y="-216"/>
    </contour>
  </outline>
</glyph>
<glyph name="grave" format="1">
  <advance width="632"/>
  <unicode hex="0060"/>
  <outline>
    <contour>
      <point x="-128" y="1756" type="curve" smooth="yes"/>
      <point x="-128" y="1766"/>
      <point x="-120" y="1780"/>
      <point x="-104" y="1788" type="curve" smooth="no"/>
      <point x="40" y="1778"/>
      <point x="180" y="1772"/>
      <point x="324" y="1772" type="curve" smooth="yes"/>
      <point x="364" y="1772" type="line" smooth="no"/>
      <point x="374" y="1770"/>
      <point x="392" y="1746"/>
      <point x="416" y="1708" type="curve" smooth="yes"/>
      <point x="460.031" y="1635.36"/>
      <point x="504.417" y="1563.08"/>
      <point x="550" y="1492" type="curve" smooth="no"/>
      <point x="550" y="1470" type="line" smooth="no"/>
      <point x="564" y="1450"/>
      <point x="596" y="1422"/>
      <point x="596" y="1408" type="curve" smooth="yes"/>
      <point x="596" y="1374"/>
      <point x="556" y="1376"/>
      <point x="516" y="1376" type="curve" smooth="yes"/>
      <point x="192" y="1376" type="line" smooth="no"/>
      <point x="125.527" y="1456.19"/>
      <point x="57.3212" y="1530.65"/>
      <point x="-12" y="1608" type="curve" smooth="no"/>
      <point x="-54" y="1652" type="line" smooth="no"/>
      <point x="-96" y="1694"/>
      <point x="-128" y="1734"/>
    </contour>
  </outline>
</glyph>
<glyph name="b" format="1">
  <advance width="1408"/>
  <unicode hex="0062"/>
  <outline>
    <contour>
      <point x="1142" y="748" type="line" smooth="no"/>
      <point x="1284.28" y="748"/>
      <point x="1360" y="553.788"/>
      <point x="1360" y="436" type="curve" smooth="no"/>
      <point x="1354" y="272"/>
      <point x="1260" y="146"/>
      <point x="1116" y="94" type="curve" smooth="no"/>
      <point x="1032" y="44" type="line" smooth="no"/>
      <point x="88" y="44" type="line" smooth="no"/>
      <point x="88" y="1388" type="line" smooth="no"/>
      <point x="848" y="1388" type="line" smooth="yes"/>
      <point x="976" y="1388"/>
      <point x="1104" y="1366"/>
      <point x="1206" y="1292" type="curve" smooth="no"/>
      <point x="1206" y="1292" type="line" smooth="no"/>
      <point x="1288" y="1238"/>
      <point x="1324" y="1130"/>
      <point x="1324" y="1030" type="curve" smooth="yes"/>
      <point x="1324" y="884.346"/>
      <point x="1253.42" y="814.849"/>
      <point x="1142" y="748" type="curve" smooth="no"/>
    </contour>
    <contour>
      <point x="624.418" y="619.933" type="curve" smooth="no"/>
      <point x="584.333" y="370.518" type="line" smooth="yes"/>
      <point x="584.333" y="364.518"/>
      <point x="612" y="356"/>
      <point x="622" y="354" type="curve" smooth="no"/>
      <point x="700" y="354" type="line" smooth="no"/>
      <point x="774" y="360"/>
      <point x="844" y="384"/>
      <point x="844" y="478" type="curve" smooth="yes"/>
      <point x="844" y="620.134"/>
      <point x="710.418" y="619.933"/>
    </contour>
    <contour>
      <point x="604" y="1060" type="curve" smooth="no"/>
      <point x="610" y="1026"/>
      <point x="612" y="994"/>
      <point x="612" y="956" type="curve" smooth="yes"/>
      <point x="612" y="936" type="line" smooth="yes"/>
      <point x="612" y="930"/>
      <point x="610" y="922"/>
      <point x="610" y="916" type="curve" smooth="yes"/>
      <point x="610" y="906"/>
      <point x="612" y="892"/>
      <point x="612" y="876" type="curve" smooth="yes"/>
      <point x="612" y="844" type="line" smooth="yes"/>
      <point x="612" y="838"/>
      <point x="614" y="832"/>
      <point x="620" y="830" type="curve" smooth="no"/>
      <point x="692" y="830"/>
      <point x="826" y="830"/>
      <point x="826" y="968" type="curve" smooth="yes"/>
      <point x="826" y="1064"/>
      <point x="726" y="1086"/>
      <point x="642" y="1086" type="curve" smooth="no"/>
      <point x="642" y="1086" type="line" smooth="no"/>
      <point x="638" y="1084"/>
      <point x="622" y="1084"/>
      <point x="620" y="1084" type="curve" smooth="no"/>
      <point x="620" y="1086" type="line" smooth="no"/>
      <point x="604" y="1080"/>
      <point x="604" y="1070"/>
    </contour>
  </outline>
</glyph>
<glyph name="c" format="1">
  <advance width="1390"/>
  <unicode hex="0063"/>
  <outline>
    <contour>
      <point x="728" y="8" type="curve" smooth="yes"/>
      <point x="270.569" y="8"/>
      <point x="36" y="329.931"/>
      <point x="36" y="746" type="curve" smooth="yes"/>
      <point x="36" y="760" type="line" smooth="no"/>
      <point x="46" y="868"/>
      <point x="50" y="960"/>
      <point x="104" y="1068" type="curve" smooth="no"/>
      <point x="104" y="1066" type="line" smooth="no"/>
      <point x="232" y="1332"/>
      <point x="484" y="1414"/>
      <point x="732" y="1414" type="curve" smooth="yes"/>
      <point x="1160" y="1414"/>
      <point x="1308" y="1198"/>
      <point x="1340" y="970" type="curve" smooth="no"/>
      <point x="1340" y="884" type="line" smooth="no"/>
      <point x="1334" y="854"/>
      <point x="1302" y="852"/>
      <point x="1260" y="852" type="curve" smooth="yes"/>
      <point x="832" y="852" type="line" smooth="no"/>
      <point x="832" y="938" type="line" smooth="no"/>
      <point x="826" y="978"/>
      <point x="794" y="1028"/>
      <point x="744" y="1028" type="curve" smooth="yes"/>
      <point x="602" y="1028"/>
      <point x="616" y="832"/>
      <point x="616" y="716" type="curve" smooth="yes"/>
      <point x="616" y="604" type="line" smooth="yes"/>
      <point x="616" y="564"/>
      <point x="620" y="412"/>
      <point x="724" y="412" type="curve" smooth="yes"/>
      <point x="810" y="412"/>
      <point x="796" y="538"/>
      <point x="840" y="582" type="curve" smooth="no"/>
      <point x="920" y="582"/>
      <point x="1000" y="580"/>
      <point x="1080" y="580" type="curve" smooth="yes"/>
      <point x="1136" y="580"/>
      <point x="1190" y="582"/>
      <point x="1246" y="582" type="curve" smooth="yes"/>
      <point x="1320" y="582" type="line" smooth="yes"/>
      <point x="1346" y="582"/>
      <point x="1354" y="566"/>
      <point x="1356" y="542" type="curve" smooth="no"/>
      <point x="1356" y="504" type="line" smooth="no"/>
      <point x="1326" y="228"/>
      <point x="1134" y="70"/>
      <point x="896" y="28" type="curve" smooth="no"/>
      <point x="896" y="22" type="line" smooth="no"/>
      <point x="848" y="12"/>
      <point x="778" y="8"/>
    </contour>
  </outline>
</glyph>
<glyph name="d" format="1">
  <advance width="1456"/>
  <unicode hex="0064"/>
  <outline>
    <contour>
      <point x="642" y="1388" type="line" smooth="yes"/>
      <point x="1073.24" y="1388"/>
      <point x="1412" y="1254.51"/>
      <point x="1412" y="720" type="curve" smooth="yes"/>
      <point x="1412" y="248"/>
      <point x="1064" y="60"/>
      <point x="788" y="44" type="curve" smooth="no"/>
      <point x="102" y="44" type="line" smooth="no"/>
      <point x="102" y="1372" type="line" smooth="no"/>
      <point x="108" y="1372"/>
      <point x="118" y="1370"/>
      <point x="124" y="1370" type="curve" smooth="yes"/>
      <point x="210.118" y="1370"/>
      <point x="298.78" y="1388"/>
      <point x="386" y="1388" type="curve" smooth="yes"/>
    </contour>
    <contour>
      <point x="654" y="356" type="line" smooth="yes"/>
      <point x="864.755" y="356"/>
      <point x="880" y="579.464"/>
      <point x="880" y="724" type="curve" smooth="yes"/>
      <point x="880" y="796" type="line" smooth="no"/>
      <point x="870" y="848"/>
      <point x="880" y="896"/>
      <point x="852" y="968" type="curve" smooth="no"/>
      <point x="852" y="968" type="line" smooth="no"/>
      <point x="798" y="1076"/>
      <point x="722" y="1086"/>
      <point x="636" y="1086" type="curve" smooth="no"/>
      <point x="636" y="1064" type="line" smooth="no"/>
      <point x="606" y="1064" type="line" smooth="no"/>
      <point x="606" y="356" type="line" smooth="no"/>
    </contour>
  </outline>
</glyph>
<glyph name="e" format="1">
  <advance width="1166"/>
  <unicode hex="0065"/>
  <outline>
    <contour>
      <point x="84" y="1292" type="line" smooth="yes"/>
      <point x="84" y="1348"/>
      <point x="80" y="1376"/>
      <point x="118" y="1376" type="curve" smooth="yes"/>
      <point x="142" y="1376" type="line" smooth="yes"/>
      <point x="152" y="1376"/>
      <point x="158" y="1376"/>
      <point x="164" y="1374" type="curve" smooth="no"/>
      <point x="216" y="1374" type="line" smooth="yes"/>
      <point x="418" y="1374"/>
      <point x="624" y="1384"/>
      <point x="828" y="1384" type="curve" smooth="yes"/>
      <point x="1094" y="1384" type="line" smooth="no"/>
      <point x="1112" y="1382"/>
      <point x="1120" y="1372"/>
      <point x="1120" y="1358" type="curve" smooth="yes"/>
      <point x="1120" y="1024" type="line" smooth="no"/>
      <point x="1118" y="1008"/>
      <point x="1110" y="1006"/>
      <point x="1092" y="992" type="curve" smooth="no"/>
      <point x="628" y="992" type="line" smooth="no"/>
      <point x="628" y="868" type="line" smooth="no"/>
      <point x="672" y="868" type="line" smooth="yes"/>
      <point x="790" y="868"/>
      <point x="906" y="876"/>
      <point x="1032" y="876" type="curve" smooth="yes"/>
      <point x="1072" y="876"/>
      <point x="1080" y="858"/>
      <point x="1080" y="834" type="curve" smooth="yes"/>
      <point x="1080" y="824"/>
      <point x="1076" y="810"/>
      <point x="1076" y="800" type="curve" smooth="yes"/>
      <point x="1076" y="762" type="line" smooth="yes"/>
      <point x="1076" y="752"/>
      <point x="1078" y="740"/>
      <point x="1078" y="724" type="curve" smooth="yes"/>
      <point x="1078" y="696" type="line" smooth="yes"/>
      <point x="1078" y="654"/>
      <point x="1082" y="648"/>
      <point x="1082" y="614" type="curve" smooth="yes"/>
      <point x="1082" y="588" type="line" smooth="no"/>
      <point x="1076" y="574"/>
      <point x="1074" y="568"/>
      <point x="1064" y="568" type="curve" smooth="no"/>
      <point x="1064" y="570" type="line" smooth="no"/>
      <point x="984" y="570"/>
      <point x="894" y="560"/>
      <point x="792" y="560" type="curve" smooth="yes"/>
      <point x="632" y="560" type="line" smooth="no"/>
      <point x="632" y="432" type="line" smooth="no"/>
      <point x="648" y="432"/>
      <point x="664" y="430"/>
      <point x="680" y="430" type="curve" smooth="yes"/>
      <point x="768" y="430"/>
      <point x="860" y="436"/>
      <point x="940" y="436" type="curve" smooth="yes"/>
      <point x="1068" y="436" type="line" smooth="yes"/>
      <point x="1096" y="436"/>
      <point x="1132" y="438"/>
      <point x="1142" y="412" type="curve" smooth="no"/>
      <point x="1142" y="92" type="line" smooth="yes"/>
      <point x="1142" y="66"/>
      <point x="1136" y="50"/>
      <point x="1104" y="48" type="curve" smooth="no"/>
      <point x="114" y="48" type="line" smooth="no"/>
      <point x="84" y="74" type="line" smooth="no"/>
    </contour>
  </outline>
</glyph>
<glyph name="f" format="1">
  <advance width="1126"/>
  <unicode hex="0066"/>
  <outline>
    <contour>
      <point x="88" y="84" type="line" smooth="no"/>
      <point x="88" y="1352" type="line" smooth="yes"/>
      <point x="88" y="1386"/>
      <point x="116" y="1384"/>
      <point x="148" y="1384" type="curve" smooth="yes"/>
      <point x="1092" y="1384" type="line" smooth="yes"/>
      <point x="1124" y="1384"/>
      <point x="1118" y="1356"/>
      <point x="1118" y="1344" type="curve" smooth="yes"/>
      <point x="1118" y="1004" type="line" smooth="no"/>
      <point x="650" y="1004" type="line" smooth="no"/>
      <point x="650" y="968" type="line" smooth="yes"/>
      <point x="650" y="946"/>
      <point x="652" y="930"/>
      <point x="654" y="904" type="curve" smooth="no"/>
      <point x="748" y="904" type="line" smooth="no"/>
      <point x="782" y="906"/>
      <point x="818" y="916"/>
      <point x="856" y="916" type="curve" smooth="yes"/>
      <point x="938" y="916" type="line" smooth="yes"/>
      <point x="952" y="916"/>
      <point x="966" y="916"/>
      <point x="980" y="918" type="curve" smooth="no"/>
      <point x="1036" y="918"/>
      <point x="1088" y="902"/>
      <point x="1092" y="886" type="curve" smooth="no"/>
      <point x="1092" y="828" type="line" smooth="yes"/>
      <point x="1092" y="790"/>
      <point x="1088" y="750"/>
      <point x="1088" y="710" type="curve" smooth="yes"/>
      <point x="1088" y="620" type="line" smooth="no"/>
      <point x="1090" y="612"/>
      <point x="1090" y="602"/>
      <point x="1090" y="592" type="curve" smooth="yes"/>
      <point x="1090" y="552" type="line" smooth="no"/>
      <point x="1086" y="522"/>
      <point x="1056" y="520"/>
      <point x="1028" y="520" type="curve" smooth="yes"/>
      <point x="964" y="520" type="line" smooth="yes"/>
      <point x="896" y="520"/>
      <point x="838" y="516"/>
      <point x="768" y="516" type="curve" smooth="yes"/>
      <point x="656" y="516" type="line" smooth="no"/>
      <point x="656" y="40" type="line" smooth="no"/>
      <point x="114" y="40" type="line" smooth="no"/>
    </contour>
  </outline>
</glyph>
<glyph name="h" format="1">
  <advance width="1484"/>
  <unicode hex="0068"/>
  <outline>
    <contour>
      <point x="1380" y="1334" type="curve" smooth="yes"/>
      <point x="1380" y="104" type="line" smooth="yes"/>
      <point x="1380" y="70"/>
      <point x="1378" y="36"/>
      <point x="1350" y="36" type="curve" smooth="yes"/>
      <point x="840" y="36" type="line" smooth="no"/>
      <point x="840" y="58" type="line" smooth="no"/>
      <point x="834" y="64"/>
      <point x="814" y="70"/>
      <point x="808" y="80" type="curve" smooth="no"/>
      <point x="808" y="484" type="line" smooth="yes"/>
      <point x="808" y="514"/>
      <point x="808" y="512"/>
      <point x="776" y="512" type="curve" smooth="yes"/>
      <point x="708" y="512" type="line" smooth="yes"/>
      <point x="690" y="512"/>
      <point x="668" y="510"/>
      <point x="652" y="508" type="curve" smooth="no"/>
      <point x="652" y="76" type="line" smooth="no"/>
      <point x="646" y="50"/>
      <point x="628" y="48"/>
      <point x="602" y="48" type="curve" smooth="yes"/>
      <point x="556" y="48" type="line" smooth="yes"/>
      <point x="460" y="48"/>
      <point x="358" y="44"/>
      <point x="256" y="44" type="curve" smooth="yes"/>
      <point x="124" y="44" type="line" smooth="yes"/>
      <point x="104" y="44"/>
      <point x="80.6852" y="52.0061"/>
      <point x="80.6852" y="92.0061" type="curve" smooth="yes"/>
      <point x="86.5187" y="1352.04" type="line" smooth="yes"/>
      <point x="86.5187" y="1362.04"/>
      <point x="102" y="1370"/>
      <point x="112" y="1378" type="curve" smooth="no"/>
      <point x="650" y="1378" type="line" smooth="no"/>
      <point x="650" y="948" type="line" smooth="no"/>
      <point x="824" y="948" type="line" smooth="no"/>
      <point x="824" y="1388" type="line" smooth="no"/>
      <point x="1334" y="1388" type="line" smooth="yes"/>
      <point x="1364" y="1388"/>
      <point x="1380" y="1380"/>
    </contour>
  </outline>
</glyph>
<glyph name="i" format="1">
  <advance width="744"/>
  <unicode hex="0069"/>
  <outline>
    <contour>
      <point x="72" y="38" type="line" smooth="no"/>
      <point x="72" y="1352" type="line" smooth="no"/>
      <point x="74" y="1366"/>
      <point x="96" y="1366"/>
      <point x="106" y="1376" type="curve" smooth="no"/>
      <point x="644" y="1376" type="line" smooth="no"/>
      <point x="644" y="74" type="line" smooth="no"/>
      <point x="638" y="48"/>
      <point x="634" y="38"/>
      <point x="620" y="38" type="curve" smooth="yes"/>
    </contour>
  </outline>
</glyph>
<glyph name="j" format="1">
  <advance width="1228"/>
  <unicode hex="006a"/>
  <outline>
    <contour>
      <point x="1136" y="480" type="line" smooth="yes"/>
      <point x="1136" y="175.405"/>
      <point x="819.88" y="20"/>
      <point x="580" y="20" type="curve" smooth="yes"/>
      <point x="548" y="20" type="line" smooth="yes"/>
      <point x="532" y="20"/>
      <point x="516" y="18"/>
      <point x="500" y="18" type="curve" smooth="yes"/>
      <point x="296" y="18"/>
      <point x="172" y="76"/>
      <point x="86" y="168" type="curve" smooth="no"/>
      <point x="86" y="166" type="line" smooth="no"/>
      <point x="12" y="246"/>
      <point x="-24" y="332"/>
      <point x="-24" y="444" type="curve" smooth="yes"/>
      <point x="-24" y="480" type="line" smooth="yes"/>
      <point x="-24" y="506"/>
      <point x="-22" y="524"/>
      <point x="4" y="524" type="curve" smooth="yes"/>
      <point x="76" y="524" type="line" smooth="yes"/>
      <point x="186" y="524"/>
      <point x="296" y="528"/>
      <point x="406" y="528" type="curve" smooth="yes"/>
      <point x="510" y="528"/>
      <point x="432" y="412"/>
      <point x="512" y="412" type="curve" smooth="yes"/>
      <point x="574" y="412"/>
      <point x="558" y="490"/>
      <point x="566" y="532" type="curve" smooth="no"/>
      <point x="566" y="598" type="line" smooth="yes"/>
      <point x="566" y="780"/>
      <point x="570" y="958"/>
      <point x="570" y="1144" type="curve" smooth="yes"/>
      <point x="570" y="1208" type="line" smooth="yes"/>
      <point x="570" y="1230"/>
      <point x="568" y="1246"/>
      <point x="568" y="1268" type="curve" smooth="yes"/>
      <point x="568" y="1328" type="line" smooth="yes"/>
      <point x="568" y="1358"/>
      <point x="572" y="1372"/>
      <point x="600" y="1384" type="curve" smooth="no"/>
      <point x="1070" y="1384" type="line" smooth="yes"/>
      <point x="1104" y="1384"/>
      <point x="1130" y="1380"/>
      <point x="1136" y="1356" type="curve" smooth="no"/>
    </contour>
    <contour>
      <point x="572" y="530" type="line" smooth="no"/>
      <point x="568" y="530" type="line" smooth="no"/>
      <point x="568" y="536"/>
      <point x="578" y="536"/>
      <point x="572" y="536" type="curve" smooth="no"/>
    </contour>
  </outline>
</glyph>
<glyph name="k" format="1">
  <advance width="1470"/>
  <unicode hex="006b"/>
  <outline>
    <contour>
      <point x="112" y="36" type="line" smooth="no"/>
      <point x="105.016" y="47.6399"/>
      <point x="95.7476" y="62.5048"/>
      <point x="88" y="78" type="curve" smooth="no"/>
      <point x="88" y="1392" type="line" smooth="no"/>
      <point x="530" y="1392" type="line" smooth="yes"/>
      <point x="564" y="1392"/>
      <point x="634" y="1400"/>
      <point x="644" y="1350" type="curve" smooth="no"/>
      <point x="644" y="906" type="line" smooth="no"/>
      <point x="705.037" y="1028.96"/>
      <point x="763.276" y="1152.72"/>
      <point x="824" y="1276" type="curve" smooth="no"/>
      <point x="873.375" y="1381.48" type="line" smooth="no"/>
      <point x="968" y="1384" type="line" smooth="no"/>
      <point x="1008" y="1384"/>
      <point x="1050" y="1380"/>
      <point x="1088" y="1380" type="curve" smooth="yes"/>
      <point x="1164" y="1380" type="line" smooth="yes"/>
      <point x="1180" y="1380"/>
      <point x="1196" y="1382"/>
      <point x="1210" y="1382" type="curve" smooth="yes"/>
      <point x="1268" y="1382" type="line" smooth="no"/>
      <point x="1268" y="1382"/>
      <point x="1272" y="1382"/>
      <point x="1282" y="1384" type="curve" smooth="no"/>
      <point x="1326" y="1384"/>
      <point x="1444" y="1384"/>
      <point x="1444" y="1360" type="curve" smooth="yes"/>
      <point x="1444" y="1358"/>
      <point x="1438" y="1338"/>
      <point x="1426" y="1322" type="curve" smooth="no"/>
      <point x="1312.09" y="1141.65"/>
      <point x="1215.4" y="939.854"/>
      <point x="1094.84" y="764.486" type="curve" smooth="no"/>
      <point x="1485.89" y="90.2568" type="line" smooth="no"/>
      <point x="1485.89" y="72.2568"/>
      <point x="1488" y="56"/>
      <point x="1472" y="44" type="curve" smooth="no"/>
      <point x="1378" y="50"/>
      <point x="1288" y="50"/>
      <point x="1192" y="50" type="curve" smooth="yes"/>
      <point x="1142" y="50"/>
      <point x="1088" y="48"/>
      <point x="1038" y="48" type="curve" smooth="yes"/>
      <point x="902" y="48" type="line" smooth="no"/>
      <point x="902" y="76" type="line" smooth="no"/>
      <point x="858" y="150"/>
      <point x="798" y="226"/>
      <point x="756" y="306" type="curve" smooth="yes"/>
      <point x="644" y="520" type="line" smooth="no"/>
      <point x="644" y="76" type="line" smooth="no"/>
      <point x="632" y="42"/>
      <point x="584" y="36"/>
      <point x="534" y="36" type="curve" smooth="yes"/>
    </contour>
  </outline>
</glyph>
<glyph name="l" format="1">
  <advance width="1126"/>
  <unicode hex="006c"/>
  <outline>
    <contour>
      <point x="106" y="40" type="line" smooth="no"/>
      <point x="96.695" y="52.4067"/>
      <point x="96.7483" y="44.4028"/>
      <point x="82" y="68" type="curve" smooth="no"/>
      <point x="82" y="500" type="line" smooth="yes"/>
      <point x="82" y="672"/>
      <point x="96" y="848"/>
      <point x="96" y="1028" type="curve" smooth="yes"/>
      <point x="96" y="1074"/>
      <point x="88" y="1146"/>
      <point x="88" y="1216" type="curve" smooth="yes"/>
      <point x="88" y="1296"/>
      <point x="98" y="1366"/>
      <point x="122" y="1388" type="curve" smooth="no"/>
      <point x="226" y="1386"/>
      <point x="326" y="1384"/>
      <point x="432" y="1384" type="curve" smooth="yes"/>
      <point x="528" y="1384" type="line" smooth="yes"/>
      <point x="544" y="1384"/>
      <point x="562" y="1384"/>
      <point x="580" y="1382" type="curve" smooth="no"/>
      <point x="582" y="1384"/>
      <point x="586" y="1384"/>
      <point x="590" y="1384" type="curve" smooth="no"/>
      <point x="590" y="1384" type="line" smooth="no"/>
      <point x="596" y="1384"/>
      <point x="616" y="1380"/>
      <point x="632" y="1380" type="curve" smooth="no"/>
      <point x="632" y="1380" type="line" smooth="no"/>
      <point x="648" y="1378"/>
      <point x="660" y="1370"/>
      <point x="674" y="1338" type="curve" smooth="no"/>
      <point x="674" y="1324" type="line" smooth="yes"/>
      <point x="674" y="1302"/>
      <point x="672" y="1282"/>
      <point x="672" y="1260" type="curve" smooth="yes"/>
      <point x="672" y="1216" type="line" smooth="no"/>
      <point x="670" y="1204"/>
      <point x="648" y="1192"/>
      <point x="648" y="1178" type="curve" smooth="yes"/>
      <point x="648" y="448" type="line" smooth="no"/>
      <point x="1072" y="448" type="line" smooth="yes"/>
      <point x="1096" y="448"/>
      <point x="1120" y="448"/>
      <point x="1120" y="414" type="curve" smooth="yes"/>
      <point x="1120" y="80" type="line" smooth="no"/>
      <point x="1114" y="48"/>
      <point x="1072" y="40"/>
      <point x="1024" y="40" type="curve" smooth="yes"/>
    </contour>
  </outline>
</glyph>
<glyph name="m" format="1">
  <advance width="1972"/>
  <unicode hex="006d"/>
  <outline>
    <contour>
      <point x="820" y="1372" type="line" smooth="no"/>
      <point x="831.978" y="1375.99"/>
      <point x="850.332" y="1375.73"/>
      <point x="862.363" y="1378.41" type="curve" smooth="no"/>
      <point x="980.994" y="769.078" type="line" smooth="no"/>
      <point x="1136.77" y="1380.31" type="line" smooth="no"/>
      <point x="1839.99" y="1379.59" type="line" smooth="yes"/>
      <point x="1863.99" y="1379.59"/>
      <point x="1868" y="1322"/>
      <point x="1868" y="1262" type="curve" smooth="yes"/>
      <point x="1868" y="84" type="line" smooth="no"/>
      <point x="1862" y="38"/>
      <point x="1824" y="40"/>
      <point x="1792" y="40" type="curve" smooth="no"/>
      <point x="1792" y="40" type="line" smooth="no"/>
      <point x="1666" y="40"/>
      <point x="1536" y="36"/>
      <point x="1408" y="36" type="curve" smooth="no"/>
      <point x="1366" y="62"/>
      <point x="1358" y="164"/>
      <point x="1358" y="266" type="curve" smooth="yes"/>
      <point x="1358" y="362"/>
      <point x="1362" y="434"/>
      <point x="1362" y="516" type="curve" smooth="yes"/>
      <point x="1362" y="604" type="line" smooth="yes"/>
      <point x="1362" y="618"/>
      <point x="1360" y="634"/>
      <point x="1360" y="650" type="curve" smooth="yes"/>
      <point x="1360" y="686"/>
      <point x="1362" y="722"/>
      <point x="1364" y="760" type="curve" smooth="no"/>
      <point x="1364" y="684" type="line" smooth="no"/>
      <point x="1336" y="566"/>
      <point x="1284" y="442"/>
      <point x="1256" y="324" type="curve" smooth="yes"/>
      <point x="1196" y="68" type="line" smooth="no"/>
      <point x="1182" y="44"/>
      <point x="1138" y="40"/>
      <point x="1096" y="40" type="curve" smooth="yes"/>
      <point x="1016" y="40"/>
      <point x="960" y="44"/>
      <point x="890" y="44" type="curve" smooth="no"/>
      <point x="890" y="44" type="line" smooth="no"/>
      <point x="872" y="44"/>
      <point x="840" y="42"/>
      <point x="826" y="42" type="curve" smooth="yes"/>
      <point x="786" y="42"/>
      <point x="768" y="48"/>
      <point x="760" y="82" type="curve" smooth="yes"/>
      <point x="715.898" y="277.898"/>
      <point x="671.454" y="473.454"/>
      <point x="630" y="672" type="curve" smooth="yes"/>
      <point x="594" y="844" type="line" smooth="no"/>
      <point x="584" y="636"/>
      <point x="580" y="442"/>
      <point x="580" y="228" type="curve" smooth="yes"/>
      <point x="580" y="52" type="line" smooth="no"/>
      <point x="108" y="52" type="line" smooth="no"/>
      <point x="108" y="62"/>
      <point x="114" y="94"/>
      <point x="114" y="100" type="curve" smooth="yes"/>
      <point x="108" y="244"/>
      <point x="106" y="412"/>
      <point x="106" y="574" type="curve" smooth="yes"/>
      <point x="106" y="734"/>
      <point x="104" y="878"/>
      <point x="104" y="996" type="curve" smooth="yes"/>
      <point x="104" y="1350" type="line" smooth="yes"/>
      <point x="104" y="1366"/>
      <point x="106" y="1372"/>
      <point x="128" y="1388" type="curve" smooth="no"/>
      <point x="220" y="1388" type="line" smooth="yes"/>
      <point x="242" y="1388"/>
      <point x="270" y="1388"/>
      <point x="292" y="1390" type="curve" smooth="no"/>
      <point x="472" y="1390"/>
      <point x="624" y="1372"/>
      <point x="718" y="1372" type="curve" smooth="yes"/>
    </contour>
    <contour>
      <point x="842" y="1376" type="line" smooth="no"/>
      <point x="842" y="1376" type="line" smooth="no"/>
    </contour>
    <contour>
      <point x="1364" y="766" type="line" smooth="no"/>
      <point x="1364" y="768" type="line" smooth="no"/>
    </contour>
  </outline>
</glyph>
<glyph name="n" format="1">
  <advance width="1548"/>
  <unicode hex="006e"/>
  <outline>
    <contour>
      <point x="1416" y="1376" type="line" smooth="no"/>
      <point x="1457.42" y="1360.47"/>
      <point x="1438" y="1093.73"/>
      <point x="1438" y="1036" type="curve" smooth="no"/>
      <point x="1436" y="996"/>
      <point x="1436" y="958"/>
      <point x="1436" y="924" type="curve" smooth="yes"/>
      <point x="1436" y="818" type="line" smooth="yes"/>
      <point x="1436" y="682"/>
      <point x="1440" y="566"/>
      <point x="1440" y="446" type="curve" smooth="yes"/>
      <point x="1440" y="82" type="line" smooth="no"/>
      <point x="1436" y="50"/>
      <point x="1406" y="48"/>
      <point x="1384" y="48" type="curve" smooth="yes"/>
      <point x="824" y="48" type="line" smooth="no"/>
      <point x="814" y="50"/>
      <point x="794" y="86"/>
      <point x="778" y="132" type="curve" smooth="yes"/>
      <point x="711.536" y="318.678"/>
      <point x="638.119" y="504.209"/>
      <point x="580" y="696" type="curve" smooth="no"/>
      <point x="580" y="702" type="line" smooth="no"/>
      <point x="580" y="696" type="line" smooth="no"/>
      <point x="574" y="562"/>
      <point x="574" y="432"/>
      <point x="568" y="304" type="curve" smooth="no"/>
      <point x="568" y="100" type="line" smooth="yes"/>
      <point x="568" y="64"/>
      <point x="566" y="50"/>
      <point x="524" y="40" type="curve" smooth="no"/>
      <point x="112" y="40" type="line" smooth="no"/>
      <point x="68" y="84" type="line" smooth="no"/>
      <point x="78" y="416"/>
      <point x="74" y="788"/>
      <point x="84" y="1128" type="curve" smooth="no"/>
      <point x="84" y="1344" type="line" smooth="no"/>
      <point x="88" y="1358"/>
      <point x="92" y="1380"/>
      <point x="108" y="1380" type="curve" smooth="no"/>
      <point x="108" y="1376" type="line" smooth="no"/>
      <point x="246" y="1376"/>
      <point x="396" y="1384"/>
      <point x="540" y="1384" type="curve" smooth="yes"/>
      <point x="708" y="1384" type="line" smooth="no"/>
      <point x="724" y="1378"/>
      <point x="732" y="1376"/>
      <point x="732" y="1360" type="curve" smooth="no"/>
      <point x="812.852" y="1144.85"/>
      <point x="887.153" y="923.153"/>
      <point x="964" y="704" type="curve" smooth="no"/>
      <point x="964" y="852" type="line" smooth="no"/>
      <point x="974" y="1028"/>
      <point x="984" y="1186"/>
      <point x="984" y="1352" type="curve" smooth="yes"/>
      <point x="984" y="1376"/>
      <point x="1028" y="1376"/>
      <point x="1074" y="1376" type="curve" smooth="yes"/>
    </contour>
  </outline>
</glyph>
<glyph name="o" format="1">
  <advance width="1454"/>
  <unicode hex="006f"/>
  <outline>
    <contour>
      <point x="20" y="724" type="line" smooth="no"/>
      <point x="18" y="746" type="line" smooth="no"/>
      <point x="36" y="902"/>
      <point x="48" y="1078"/>
      <point x="194" y="1224" type="curve" smooth="yes"/>
      <point x="218" y="1248" type="line" smooth="no"/>
      <point x="258" y="1294"/>
      <point x="306" y="1320"/>
      <point x="364" y="1344" type="curve" smooth="no"/>
      <point x="402" y="1344" type="line" smooth="no"/>
      <point x="495.546" y="1382.71"/>
      <point x="603.774" y="1401.02"/>
      <point x="724" y="1420" type="curve" smooth="no"/>
      <point x="852" y="1420"/>
      <point x="1108" y="1388"/>
      <point x="1238" y="1220" type="curve" smooth="no"/>
      <point x="1238" y="1192" type="line" smooth="no"/>
      <point x="1334" y="1072"/>
      <point x="1402" y="930"/>
      <point x="1402" y="732" type="curve" smooth="yes"/>
      <point x="1402" y="536"/>
      <point x="1362" y="390"/>
      <point x="1270" y="264" type="curve" smooth="no"/>
      <point x="1230" y="214" type="line" smooth="yes"/>
      <point x="1102" y="54"/>
      <point x="852" y="14"/>
      <point x="682" y="14" type="curve" smooth="yes"/>
      <point x="344" y="14"/>
      <point x="46" y="220"/>
      <point x="20" y="664" type="curve" smooth="no"/>
    </contour>
    <contour>
      <point x="570" y="716" type="line" smooth="yes"/>
      <point x="570" y="598"/>
      <point x="576" y="364"/>
      <point x="704" y="364" type="curve" smooth="yes"/>
      <point x="856" y="364"/>
      <point x="864" y="558"/>
      <point x="864" y="716" type="curve" smooth="yes"/>
      <point x="864" y="752" type="line" smooth="yes"/>
      <point x="864" y="874"/>
      <point x="840" y="1056"/>
      <point x="720" y="1056" type="curve" smooth="yes"/>
      <point x="594" y="1056"/>
      <point x="570" y="896"/>
      <point x="570" y="760" type="curve" smooth="yes"/>
    </contour>
  </outline>
</glyph>
<glyph name="r" format="1">
  <advance width="1402"/>
  <unicode hex="0072"/>
  <outline>
    <contour>
      <point x="92" y="1376" type="line" smooth="no"/>
      <point x="278" y="1376" type="line" smooth="yes"/>
      <point x="452" y="1376"/>
      <point x="650" y="1384"/>
      <point x="836" y="1384" type="curve" smooth="yes"/>
      <point x="1089.02" y="1384"/>
      <point x="1352" y="1315.35"/>
      <point x="1352" y="1044" type="curve" smooth="yes"/>
      <point x="1352" y="897.322"/>
      <point x="1283.86" y="797.929"/>
      <point x="1144" y="728" type="curve" smooth="no"/>
      <point x="1296" y="662"/>
      <point x="1310" y="528"/>
      <point x="1332" y="398" type="curve" smooth="no"/>
      <point x="1342" y="302.047"/>
      <point x="1396" y="190.569"/>
      <point x="1396" y="88" type="curve" smooth="yes"/>
      <point x="1396" y="70"/>
      <point x="1392" y="52"/>
      <point x="1374" y="52" type="curve" smooth="yes"/>
      <point x="1254" y="52"/>
      <point x="1130" y="50"/>
      <point x="1012" y="50" type="curve" smooth="no"/>
      <point x="988" y="52"/>
      <point x="964" y="52"/>
      <point x="940" y="52" type="curve" smooth="yes"/>
      <point x="872" y="52" type="line" smooth="no"/>
      <point x="844" y="60"/>
      <point x="816" y="150"/>
      <point x="806" y="240" type="curve" smooth="no"/>
      <point x="784" y="418" type="line" smooth="no"/>
      <point x="772" y="462"/>
      <point x="764" y="496"/>
      <point x="698" y="496" type="curve" smooth="yes"/>
      <point x="652" y="496" type="line" smooth="no"/>
      <point x="652" y="96" type="line" smooth="yes"/>
      <point x="652" y="64"/>
      <point x="656" y="40"/>
      <point x="618" y="40" type="curve" smooth="yes"/>
      <point x="92" y="40" type="line" smooth="no"/>
    </contour>
    <contour>
      <point x="658" y="848" type="curve" smooth="no"/>
      <point x="664.216" y="840.541"/>
      <point x="669.992" y="827.336"/>
      <point x="680" y="824" type="curve" smooth="no"/>
      <point x="680" y="824" type="line" smooth="no"/>
      <point x="750" y="824"/>
      <point x="872" y="850"/>
      <point x="872" y="972" type="curve" smooth="yes"/>
      <point x="872" y="1074"/>
      <point x="732" y="1076"/>
      <point x="672" y="1076" type="curve" smooth="no"/>
      <point x="672" y="1076" type="line" smooth="no"/>
      <point x="664" y="1074"/>
      <point x="652" y="1068"/>
      <point x="652" y="1060" type="curve" smooth="yes"/>
      <point x="652" y="1022" type="line" smooth="yes"/>
      <point x="652" y="964"/>
      <point x="658" y="906"/>
    </contour>
  </outline>
</glyph>
<glyph name="s" format="1">
  <advance width="1314"/>
  <unicode hex="0073"/>
  <outline>
    <contour>
      <point x="864" y="988" type="line" smooth="no"/>
      <point x="764.934" y="988"/>
      <point x="812.51" y="1068"/>
      <point x="662" y="1068" type="curve" smooth="yes"/>
      <point x="648" y="1068"/>
      <point x="568" y="1062"/>
      <point x="568" y="1024" type="curve" smooth="yes"/>
      <point x="568" y="968"/>
      <point x="679.494" y="967.936"/>
      <point x="723.494" y="945.936" type="curve" smooth="no"/>
      <point x="870" y="910" type="line" smooth="no"/>
      <point x="1060" y="858"/>
      <point x="1286" y="760"/>
      <point x="1286" y="496" type="curve" smooth="yes"/>
      <point x="1286" y="432"/>
      <point x="1278" y="380"/>
      <point x="1262" y="332" type="curve" smooth="no"/>
      <point x="1262" y="334" type="line" smooth="no"/>
      <point x="1174" y="68"/>
      <point x="878" y="28"/>
      <point x="636" y="12" type="curve" smooth="no"/>
      <point x="516" y="18"/>
      <point x="316" y="32"/>
      <point x="214" y="112" type="curve" smooth="no"/>
      <point x="214" y="124" type="line" smooth="no"/>
      <point x="88" y="218"/>
      <point x="38" y="324"/>
      <point x="28" y="452" type="curve" smooth="no"/>
      <point x="28" y="468"/>
      <point x="36" y="476"/>
      <point x="50" y="476" type="curve" smooth="yes"/>
      <point x="62" y="476"/>
      <point x="74" y="474"/>
      <point x="86" y="474" type="curve" smooth="yes"/>
      <point x="188" y="474" type="line" smooth="no"/>
      <point x="202" y="476"/>
      <point x="214" y="476"/>
      <point x="228" y="476" type="curve" smooth="yes"/>
      <point x="254" y="476" type="line" smooth="yes"/>
      <point x="258" y="476"/>
      <point x="262" y="476"/>
      <point x="268" y="474" type="curve" smooth="no"/>
      <point x="326" y="476"/>
      <point x="402" y="476"/>
      <point x="466" y="476" type="curve" smooth="yes"/>
      <point x="512" y="476" type="line" smooth="yes"/>
      <point x="586" y="476"/>
      <point x="534" y="358"/>
      <point x="664" y="358" type="curve" smooth="no"/>
      <point x="664" y="358" type="line" smooth="no"/>
      <point x="710" y="358"/>
      <point x="766" y="382"/>
      <point x="766" y="438" type="curve" smooth="yes"/>
      <point x="766" y="502"/>
      <point x="594" y="532"/>
      <point x="508" y="556" type="curve" smooth="no"/>
      <point x="448" y="556" type="line" smooth="no"/>
      <point x="154" y="642"/>
      <point x="40" y="770"/>
      <point x="40" y="968" type="curve" smooth="yes"/>
      <point x="40" y="1312.51"/>
      <point x="376.163" y="1428"/>
      <point x="668" y="1428" type="curve" smooth="yes"/>
      <point x="889.785" y="1428"/>
      <point x="1088.11" y="1344.66"/>
      <point x="1182" y="1232" type="curve" smooth="no"/>
      <point x="1238" y="1176"/>
      <point x="1246" y="1098"/>
      <point x="1256" y="1024" type="curve" smooth="no"/>
      <point x="1228" y="984" type="line" smooth="no"/>
      <point x="1058" y="984" type="line" smooth="yes"/>
      <point x="1000" y="984"/>
      <point x="934" y="988"/>
      <point x="864" y="988" type="curve" smooth="no"/>
    </contour>
  </outline>
</glyph>
<glyph name="t" format="1">
  <advance width="1168"/>
  <unicode hex="0074"/>
  <outline>
    <contour>
      <point x="-12" y="1012" type="curve" smooth="yes"/>
      <point x="-12" y="1372" type="line" smooth="no"/>
      <point x="1152" y="1372" type="line" smooth="no"/>
      <point x="1176" y="1368"/>
      <point x="1176" y="1350"/>
      <point x="1176" y="1332" type="curve" smooth="yes"/>
      <point x="1176" y="1012" type="line" smooth="no"/>
      <point x="1174" y="990"/>
      <point x="1158" y="988"/>
      <point x="1148" y="988" type="curve" smooth="yes"/>
      <point x="864" y="988" type="line" smooth="no"/>
      <point x="864" y="68" type="line" smooth="no"/>
      <point x="860" y="50"/>
      <point x="860" y="40"/>
      <point x="832" y="36" type="curve" smooth="no"/>
      <point x="768" y="36" type="line" smooth="yes"/>
      <point x="716" y="36"/>
      <point x="640" y="38"/>
      <point x="640" y="44" type="curve" smooth="no"/>
      <point x="624" y="44"/>
      <point x="608" y="42"/>
      <point x="592" y="42" type="curve" smooth="yes"/>
      <point x="512" y="42" type="line" smooth="yes"/>
      <point x="466" y="42"/>
      <point x="428" y="40"/>
      <point x="380" y="40" type="curve" smooth="yes"/>
      <point x="324" y="40" type="line" smooth="no"/>
      <point x="284" y="68" type="line" smooth="no"/>
      <point x="284" y="284" type="line" smooth="no"/>
      <point x="288" y="466"/>
      <point x="300" y="640"/>
      <point x="300" y="832" type="curve" smooth="yes"/>
      <point x="300" y="858" type="line" smooth="yes"/>
      <point x="300" y="874"/>
      <point x="302" y="892"/>
      <point x="302" y="908" type="curve" smooth="yes"/>
      <point x="302" y="926"/>
      <point x="300" y="964"/>
      <point x="300" y="980" type="curve" smooth="no"/>
      <point x="50" y="980" type="line" smooth="yes"/>
      <point x="28" y="980"/>
      <point x="-12" y="986"/>
    </contour>
  </outline>
</glyph>
<glyph name="u" format="1">
  <advance width="1450"/>
  <unicode hex="0075"/>
  <outline>
    <contour>
      <point x="84" y="1142" type="line" smooth="no"/>
      <point x="79.1693" y="1166.15"/>
      <point x="80" y="1204.66"/>
      <point x="80" y="1256" type="curve" smooth="yes"/>
      <point x="80" y="1310"/>
      <point x="84" y="1368"/>
      <point x="100" y="1384" type="curve" smooth="no"/>
      <point x="644" y="1384" type="line" smooth="no"/>
      <point x="644" y="544" type="line" smooth="yes"/>
      <point x="644" y="500"/>
      <point x="650" y="414"/>
      <point x="720" y="414" type="curve" smooth="yes"/>
      <point x="764" y="414"/>
      <point x="794" y="460"/>
      <point x="794" y="510" type="curve" smooth="yes"/>
      <point x="794" y="658" type="line" smooth="no"/>
      <point x="796" y="804"/>
      <point x="800" y="948"/>
      <point x="800" y="1100" type="curve" smooth="yes"/>
      <point x="800" y="1188"/>
      <point x="800" y="1274"/>
      <point x="796" y="1352" type="curve" smooth="yes"/>
      <point x="796" y="1370"/>
      <point x="806" y="1384"/>
      <point x="824" y="1392" type="curve" smooth="no"/>
      <point x="1380" y="1392" type="line" smooth="no"/>
      <point x="1380" y="1236" type="line" smooth="no"/>
      <point x="1374" y="1066"/>
      <point x="1368" y="914"/>
      <point x="1364" y="748" type="curve" smooth="no"/>
      <point x="1364" y="686" type="line" smooth="yes"/>
      <point x="1364" y="664"/>
      <point x="1362" y="644"/>
      <point x="1362" y="626" type="curve" smooth="yes"/>
      <point x="1362" y="608"/>
      <point x="1362" y="592"/>
      <point x="1364" y="578" type="curve" smooth="no"/>
      <point x="1364" y="500" type="line" smooth="yes"/>
      <point x="1364" y="426"/>
      <point x="1358" y="348"/>
      <point x="1336" y="300" type="curve" smooth="no"/>
      <point x="1336" y="296" type="line" smooth="no"/>
      <point x="1246" y="88"/>
      <point x="1004" y="24"/>
      <point x="778" y="24" type="curve" smooth="yes"/>
      <point x="764" y="24"/>
      <point x="750" y="24"/>
      <point x="736" y="30" type="curve" smooth="no"/>
      <point x="712" y="30" type="line" smooth="no"/>
      <point x="712" y="22"/>
      <point x="692" y="20"/>
      <point x="682" y="20" type="curve" smooth="no"/>
      <point x="682" y="18" type="line" smooth="no"/>
      <point x="644" y="16"/>
      <point x="592" y="24"/>
      <point x="554" y="28" type="curve" smooth="no"/>
      <point x="508" y="28" type="line" smooth="no"/>
      <point x="306" y="52"/>
      <point x="90" y="190"/>
      <point x="80" y="502" type="curve" smooth="no"/>
      <point x="82" y="658"/>
      <point x="78" y="800"/>
      <point x="86" y="960" type="curve" smooth="no"/>
      <point x="86" y="988" type="line" smooth="yes"/>
      <point x="86" y="998"/>
      <point x="88" y="1010"/>
      <point x="88" y="1020" type="curve" smooth="yes"/>
      <point x="88" y="1050"/>
      <point x="84" y="1080"/>
      <point x="84" y="1110" type="curve" smooth="yes"/>
      <point x="84" y="1144" type="line" smooth="no"/>
    </contour>
  </outline>
</glyph>
<glyph name="v" format="1">
  <advance width="1392"/>
  <unicode hex="0076"/>
  <outline>
    <contour>
      <point x="764" y="880" type="line" smooth="no"/>
      <point x="784.015" y="984.983"/>
      <point x="829.912" y="1085.03"/>
      <point x="840" y="1196" type="curve" smooth="no"/>
      <point x="840" y="1266" type="line" smooth="no"/>
      <point x="848" y="1318"/>
      <point x="850" y="1374"/>
      <point x="920" y="1376" type="curve" smooth="no"/>
      <point x="1376" y="1376" type="line" smooth="no"/>
      <point x="1384" y="1370"/>
      <point x="1410" y="1354"/>
      <point x="1412" y="1348" type="curve" smooth="no"/>
      <point x="1076.57" y="142.728" type="line" smooth="no"/>
      <point x="1064.57" y="94.728"/>
      <point x="1042" y="44"/>
      <point x="1012" y="44" type="curve" smooth="yes"/>
      <point x="328" y="44" type="line" smooth="no"/>
      <point x="290" y="198"/>
      <point x="250.306" y="365.631"/>
      <point x="212.306" y="519.631" type="curve" smooth="no"/>
      <point x="-31.4799" y="1345.79" type="line" smooth="no"/>
      <point x="-31.4799" y="1367.79"/>
      <point x="-8" y="1374"/>
      <point x="2" y="1376" type="curve" smooth="no"/>
      <point x="2" y="1380" type="line" smooth="no"/>
      <point x="120" y="1380"/>
      <point x="248" y="1384"/>
      <point x="360" y="1384" type="curve" smooth="yes"/>
      <point x="524" y="1384" type="line" smooth="yes"/>
      <point x="540" y="1384"/>
      <point x="533.348" y="1374.17"/>
      <point x="549.348" y="1358.17" type="curve" smooth="no"/>
      <point x="692.178" y="527.966" type="line" smooth="no"/>
      <point x="779.926" y="770.232" type="line" smooth="no"/>
    </contour>
  </outline>
</glyph>
<glyph name="w" format="1">
  <advance width="1906"/>
  <unicode hex="0077"/>
  <outline>
    <contour>
      <point x="559.441" y="705.472" type="line" smooth="no"/>
      <point x="609.273" y="914.77"/>
      <point x="631.86" y="1156.13"/>
      <point x="664" y="1376" type="curve" smooth="no"/>
      <point x="1240" y="1376" type="line" smooth="no"/>
      <point x="1257.44" y="1240.78"/>
      <point x="1273.69" y="1090.1"/>
      <point x="1291.97" y="955.707" type="curve" smooth="no"/>
      <point x="1334.74" y="673.271" type="line" smooth="no"/>
      <point x="1415.65" y="1360.98" type="line" smooth="no"/>
      <point x="1425.65" y="1388.98"/>
      <point x="1504" y="1384"/>
      <point x="1556" y="1384" type="curve" smooth="yes"/>
      <point x="1620" y="1384"/>
      <point x="1676" y="1380"/>
      <point x="1740" y="1380" type="curve" smooth="yes"/>
      <point x="1750" y="1380"/>
      <point x="1770" y="1382"/>
      <point x="1788" y="1382" type="curve" smooth="yes"/>
      <point x="1810" y="1382"/>
      <point x="1826" y="1382"/>
      <point x="1832" y="1376" type="curve" smooth="no"/>
      <point x="1842" y="1376"/>
      <point x="1856" y="1378"/>
      <point x="1868" y="1378" type="curve" smooth="yes"/>
      <point x="1894" y="1378"/>
      <point x="1918.02" y="1370.45"/>
      <point x="1926.02" y="1328.45" type="curve" smooth="no"/>
      <point x="1635.41" y="52" type="line" smooth="no"/>
      <point x="1050" y="52" type="line" smooth="no"/>
      <point x="938.914" y="693.546" type="line" smooth="no"/>
      <point x="870" y="164" type="line" smooth="no"/>
      <point x="860" y="110"/>
      <point x="856" y="36"/>
      <point x="812" y="36" type="curve" smooth="yes"/>
      <point x="738" y="36"/>
      <point x="666" y="42"/>
      <point x="592" y="42" type="curve" smooth="yes"/>
      <point x="470" y="42"/>
      <point x="374" y="36"/>
      <point x="272" y="36" type="curve" smooth="yes"/>
      <point x="240.273" y="36.0585" type="line" smooth="no"/>
      <point x="-26.0098" y="1278.71" type="line" smooth="no"/>
      <point x="-20" y="1350" type="line" smooth="no"/>
      <point x="-20" y="1368"/>
      <point x="-24" y="1378"/>
      <point x="0" y="1388" type="curve" smooth="no"/>
      <point x="14" y="1386"/>
      <point x="28" y="1384"/>
      <point x="42" y="1384" type="curve" smooth="yes"/>
      <point x="108" y="1384" type="line" smooth="yes"/>
      <point x="118" y="1384"/>
      <point x="128" y="1384"/>
      <point x="128" y="1388" type="curve" smooth="no"/>
      <point x="162" y="1388" type="line" smooth="yes"/>
      <point x="172" y="1388"/>
      <point x="180" y="1390"/>
      <point x="196" y="1390" type="curve" smooth="yes"/>
      <point x="224" y="1390" type="line" smooth="yes"/>
      <point x="246" y="1390"/>
      <point x="266" y="1392"/>
      <point x="288" y="1392" type="curve" smooth="yes"/>
      <point x="354" y="1392" type="line" smooth="no"/>
      <point x="354" y="1388" type="line" smooth="no"/>
      <point x="420" y="1388" type="line" smooth="yes"/>
      <point x="458" y="1388"/>
      <point x="484" y="1382"/>
      <point x="486" y="1340" type="curve" smooth="no"/>
    </contour>
  </outline>
</glyph>
<glyph name="x" format="1">
  <advance width="1416"/>
  <unicode hex="0078"/>
  <outline>
    <contour>
      <point x="-44.0424" y="79.7835" type="curve" smooth="no"/>
      <point x="372.241" y="723.844" type="line" smooth="no"/>
      <point x="2.77618" y="1307.63" type="line" smooth="no"/>
      <point x="16" y="1342" type="line" smooth="no"/>
      <point x="14" y="1346"/>
      <point x="-2" y="1350"/>
      <point x="-2" y="1356" type="curve" smooth="yes"/>
      <point x="-2" y="1364"/>
      <point x="4" y="1372"/>
      <point x="18" y="1380" type="curve" smooth="no"/>
      <point x="72" y="1380" type="line" smooth="yes"/>
      <point x="130" y="1380"/>
      <point x="190" y="1380"/>
      <point x="252" y="1382" type="curve" smooth="no"/>
      <point x="312" y="1382" type="line" smooth="yes"/>
      <point x="352" y="1382"/>
      <point x="390" y="1380"/>
      <point x="428" y="1376" type="curve" smooth="no"/>
      <point x="468" y="1376" type="line" smooth="yes"/>
      <point x="486" y="1376"/>
      <point x="506" y="1374"/>
      <point x="524" y="1374" type="curve" smooth="yes"/>
      <point x="534" y="1374"/>
      <point x="542" y="1376"/>
      <point x="552" y="1376" type="curve" smooth="no"/>
      <point x="578.411" y="1368.8"/>
      <point x="582.34" y="1335.32"/>
      <point x="592" y="1316" type="curve" smooth="no"/>
      <point x="608" y="1278"/>
      <point x="628" y="1238"/>
      <point x="644" y="1196" type="curve" smooth="no"/>
      <point x="644" y="1198" type="line" smooth="no"/>
      <point x="656" y="1176"/>
      <point x="666" y="1152"/>
      <point x="678" y="1128" type="curve" smooth="yes"/>
      <point x="712" y="1058" type="line" smooth="no"/>
      <point x="718" y="1048"/>
      <point x="714" y="1050"/>
      <point x="720" y="1040" type="curve" smooth="no"/>
      <point x="748.11" y="1107.22"/>
      <point x="779.743" y="1170.92"/>
      <point x="810" y="1236" type="curve" smooth="no"/>
      <point x="844" y="1304" type="line" smooth="yes"/>
      <point x="864" y="1344"/>
      <point x="884" y="1372"/>
      <point x="892" y="1372" type="curve" smooth="yes"/>
      <point x="1376" y="1372" type="line" smooth="no"/>
      <point x="1420" y="1356"/>
      <point x="1428" y="1378"/>
      <point x="1428" y="1326" type="curve" smooth="no"/>
      <point x="1384" y="1260" type="line" smooth="no"/>
      <point x="1261.28" y="1082.74"/>
      <point x="1151.86" y="897.307"/>
      <point x="1034" y="718" type="curve" smooth="no"/>
      <point x="1442.36" y="80.3871" type="line" smooth="no"/>
      <point x="1442.36" y="48.3871"/>
      <point x="1416" y="42"/>
      <point x="1382" y="42" type="curve" smooth="yes"/>
      <point x="852" y="42" type="line" smooth="no"/>
      <point x="797.588" y="153.588"/>
      <point x="743.793" y="277.793"/>
      <point x="688" y="388" type="curve" smooth="no"/>
      <point x="643.789" y="296.639"/>
      <point x="560.58" y="83.1483"/>
      <point x="492" y="42" type="curve" smooth="no"/>
      <point x="420" y="42"/>
      <point x="354" y="44"/>
      <point x="284" y="44" type="curve" smooth="yes"/>
      <point x="248" y="44" type="line" smooth="yes"/>
      <point x="200" y="44"/>
      <point x="142" y="48"/>
      <point x="88" y="48" type="curve" smooth="yes"/>
      <point x="-8" y="48" type="line" smooth="no"/>
      <point x="-26" y="54"/>
      <point x="-44.0424" y="61.7835"/>
    </contour>
  </outline>
</glyph>
<glyph name="y" format="1">
  <advance width="1366"/>
  <unicode hex="0079"/>
  <outline>
    <contour>
      <point x="545.27" y="1380" type="line" smooth="no"/>
      <point x="702" y="886" type="line" smooth="no"/>
      <point x="751.875" y="1018.79"/>
      <point x="799.311" y="1154.02"/>
      <point x="844" y="1292" type="curve" smooth="no"/>
      <point x="848.612" y="1311.47"/>
      <point x="864.133" y="1332.86"/>
      <point x="868" y="1358" type="curve" smooth="no"/>
      <point x="874" y="1376"/>
      <point x="922" y="1382"/>
      <point x="976" y="1382" type="curve" smooth="yes"/>
      <point x="990" y="1382"/>
      <point x="1000" y="1380"/>
      <point x="1016" y="1380" type="curve" smooth="yes"/>
      <point x="1133.23" y="1381.43"/>
      <point x="1250.58" y="1382.75"/>
      <point x="1368" y="1384" type="curve" smooth="no"/>
      <point x="1384" y="1382"/>
      <point x="1394.44" y="1368.65"/>
      <point x="1402.44" y="1334.65" type="curve" smooth="no"/>
      <point x="947.872" y="512.922" type="line" smooth="no"/>
      <point x="964" y="446" type="line" smooth="no"/>
      <point x="964" y="334"/>
      <point x="968" y="200"/>
      <point x="968" y="104" type="curve" smooth="yes"/>
      <point x="968" y="74" type="line" smooth="no"/>
      <point x="954" y="24"/>
      <point x="864" y="38"/>
      <point x="802" y="38" type="curve" smooth="yes"/>
      <point x="420" y="38" type="line" smooth="no"/>
      <point x="388" y="80" type="line" smooth="no"/>
      <point x="388" y="498" type="line" smooth="no"/>
      <point x="157.073" y="991.06" type="line" smooth="no"/>
      <point x="50.2156" y="1141.03" type="line" smooth="no"/>
      <point x="32.2156" y="1177.03"/>
      <point x="-32" y="1300"/>
      <point x="-32" y="1352" type="curve" smooth="yes"/>
      <point x="-32" y="1374"/>
      <point x="-10" y="1380"/>
      <point x="16" y="1380" type="curve" smooth="yes"/>
    </contour>
  </outline>
</glyph>
<glyph name="z" format="1">
  <advance width="1242"/>
  <unicode hex="007a"/>
  <outline>
    <contour>
      <point x="8" y="84" type="curve" smooth="no"/>
      <point x="8" y="146" type="line" smooth="yes"/>
      <point x="8" y="164"/>
      <point x="10" y="186"/>
      <point x="10" y="208" type="curve" smooth="yes"/>
      <point x="10" y="260" type="line" smooth="yes"/>
      <point x="10" y="312"/>
      <point x="10" y="390"/>
      <point x="20" y="400" type="curve" smooth="no"/>
      <point x="20" y="400" type="line" smooth="no"/>
      <point x="160.683" y="561.984"/>
      <point x="293.354" y="727.979"/>
      <point x="428" y="896" type="curve" smooth="no"/>
      <point x="512.963" y="995.469" type="line" smooth="no"/>
      <point x="416.963" y="997.469"/>
      <point x="318" y="994"/>
      <point x="216" y="994" type="curve" smooth="yes"/>
      <point x="190" y="994" type="line" smooth="yes"/>
      <point x="168" y="994"/>
      <point x="146" y="992"/>
      <point x="124" y="992" type="curve" smooth="yes"/>
      <point x="60" y="992" type="line" smooth="no"/>
      <point x="44" y="1000"/>
      <point x="36" y="1008"/>
      <point x="36" y="1026" type="curve" smooth="yes"/>
      <point x="36" y="1372" type="line" smooth="no"/>
      <point x="1144" y="1372" type="line" smooth="yes"/>
      <point x="1180" y="1372"/>
      <point x="1194" y="1374"/>
      <point x="1194" y="1314" type="curve" smooth="yes"/>
      <point x="1194" y="1292"/>
      <point x="1190" y="1274"/>
      <point x="1190" y="1264" type="curve" smooth="yes"/>
      <point x="1190" y="1262"/>
      <point x="1192" y="1258"/>
      <point x="1194" y="1252" type="curve" smooth="no"/>
      <point x="1194" y="1118"/>
      <point x="1188" y="1046"/>
      <point x="1188" y="1040" type="curve" smooth="no"/>
      <point x="1182" y="1024"/>
      <point x="1180" y="1022"/>
      <point x="1180" y="1016" type="curve" smooth="yes"/>
      <point x="1180" y="1000" type="line" smooth="no"/>
      <point x="1046.41" y="846.258"/>
      <point x="906.425" y="692.908"/>
      <point x="772" y="540" type="curve" smooth="no"/>
      <point x="728" y="484" type="line" smooth="no"/>
      <point x="680" y="432" type="line" smooth="no"/>
      <point x="1180" y="432" type="line" smooth="yes"/>
      <point x="1204" y="432"/>
      <point x="1212" y="398"/>
      <point x="1212" y="352" type="curve" smooth="yes"/>
      <point x="1212" y="92" type="line" smooth="yes"/>
      <point x="1212" y="50"/>
      <point x="1194" y="40"/>
      <point x="1156" y="40" type="curve" smooth="yes"/>
      <point x="38" y="40" type="line" smooth="no"/>
      <point x="32" y="46"/>
      <point x="10" y="74"/>
    </contour>
  </outline>
</glyph>
<glyph name="braceleft" format="1">
  <advance width="1032"/>
  <unicode hex="007b"/>
  <outline>
    <contour>
      <point x="704" y="-312" type="line" smooth="yes"/>
      <point x="473.594" y="-312"/>
      <point x="240.4" y="-271.156"/>
      <point x="244" y="-24" type="curve" smooth="no"/>
      <point x="228" y="338"/>
      <point x="270" y="384"/>
      <point x="144" y="400" type="curve" smooth="no"/>
      <point x="96" y="410"/>
      <point x="48" y="404"/>
      <point x="48" y="432" type="curve" smooth="yes"/>
      <point x="48" y="526"/>
      <point x="42" y="608"/>
      <point x="42" y="706" type="curve" smooth="yes"/>
      <point x="42" y="742"/>
      <point x="46" y="776"/>
      <point x="68" y="786" type="curve" smooth="no"/>
      <point x="140" y="786"/>
      <point x="228" y="794"/>
      <point x="236" y="874" type="curve" smooth="no"/>
      <point x="236" y="1162" type="line" smooth="yes"/>
      <point x="236" y="1484"/>
      <point x="468" y="1508"/>
      <point x="672" y="1512" type="curve" smooth="no"/>
      <point x="888" y="1512" type="line" smooth="no"/>
      <point x="924" y="1478" type="line" smooth="no"/>
      <point x="924" y="1366"/>
      <point x="922" y="1262"/>
      <point x="922" y="1150" type="curve" smooth="no"/>
      <point x="918" y="1128"/>
      <point x="906" y="1118"/>
      <point x="884" y="1118" type="curve" smooth="yes"/>
      <point x="862" y="1118"/>
      <point x="838" y="1120"/>
      <point x="820" y="1120" type="curve" smooth="yes"/>
      <point x="764" y="1120"/>
      <point x="730" y="1106"/>
      <point x="728" y="1024" type="curve" smooth="no"/>
      <point x="728" y="788" type="line" smooth="yes"/>
      <point x="728" y="678"/>
      <point x="640" y="624"/>
      <point x="564" y="592" type="curve" smooth="no"/>
      <point x="598" y="592" type="line" smooth="no"/>
      <point x="702" y="544"/>
      <point x="722" y="462"/>
      <point x="722" y="304" type="curve" smooth="yes"/>
      <point x="722" y="268" type="line" smooth="yes"/>
      <point x="722" y="242"/>
      <point x="720" y="222"/>
      <point x="720" y="196" type="curve" smooth="yes"/>
      <point x="720" y="100"/>
      <point x="730" y="62"/>
      <point x="852" y="62" type="curve" smooth="no"/>
      <point x="852" y="62" type="line" smooth="no"/>
      <point x="876" y="62"/>
      <point x="904" y="62"/>
      <point x="912" y="40" type="curve" smooth="no"/>
      <point x="912" y="-104" type="line" smooth="yes"/>
      <point x="912" y="-196"/>
      <point x="908" y="-304"/>
      <point x="884" y="-312" type="curve" smooth="no"/>
    </contour>
  </outline>
</glyph>
<glyph name="bar" format="1">
  <advance width="492"/>
  <unicode hex="007c"/>
  <outline>
    <contour>
      <point x="70" y="-40" type="line" smooth="no"/>
      <point x="70" y="450"/>
      <point x="88" y="988"/>
      <point x="88" y="1480" type="curve" smooth="yes"/>
      <point x="88" y="1508" type="line" smooth="yes"/>
      <point x="88" y="1562"/>
      <point x="138" y="1546"/>
      <point x="172" y="1550" type="curve" smooth="no"/>
      <point x="310" y="1550" type="line" smooth="no"/>
      <point x="344" y="1546"/>
      <point x="396" y="1564"/>
      <point x="396" y="1516" type="curve" smooth="yes"/>
      <point x="396" y="1134" type="line" smooth="no"/>
      <point x="400" y="852"/>
      <point x="404" y="570"/>
      <point x="412" y="288" type="curve" smooth="no"/>
      <point x="412" y="-40" type="line" smooth="no"/>
      <point x="404" y="-70"/>
      <point x="360" y="-80"/>
      <point x="308" y="-80" type="curve" smooth="yes"/>
      <point x="248" y="-80" type="line" smooth="yes"/>
      <point x="196" y="-80"/>
      <point x="148" y="-82"/>
      <point x="102" y="-74" type="curve" smooth="no"/>
    </contour>
  </outline>
</glyph>
<glyph name="braceright" format="1">
  <advance width="1034"/>
  <unicode hex="007d"/>
  <outline>
    <contour>
      <point x="86" y="-276" type="line" smooth="no"/>
      <point x="88" y="-172"/>
      <point x="92" y="-70"/>
      <point x="92" y="36" type="curve" smooth="yes"/>
      <point x="92" y="54"/>
      <point x="102" y="66"/>
      <point x="122" y="68" type="curve" smooth="no"/>
      <point x="178" y="68" type="line" smooth="yes"/>
      <point x="238" y="68"/>
      <point x="284" y="84"/>
      <point x="284" y="172" type="curve" smooth="yes"/>
      <point x="284" y="198"/>
      <point x="282" y="254"/>
      <point x="282" y="312" type="curve" smooth="no"/>
      <point x="288" y="496"/>
      <point x="322" y="558"/>
      <point x="452" y="596" type="curve" smooth="no"/>
      <point x="322" y="634"/>
      <point x="290" y="692"/>
      <point x="290" y="852" type="curve" smooth="no"/>
      <point x="288" y="884"/>
      <point x="292" y="914"/>
      <point x="292" y="944" type="curve" smooth="yes"/>
      <point x="292" y="1020" type="line" smooth="yes"/>
      <point x="292" y="1100"/>
      <point x="264" y="1124"/>
      <point x="150" y="1124" type="curve" smooth="yes"/>
      <point x="118" y="1124"/>
      <point x="100" y="1126"/>
      <point x="100" y="1148" type="curve" smooth="yes"/>
      <point x="100" y="1206"/>
      <point x="102" y="1270"/>
      <point x="102" y="1328" type="curve" smooth="yes"/>
      <point x="102" y="1338"/>
      <point x="102" y="1348"/>
      <point x="100" y="1362" type="curve" smooth="no"/>
      <point x="100" y="1404" type="line" smooth="yes"/>
      <point x="100" y="1444"/>
      <point x="102" y="1482"/>
      <point x="120" y="1496" type="curve" smooth="no"/>
      <point x="140" y="1494"/>
      <point x="162" y="1492"/>
      <point x="182" y="1492" type="curve" smooth="yes"/>
      <point x="190" y="1492"/>
      <point x="198" y="1494"/>
      <point x="208" y="1494" type="curve" smooth="no"/>
      <point x="208" y="1494" type="line" smooth="no"/>
      <point x="216" y="1494"/>
      <point x="244" y="1492"/>
      <point x="252" y="1492" type="curve" smooth="no"/>
      <point x="252" y="1492" type="line" smooth="no"/>
      <point x="252" y="1494"/>
      <point x="262" y="1494"/>
      <point x="264" y="1494" type="curve" smooth="yes"/>
      <point x="336" y="1494" type="line" smooth="yes"/>
      <point x="528" y="1494"/>
      <point x="776" y="1502"/>
      <point x="776" y="1104" type="curve" smooth="yes"/>
      <point x="776" y="1060" type="line" smooth="yes"/>
      <point x="776" y="990"/>
      <point x="770" y="928"/>
      <point x="770" y="880" type="curve" smooth="yes"/>
      <point x="770" y="790"/>
      <point x="858" y="784"/>
      <point x="924" y="784" type="curve" smooth="no"/>
      <point x="924" y="784" type="line" smooth="no"/>
      <point x="946" y="778"/>
      <point x="966" y="766"/>
      <point x="966" y="750" type="curve" smooth="yes"/>
      <point x="966" y="700"/>
      <point x="964" y="650"/>
      <point x="964" y="596" type="curve" smooth="yes"/>
      <point x="964" y="540"/>
      <point x="966" y="486"/>
      <point x="966" y="430" type="curve" smooth="no"/>
      <point x="958" y="368"/>
      <point x="776" y="442"/>
      <point x="776" y="322" type="curve" smooth="yes"/>
      <point x="776" y="306"/>
      <point x="776" y="286"/>
      <point x="778" y="268" type="curve" smooth="no"/>
      <point x="778" y="204" type="line" smooth="yes"/>
      <point x="778" y="166"/>
      <point x="784" y="126"/>
      <point x="784" y="84" type="curve" smooth="yes"/>
      <point x="784" y="-250"/>
      <point x="622" y="-320"/>
      <point x="438" y="-320" type="curve" smooth="yes"/>
      <point x="120" y="-320" type="line" smooth="no"/>
    </contour>
  </outline>
</glyph>
<glyph name="sterling" format="1">
  <advance width="1440"/>
  <unicode hex="00a3"/>
  <outline>
    <contour>
      <point x="824" y="1546" type="curve" smooth="yes"/>
      <point x="1146.2" y="1546"/>
      <point x="1418" y="1415.13"/>
      <point x="1418" y="1072" type="curve" smooth="yes"/>
      <point x="1418" y="1034"/>
      <point x="1412" y="1034"/>
      <point x="1396" y="1028" type="curve" smooth="no"/>
      <point x="1254" y="1028"/>
      <point x="1118" y="1030"/>
      <point x="976" y="1032" type="curve" smooth="no"/>
      <point x="828.544" y="1038.81"/>
      <point x="934.383" y="1142"/>
      <point x="820" y="1142" type="curve" smooth="no"/>
      <point x="756" y="1136"/>
      <point x="740" y="1072"/>
      <point x="740" y="1008" type="curve" smooth="yes"/>
      <point x="740" y="966"/>
      <point x="744" y="932"/>
      <point x="744" y="900" type="curve" smooth="no"/>
      <point x="1038" y="900" type="line" smooth="no"/>
      <point x="1038" y="814"/>
      <point x="1040" y="722"/>
      <point x="1040" y="636" type="curve" smooth="yes"/>
      <point x="1040" y="614"/>
      <point x="1036" y="596"/>
      <point x="1006" y="596" type="curve" smooth="yes"/>
      <point x="840" y="596" type="line" smooth="yes"/>
      <point x="708.995" y="596"/>
      <point x="744" y="551.053"/>
      <point x="744" y="412" type="curve" smooth="no"/>
      <point x="850" y="414"/>
      <point x="950" y="416"/>
      <point x="1052" y="416" type="curve" smooth="yes"/>
      <point x="1104" y="416" type="line" smooth="yes"/>
      <point x="1192" y="416"/>
      <point x="1280" y="424"/>
      <point x="1368" y="424" type="curve" smooth="no"/>
      <point x="1398" y="418"/>
      <point x="1400" y="394"/>
      <point x="1400" y="354" type="curve" smooth="yes"/>
      <point x="1400" y="326" type="line" smooth="yes"/>
      <point x="1400" y="230"/>
      <point x="1404" y="130"/>
      <point x="1404" y="34" type="curve" smooth="yes"/>
      <point x="1404" y="-22"/>
      <point x="1364" y="-28"/>
      <point x="1324" y="-28" type="curve" smooth="yes"/>
      <point x="72" y="-28" type="line" smooth="no"/>
      <point x="44" y="0" type="line" smooth="no"/>
      <point x="44" y="24"/>
      <point x="42" y="46"/>
      <point x="40" y="68" type="curve" smooth="no"/>
      <point x="40" y="132" type="line" smooth="yes"/>
      <point x="40" y="174"/>
      <point x="36" y="222"/>
      <point x="36" y="280" type="curve" smooth="yes"/>
      <point x="36" y="336"/>
      <point x="46" y="382"/>
      <point x="70" y="392" type="curve" smooth="no"/>
      <point x="190" y="392" type="line" smooth="no"/>
      <point x="190" y="586" type="line" smooth="no"/>
      <point x="164" y="586"/>
      <point x="142" y="588"/>
      <point x="116" y="588" type="curve" smooth="no"/>
      <point x="116" y="588" type="line" smooth="no"/>
      <point x="108" y="586"/>
      <point x="78" y="584"/>
      <point x="68" y="584" type="curve" smooth="yes"/>
      <point x="38" y="584"/>
      <point x="6" y="596"/>
      <point x="6" y="624" type="curve" smooth="yes"/>
      <point x="6" y="678"/>
      <point x="8" y="724"/>
      <point x="8" y="774" type="curve" smooth="yes"/>
      <point x="8" y="792"/>
      <point x="6" y="818"/>
      <point x="6" y="840" type="curve" smooth="yes"/>
      <point x="6" y="870"/>
      <point x="8" y="904"/>
      <point x="36" y="908" type="curve" smooth="no"/>
      <point x="198" y="908" type="line" smooth="no"/>
      <point x="198" y="940"/>
      <point x="196" y="978"/>
      <point x="196" y="1012" type="curve" smooth="yes"/>
      <point x="196" y="1385.73"/>
      <point x="478.82" y="1546"/>
    </contour>
  </outline>
</glyph>
<glyph name="currency" format="1">
  <advance width="1478"/>
  <unicode hex="00a4"/>
  <outline>
    <contour>
      <point x="344" y="252" type="line" smooth="no"/>
      <point x="282.303" y="338.376"/>
      <point x="236" y="478.006"/>
      <point x="236" y="618" type="curve" smooth="yes"/>
      <point x="236" y="716"/>
      <point x="256" y="904"/>
      <point x="364" y="1018" type="curve" smooth="no"/>
      <point x="330.667" y="1052.67"/>
      <point x="198.128" y="1190.51"/>
      <point x="198.128" y="1190.51" type="curve" smooth="no"/>
      <point x="198.128" y="1210.51"/>
      <point x="278.377" y="1256.06"/>
      <point x="282.377" y="1256.06" type="curve" smooth="no"/>
      <point x="442" y="1084" type="line" smooth="no"/>
      <point x="528" y="1142"/>
      <point x="620" y="1176"/>
      <point x="746" y="1176" type="curve" smooth="yes"/>
      <point x="883.22" y="1176"/>
      <point x="1014.21" y="1143.79"/>
      <point x="1102" y="1056" type="curve" smooth="no"/>
      <point x="1288.74" y="1255.06" type="line" smooth="no"/>
      <point x="1306.74" y="1255.06"/>
      <point x="1352" y="1214"/>
      <point x="1356" y="1210" type="curve" smooth="no"/>
      <point x="1356" y="1212" type="line" smooth="no"/>
      <point x="1362" y="1206"/>
      <point x="1362" y="1206"/>
      <point x="1362" y="1200" type="curve" smooth="yes"/>
      <point x="1362" y="1184"/>
      <point x="1336" y="1154"/>
      <point x="1306" y="1122" type="curve" smooth="yes"/>
      <point x="1262.48" y="1076.18"/>
      <point x="1217.89" y="1031.45"/>
      <point x="1176" y="984" type="curve" smooth="no"/>
      <point x="1262" y="876"/>
      <point x="1280" y="698"/>
      <point x="1280" y="584" type="curve" smooth="yes"/>
      <point x="1280" y="474"/>
      <point x="1254" y="370"/>
      <point x="1198" y="284" type="curve" smooth="no"/>
      <point x="1272" y="206" type="line" smooth="yes"/>
      <point x="1310" y="166"/>
      <point x="1342" y="124"/>
      <point x="1368" y="74" type="curve" smooth="no"/>
      <point x="1368" y="58" type="line" smooth="no"/>
      <point x="1360" y="52"/>
      <point x="1332" y="50"/>
      <point x="1324" y="48" type="curve" smooth="no"/>
      <point x="1324" y="40" type="line" smooth="no"/>
      <point x="1318" y="38"/>
      <point x="1291.16" y="23.9836"/>
      <point x="1285.16" y="23.9836" type="curve" smooth="no"/>
      <point x="1126" y="194" type="line" smooth="no"/>
      <point x="1026" y="94"/>
      <point x="916" y="68"/>
      <point x="798" y="58" type="curve" smooth="no"/>
      <point x="752" y="58" type="line" smooth="no"/>
      <point x="634.279" y="87.4304"/>
      <point x="538.105" y="74.407"/>
      <point x="420" y="168" type="curve" smooth="no"/>
      <point x="356" y="100" type="line" smooth="yes"/>
      <point x="322" y="64"/>
      <point x="290" y="34"/>
      <point x="268" y="34" type="curve" smooth="yes"/>
      <point x="264" y="34"/>
      <point x="260" y="36"/>
      <point x="256" y="40" type="curve" smooth="no"/>
      <point x="224" y="40" type="line" smooth="no"/>
      <point x="224" y="74" type="line" smooth="no"/>
      <point x="250" y="128"/>
      <point x="262" y="166"/>
      <point x="300" y="206" type="curve" smooth="yes"/>
    </contour>
    <contour>
      <point x="494" y="630" type="curve" smooth="yes"/>
      <point x="494" y="438.702"/>
      <point x="579.11" y="328"/>
      <point x="720" y="328" type="curve" smooth="yes"/>
      <point x="752" y="328" type="line" smooth="yes"/>
      <point x="840" y="328"/>
      <point x="1004" y="340"/>
      <point x="1004" y="608" type="curve" smooth="yes"/>
      <point x="1004" y="896"/>
      <point x="866" y="908"/>
      <point x="756" y="908" type="curve" smooth="yes"/>
      <point x="720" y="908" type="line" smooth="yes"/>
      <point x="628" y="908"/>
      <point x="494" y="864"/>
    </contour>
  </outline>
</glyph>
<glyph name="brokenbar" format="1">
  <advance width="494"/>
  <unicode hex="00a6"/>
  <outline>
    <contour>
      <point x="80" y="-320" type="line" smooth="no"/>
      <point x="80" y="42"/>
      <point x="90" y="370"/>
      <point x="90" y="442" type="curve" smooth="yes"/>
      <point x="90" y="452"/>
      <point x="88" y="462"/>
      <point x="88" y="468" type="curve" smooth="yes"/>
      <point x="88" y="484"/>
      <point x="94" y="502"/>
      <point x="104" y="512" type="curve" smooth="no"/>
      <point x="396" y="512" type="line" smooth="no"/>
      <point x="396" y="-320" type="line" smooth="no"/>
      <point x="388" y="-350"/>
      <point x="354" y="-360"/>
      <point x="302" y="-360" type="curve" smooth="yes"/>
      <point x="112" y="-360" type="line" smooth="no"/>
    </contour>
    <contour>
      <point x="80" y="778" type="line" smooth="no"/>
      <point x="80" y="1110"/>
      <point x="90" y="1416"/>
      <point x="90" y="1480" type="curve" smooth="yes"/>
      <point x="90" y="1490"/>
      <point x="88" y="1498"/>
      <point x="88" y="1508" type="curve" smooth="yes"/>
      <point x="88" y="1562"/>
      <point x="136" y="1546"/>
      <point x="172" y="1550" type="curve" smooth="no"/>
      <point x="312" y="1550" type="line" smooth="no"/>
      <point x="346" y="1546"/>
      <point x="396" y="1564"/>
      <point x="396" y="1516" type="curve" smooth="yes"/>
      <point x="396" y="780" type="line" smooth="no"/>
      <point x="388" y="748"/>
      <point x="354" y="740"/>
      <point x="302" y="740" type="curve" smooth="yes"/>
      <point x="112" y="740" type="line" smooth="no"/>
    </contour>
  </outline>
</glyph>
<glyph name="dieresis" format="1">
  <advance width="658"/>
  <unicode hex="00a8"/>
  <outline>
    <contour>
      <point x="-116" y="1432" type="curve" smooth="no"/>
      <point x="-116" y="1494" type="line" smooth="yes"/>
      <point x="-116" y="1612"/>
      <point x="-104" y="1784"/>
      <point x="-80" y="1784" type="curve" smooth="yes"/>
      <point x="248" y="1784" type="line" smooth="no"/>
      <point x="266" y="1778"/>
      <point x="272" y="1758"/>
      <point x="272" y="1736" type="curve" smooth="yes"/>
      <point x="272" y="1416" type="line" smooth="no"/>
      <point x="266" y="1394"/>
      <point x="220" y="1388"/>
      <point x="176" y="1388" type="curve" smooth="yes"/>
      <point x="150" y="1388"/>
      <point x="124" y="1390"/>
      <point x="106" y="1390" type="curve" smooth="yes"/>
      <point x="42" y="1390"/>
      <point x="-20" y="1384"/>
      <point x="-84" y="1382" type="curve" smooth="no"/>
      <point x="-94.2792" y="1399.05"/>
      <point x="-104.905" y="1415.76"/>
    </contour>
    <contour>
      <point x="432" y="1428" type="line" smooth="yes"/>
      <point x="432" y="1522"/>
      <point x="434" y="1768"/>
      <point x="464" y="1784" type="curve" smooth="no"/>
      <point x="500" y="1782"/>
      <point x="536" y="1780"/>
      <point x="570" y="1780" type="curve" smooth="yes"/>
      <point x="624" y="1780"/>
      <point x="668" y="1784"/>
      <point x="734" y="1784" type="curve" smooth="yes"/>
      <point x="766" y="1784"/>
      <point x="812" y="1782"/>
      <point x="816" y="1760" type="curve" smooth="no"/>
      <point x="818" y="1646"/>
      <point x="820" y="1534"/>
      <point x="820" y="1420" type="curve" smooth="no"/>
      <point x="816" y="1402"/>
      <point x="808" y="1396"/>
      <point x="800" y="1396" type="curve" smooth="yes"/>
      <point x="798" y="1396"/>
      <point x="796" y="1396"/>
      <point x="796" y="1398" type="curve" smooth="no"/>
      <point x="684" y="1388"/>
      <point x="576" y="1390"/>
      <point x="464" y="1382" type="curve" smooth="no"/>
      <point x="432" y="1422" type="line" smooth="no"/>
    </contour>
  </outline>
</glyph>
<glyph name="copyright" format="1">
  <advance width="1646"/>
  <unicode hex="00a9"/>
  <outline>
    <contour>
      <point x="8" y="734" type="curve" smooth="no"/>
      <point x="8" y="1241.65"/>
      <point x="386.049" y="1538"/>
      <point x="812" y="1538" type="curve" smooth="yes"/>
      <point x="1244" y="1538"/>
      <point x="1628" y="1200"/>
      <point x="1628" y="724" type="curve" smooth="yes"/>
      <point x="1628" y="308"/>
      <point x="1250" y="-64"/>
      <point x="828" y="-64" type="curve" smooth="yes"/>
      <point x="682" y="-64"/>
      <point x="534" y="-26"/>
      <point x="388" y="60" type="curve" smooth="yes"/>
      <point x="98" y="230"/>
      <point x="28" y="512"/>
    </contour>
    <contour>
      <point x="828" y="1304" type="line" smooth="no"/>
      <point x="501.877" y="1304"/>
      <point x="293.48" y="1038.5"/>
      <point x="250" y="746" type="curve" smooth="no"/>
      <point x="250" y="444"/>
      <point x="502" y="176"/>
      <point x="806" y="176" type="curve" smooth="yes"/>
      <point x="1112" y="176"/>
      <point x="1376" y="430"/>
      <point x="1376" y="768" type="curve" smooth="yes"/>
      <point x="1376" y="1070"/>
      <point x="1120" y="1298"/>
      <point x="828" y="1304" type="curve" smooth="no"/>
    </contour>
    <contour>
      <point x="822" y="536" type="curve" smooth="yes"/>
      <point x="950.693" y="536"/>
      <point x="879.553" y="664"/>
      <point x="1038" y="664" type="curve" smooth="yes"/>
      <point x="1154" y="664" type="line" smooth="yes"/>
      <point x="1190" y="664"/>
      <point x="1224" y="660"/>
      <point x="1224" y="624" type="curve" smooth="no"/>
      <point x="1192" y="416"/>
      <point x="1042" y="282"/>
      <point x="852" y="282" type="curve" smooth="yes"/>
      <point x="524" y="282"/>
      <point x="392" y="522"/>
      <point x="392" y="748" type="curve" smooth="yes"/>
      <point x="392" y="1024"/>
      <point x="620" y="1194"/>
      <point x="844" y="1194" type="curve" smooth="yes"/>
      <point x="1060" y="1194"/>
      <point x="1174" y="1054"/>
      <point x="1216" y="872" type="curve" smooth="no"/>
      <point x="1216" y="846"/>
      <point x="1190" y="840"/>
      <point x="1148" y="840" type="curve" smooth="yes"/>
      <point x="978" y="840" type="line" smooth="no"/>
      <point x="909.333" y="869.429"/>
      <point x="941.293" y="958"/>
      <point x="834" y="958" type="curve" smooth="yes"/>
      <point x="706" y="958"/>
      <point x="672" y="830"/>
      <point x="672" y="738" type="curve" smooth="yes"/>
      <point x="672" y="638"/>
      <point x="714" y="536"/>
    </contour>
  </outline>
</glyph>
<glyph name="ordfeminine" format="1">
  <advance width="844"/>
  <unicode hex="00aa"/>
  <outline>
    <contour>
      <point x="50" y="1056" type="curve" smooth="yes"/>
      <point x="50" y="1190"/>
      <point x="184" y="1244"/>
      <point x="376" y="1244" type="curve" smooth="yes"/>
      <point x="422" y="1244"/>
      <point x="466" y="1242"/>
      <point x="508" y="1240" type="curve" smooth="no"/>
      <point x="508" y="1280" type="line" smooth="yes"/>
      <point x="508" y="1354"/>
      <point x="490" y="1400"/>
      <point x="416" y="1400" type="curve" smooth="yes"/>
      <point x="374" y="1400"/>
      <point x="330" y="1382"/>
      <point x="320" y="1344" type="curve" smooth="no"/>
      <point x="76" y="1344" type="line" smooth="no"/>
      <point x="96" y="1484"/>
      <point x="316" y="1494"/>
      <point x="428" y="1494" type="curve" smooth="yes"/>
      <point x="538" y="1494"/>
      <point x="790" y="1510"/>
      <point x="790" y="1296" type="curve" smooth="yes"/>
      <point x="790" y="1158"/>
      <point x="788" y="1032"/>
      <point x="788" y="904" type="curve" smooth="no"/>
      <point x="780" y="904"/>
      <point x="772" y="904"/>
      <point x="764" y="902" type="curve" smooth="no"/>
      <point x="736" y="902" type="line" smooth="yes"/>
      <point x="664" y="902"/>
      <point x="594" y="906"/>
      <point x="520" y="906" type="curve" smooth="no"/>
      <point x="520" y="944" type="line" smooth="yes"/>
      <point x="520" y="950"/>
      <point x="514" y="954"/>
      <point x="514" y="960" type="curve" smooth="yes"/>
      <point x="514" y="964" type="line" smooth="no"/>
      <point x="450" y="918"/>
      <point x="378" y="888"/>
      <point x="274" y="888" type="curve" smooth="yes"/>
      <point x="146" y="888"/>
      <point x="50" y="938"/>
    </contour>
    <contour>
      <point x="312" y="1082" type="curve" smooth="yes"/>
      <point x="312" y="1026"/>
      <point x="356" y="1004"/>
      <point x="408" y="1004" type="curve" smooth="yes"/>
      <point x="466" y="1004"/>
      <point x="498" y="1020"/>
      <point x="508" y="1084" type="curve" smooth="no"/>
      <point x="508" y="1188" type="line" smooth="no"/>
      <point x="432" y="1182"/>
      <point x="312" y="1186"/>
    </contour>
  </outline>
</glyph>
